<mxfile host="app.diagrams.net" modified="2020-04-25T20:51:23.291Z" agent="5.0 (Windows NT 10.0; Win64; x64) AppleWebKit/537.36 (KHTML, like Gecko) Chrome/81.0.4044.122 Safari/537.36" etag="R1b6rfo04SAqBb0yap9B" version="13.0.1" type="github" pages="7">
  <diagram id="0EEfZc_7RJhzuuUB2JYL" name="Types">
    <mxGraphModel dx="1278" dy="580" grid="1" gridSize="10" guides="1" tooltips="1" connect="1" arrows="1" fold="1" page="1" pageScale="1" pageWidth="850" pageHeight="1100" math="0" shadow="0">
      <root>
        <mxCell id="0" />
        <mxCell id="1" parent="0" />
        <mxCell id="HW57a7HclxDGlEDvIGBv-4" style="edgeStyle=orthogonalEdgeStyle;rounded=0;orthogonalLoop=1;jettySize=auto;html=1;entryX=0.5;entryY=0;entryDx=0;entryDy=0;" parent="1" source="HW57a7HclxDGlEDvIGBv-1" target="HW57a7HclxDGlEDvIGBv-2" edge="1">
          <mxGeometry relative="1" as="geometry" />
        </mxCell>
        <mxCell id="HW57a7HclxDGlEDvIGBv-5" style="edgeStyle=orthogonalEdgeStyle;rounded=0;orthogonalLoop=1;jettySize=auto;html=1;entryX=0.5;entryY=0;entryDx=0;entryDy=0;" parent="1" source="HW57a7HclxDGlEDvIGBv-1" target="HW57a7HclxDGlEDvIGBv-3" edge="1">
          <mxGeometry relative="1" as="geometry" />
        </mxCell>
        <mxCell id="HW57a7HclxDGlEDvIGBv-1" value="&lt;b&gt;&lt;font style=&quot;font-size: 18px&quot;&gt;MULE SDK&lt;/font&gt;&lt;/b&gt;" style="rounded=0;whiteSpace=wrap;html=1;" parent="1" vertex="1">
          <mxGeometry x="330" y="200" width="120" height="60" as="geometry" />
        </mxCell>
        <mxCell id="HW57a7HclxDGlEDvIGBv-2" value="&lt;b&gt;&lt;font style=&quot;font-size: 18px&quot;&gt;JAVA&lt;/font&gt;&lt;/b&gt;" style="rounded=0;whiteSpace=wrap;html=1;" parent="1" vertex="1">
          <mxGeometry x="260" y="310" width="110" height="50" as="geometry" />
        </mxCell>
        <mxCell id="HW57a7HclxDGlEDvIGBv-3" value="&lt;font style=&quot;font-size: 18px&quot;&gt;&lt;b&gt;XML&lt;/b&gt;&lt;/font&gt;" style="rounded=0;whiteSpace=wrap;html=1;" parent="1" vertex="1">
          <mxGeometry x="420" y="310" width="110" height="50" as="geometry" />
        </mxCell>
        <mxCell id="HW57a7HclxDGlEDvIGBv-6" value="&lt;b&gt;&lt;font style=&quot;font-size: 25px&quot;&gt;MULE 4 CUSTOM CONNECTORS&lt;/font&gt;&lt;/b&gt;" style="text;html=1;strokeColor=none;fillColor=none;align=center;verticalAlign=middle;whiteSpace=wrap;rounded=0;" parent="1" vertex="1">
          <mxGeometry x="140" y="130" width="500" height="20" as="geometry" />
        </mxCell>
      </root>
    </mxGraphModel>
  </diagram>
  <diagram id="B5rgHbZjlgf5Dx1ObZ-M" name="Java SDK HLD">
    <mxGraphModel dx="1278" dy="614" grid="1" gridSize="10" guides="1" tooltips="1" connect="1" arrows="1" fold="1" page="1" pageScale="1" pageWidth="850" pageHeight="1100" math="0" shadow="0">
      <root>
        <mxCell id="u2HOf9AEmUz6bdktSNZ6-0" />
        <mxCell id="u2HOf9AEmUz6bdktSNZ6-1" parent="u2HOf9AEmUz6bdktSNZ6-0" />
        <mxCell id="u2HOf9AEmUz6bdktSNZ6-2" value="&lt;b&gt;&lt;font style=&quot;font-size: 25px&quot;&gt;JAVA BASED SDK&lt;/font&gt;&lt;/b&gt;" style="text;html=1;strokeColor=none;fillColor=none;align=center;verticalAlign=middle;whiteSpace=wrap;rounded=0;" vertex="1" parent="u2HOf9AEmUz6bdktSNZ6-1">
          <mxGeometry x="280" y="120" width="260" height="20" as="geometry" />
        </mxCell>
        <mxCell id="csIXtXCcK2hyYAli1Iv4-0" style="edgeStyle=orthogonalEdgeStyle;rounded=0;orthogonalLoop=1;jettySize=auto;html=1;entryX=0.08;entryY=-0.05;entryDx=0;entryDy=0;entryPerimeter=0;" edge="1" parent="u2HOf9AEmUz6bdktSNZ6-1" source="u2HOf9AEmUz6bdktSNZ6-3" target="u2HOf9AEmUz6bdktSNZ6-7">
          <mxGeometry relative="1" as="geometry" />
        </mxCell>
        <mxCell id="u2HOf9AEmUz6bdktSNZ6-3" value="&lt;font style=&quot;font-size: 20px&quot;&gt;MODULE&lt;/font&gt;" style="rounded=0;whiteSpace=wrap;html=1;" vertex="1" parent="u2HOf9AEmUz6bdktSNZ6-1">
          <mxGeometry x="110" y="210" width="120" height="60" as="geometry" />
        </mxCell>
        <mxCell id="csIXtXCcK2hyYAli1Iv4-3" style="edgeStyle=orthogonalEdgeStyle;rounded=0;orthogonalLoop=1;jettySize=auto;html=1;entryX=0.854;entryY=-0.037;entryDx=0;entryDy=0;entryPerimeter=0;exitX=0.445;exitY=1;exitDx=0;exitDy=0;exitPerimeter=0;" edge="1" parent="u2HOf9AEmUz6bdktSNZ6-1" source="u2HOf9AEmUz6bdktSNZ6-4" target="u2HOf9AEmUz6bdktSNZ6-7">
          <mxGeometry relative="1" as="geometry" />
        </mxCell>
        <mxCell id="csIXtXCcK2hyYAli1Iv4-4" style="edgeStyle=orthogonalEdgeStyle;rounded=0;orthogonalLoop=1;jettySize=auto;html=1;entryX=0.173;entryY=-0.05;entryDx=0;entryDy=0;entryPerimeter=0;" edge="1" parent="u2HOf9AEmUz6bdktSNZ6-1" source="u2HOf9AEmUz6bdktSNZ6-4" target="u2HOf9AEmUz6bdktSNZ6-6">
          <mxGeometry relative="1" as="geometry" />
        </mxCell>
        <mxCell id="u2HOf9AEmUz6bdktSNZ6-4" value="&lt;font style=&quot;font-size: 20px&quot;&gt;CONFIGURATION&lt;/font&gt;" style="rounded=0;whiteSpace=wrap;html=1;" vertex="1" parent="u2HOf9AEmUz6bdktSNZ6-1">
          <mxGeometry x="270" y="210" width="210" height="60" as="geometry" />
        </mxCell>
        <mxCell id="csIXtXCcK2hyYAli1Iv4-5" style="edgeStyle=orthogonalEdgeStyle;rounded=0;orthogonalLoop=1;jettySize=auto;html=1;entryX=0.943;entryY=0.03;entryDx=0;entryDy=0;entryPerimeter=0;" edge="1" parent="u2HOf9AEmUz6bdktSNZ6-1" source="u2HOf9AEmUz6bdktSNZ6-5" target="u2HOf9AEmUz6bdktSNZ6-6">
          <mxGeometry relative="1" as="geometry" />
        </mxCell>
        <mxCell id="u2HOf9AEmUz6bdktSNZ6-5" value="&lt;font style=&quot;font-size: 20px&quot;&gt;CONNECTION PROVIDER&lt;/font&gt;" style="rounded=0;whiteSpace=wrap;html=1;" vertex="1" parent="u2HOf9AEmUz6bdktSNZ6-1">
          <mxGeometry x="570" y="210" width="200" height="60" as="geometry" />
        </mxCell>
        <mxCell id="u2HOf9AEmUz6bdktSNZ6-6" value="&lt;font style=&quot;font-size: 20px&quot;&gt;PARAMETERS&lt;/font&gt;" style="rounded=0;whiteSpace=wrap;html=1;" vertex="1" parent="u2HOf9AEmUz6bdktSNZ6-1">
          <mxGeometry x="490" y="410" width="190" height="60" as="geometry" />
        </mxCell>
        <mxCell id="csIXtXCcK2hyYAli1Iv4-6" style="edgeStyle=orthogonalEdgeStyle;rounded=0;orthogonalLoop=1;jettySize=auto;html=1;entryX=0;entryY=0.5;entryDx=0;entryDy=0;" edge="1" parent="u2HOf9AEmUz6bdktSNZ6-1" source="u2HOf9AEmUz6bdktSNZ6-7" target="u2HOf9AEmUz6bdktSNZ6-6">
          <mxGeometry relative="1" as="geometry" />
        </mxCell>
        <mxCell id="u2HOf9AEmUz6bdktSNZ6-7" value="&lt;font style=&quot;font-size: 20px&quot;&gt;COMPONENTS&lt;/font&gt;" style="rounded=0;whiteSpace=wrap;html=1;" vertex="1" parent="u2HOf9AEmUz6bdktSNZ6-1">
          <mxGeometry x="150" y="410" width="250" height="60" as="geometry" />
        </mxCell>
        <mxCell id="u2HOf9AEmUz6bdktSNZ6-8" value="&lt;font style=&quot;font-size: 18px&quot;&gt;Operation&lt;/font&gt;" style="rounded=0;whiteSpace=wrap;html=1;" vertex="1" parent="u2HOf9AEmUz6bdktSNZ6-1">
          <mxGeometry x="200" y="460" width="150" height="40" as="geometry" />
        </mxCell>
        <mxCell id="u2HOf9AEmUz6bdktSNZ6-9" value="&lt;font style=&quot;font-size: 18px&quot;&gt;Sources&lt;/font&gt;" style="rounded=0;whiteSpace=wrap;html=1;" vertex="1" parent="u2HOf9AEmUz6bdktSNZ6-1">
          <mxGeometry x="200" y="500" width="150" height="40" as="geometry" />
        </mxCell>
        <mxCell id="u2HOf9AEmUz6bdktSNZ6-10" value="&lt;font style=&quot;font-size: 18px&quot;&gt;Routers&lt;/font&gt;" style="rounded=0;whiteSpace=wrap;html=1;" vertex="1" parent="u2HOf9AEmUz6bdktSNZ6-1">
          <mxGeometry x="200" y="540" width="150" height="40" as="geometry" />
        </mxCell>
        <mxCell id="u2HOf9AEmUz6bdktSNZ6-12" value="&lt;font style=&quot;font-size: 18px&quot;&gt;Scopes&lt;/font&gt;" style="rounded=0;whiteSpace=wrap;html=1;" vertex="1" parent="u2HOf9AEmUz6bdktSNZ6-1">
          <mxGeometry x="200" y="570" width="150" height="40" as="geometry" />
        </mxCell>
        <mxCell id="u2HOf9AEmUz6bdktSNZ6-13" value="&lt;font style=&quot;font-size: 18px&quot;&gt;Functions&lt;/font&gt;" style="rounded=0;whiteSpace=wrap;html=1;" vertex="1" parent="u2HOf9AEmUz6bdktSNZ6-1">
          <mxGeometry x="200" y="600" width="150" height="40" as="geometry" />
        </mxCell>
      </root>
    </mxGraphModel>
  </diagram>
  <diagram id="KvFmTUXvcDNTPuwDTg7-" name="Modules">
    <mxGraphModel dx="1278" dy="614" grid="1" gridSize="10" guides="1" tooltips="1" connect="1" arrows="1" fold="1" page="1" pageScale="1" pageWidth="850" pageHeight="1100" math="0" shadow="0">
      <root>
        <mxCell id="XEuqMZY1B0dR8SwTnQAA-0" />
        <mxCell id="XEuqMZY1B0dR8SwTnQAA-1" parent="XEuqMZY1B0dR8SwTnQAA-0" />
        <mxCell id="XEuqMZY1B0dR8SwTnQAA-2" value="" style="shape=image;verticalLabelPosition=bottom;labelBackgroundColor=#ffffff;verticalAlign=top;aspect=fixed;imageAspect=0;image=data:image/png,iVBORw0KGgoAAAANSUhEUgAAASUAAAB0CAYAAADDwiSRAAAUZUlEQVR4Ae1d368ctRW+j/xJaP8J8kJeCxXaEIGIAhKNAggi2ka0hCwQAiVQpYQEiKgKKFkIBbUIUUJRVamqWqH73L6EVu0DpNqdvac69nh8jsf2zO6d/XXnW2k1v2yfcz7b3xx7Znx2CD8gAASAwAYhsLNBukAVIAAEgACBlNAIgAAQ2CgEQEobVR1QBggAAZAS2gAQAAIbhQBIaaOqA8oAASAAUkIbAAJAYKMQACltVHVAGSAABEBKaANAAAhsFAIgpY2qDigDBIAASAltAAgAgY1CAKS0UdUBZYAAEJiLlP7zX6Jvdvfo79/s0b/+vdd79P7xT6IrV2d08tSUjhyzf97nc3wNPyAABOZHoBUp/fFPM3r2hSn98OiEfnDE/0+fmRJf69uvKIguvTWje49OFR4SG77GaTgtfkAACLRHIEtKxYzo/IUi2fFcJ3z+5YJu/6+90G1OySTzzNlmTBw2nBbEtM01Dt1XjUCWlNoQkut8TEz53y6NBju0s7NDw3GQcjw053cGI9olovHQpuO00f9w3CoNkZcZllPTIVApdcjej7OZt48+MaE3rhR0/UZBNz4p6PLVgh475b1JTsN5cr/d0aBm52DESOz/Z7EcUgj5/kteXQnLsMFjbrEJZfBxV3WwOqQOhqQkKfGwTHY+t3/iySn95OdTuu9B3fH4+s2vc53PE0SNENZASlFybKhTnieSQ7YzL07p/esFvflOQRcuTs2f9z8YFzQ674d2nCc3x2Q6iARld0SDGHk36Neby9xeyhvYQjYbfAeU4/0aKe1X5kKK9jNTkpR+NvKdignniR9P6cYnM3r73YJ++7sZ/fkve8RzSo6seMtklf61JyVZhr2D7dCO7LQygfSsamm8TH/XG9PQeWAi/bFjx2gwGNDt27eD0v0hT2A7e9lDYkI68tDEeEcnT02I/5feKujIsQk989yU7rnfEzfnTf1qpORsEvql8vby/H4JwpBS3nsEKa2vZUVJiZ+yhZPaX9yc0fjjmSGiax9acopNft/6NvVUzhNEra8FnpKEo3tSEsNDcbedzWZ06NAhOnz4MO3txW3gJ2uOlHjI9tRpe3zto4KOHp8Y7/H4CUtEX341I7fPeThv6pciJU+kRFR6T9UwVOhuynUYGsL1XkCtc5mi9HCxVh9O0USZfNkPf3iI7eW5rPq6G7LzDSFIqwjCtpHh2N04/NDKYVG1B3FjMecCI4z8EKOa3v5mF+Ikj2My43ZK2+K2uHzYphGIkhI/9nedj7fsJfGc0dXfFPTIyanxlo7/aEIXL9vOKNPy6wLxnyelqmO5huW2kUZUNYig0UkZ6TRepmvURK7B+wbpyrp16xbdcccd9N5777lTasuP/Z2tPId07tUpnT03pU8/K+j581N64OGJSv/d93v08ms2D+dN/WqkZMhA38l3R0Mx3CjtcpiEw5HxqEorOxfLt2Qhyt4d0Sg24ZQps9bhA33TMtqR0mAgbbU3EV9/xo3UwzeWr9qOI4QE4ooIbZoQp/CYajJKLKVchYPVIbQloRFOCwRakRIPy5iYfnnJPnW6cLEwHtNf/7ZH4TBvU0mpToTyrkbEntJdd91Fd999d9JTWiopOWIut45vRF3pXdlJIp3MJdadyxJyY9mcOVlmhFjKBwq23JyMSF4lp+zIwWSPtiFCSuZGI+pTlemQENvI9VBGeFwnpYgtCoe4LUIL7CYQiJJSOHzjoRwP33geiYnp95/PzPaxU/V3lzZ1+KZISd7dSmB4TunOO+/Mzik1Dd+cF8Xb/Q3fbIMO59GsByKeSFZ2lOkjk+Oqc6k7eaJFVKcTZZoyhA6CTA0pZWVEOrIiCCszJE1lA+snCbnUV6YxOIWFVHbFCVfmtyKCp2+hzCYcFEFJ4dhvQiBKSpwp9IDYW/r8DzM694vCTObyPk96y464HRPdTZCkrzdNdPOrAK+8PjWT348/7Se5GaN5J7qtp+Lu/tb7UEOUsJOw2qaDM2H44ZnqbKYj+WtpS8WVsMymMrLXl0dKnqjixCYsinqBCqfyQUPjkFHgrMo3By30qGfCGaJ04IDYKwEPPmKfNP36/YKe+qmfX3HE1NUrAbJmuLEYLydz50un8Xd71cCkgDn2U68EXI68EnD2JY/P3K8EsE7Sg5D7pb61eZ3KDmuzs1d1NlOOI7oqQ4sdUWZTGdnrEVJSJBbvyMoG1pbzVF6iU78sezyiQZYsAmzL7KGM8LgmM2snFxq3xWmLbRqBpKfEWdb18qRUlxvHppAS69Xm5Ul+NcARNW9bvTypSNc26Gr4FnYAc7zjO+Z4KF5I1Z0h7FwWT+EtpSa6G8qU3pjpgEP74itjlJYR2FU9dHD6aN1dOwhtMAQRIR6TbjDIvj5iyjT4OZlWSigjPI7J5DRpHOK2OJuwTSOQJaVuPzMpG2Rk3sNWuOhkQl9b8fUnZSKJf7tbdWxO4WU6z0HmW2R/GZ+Z1OaKeJ4msEWlYS9BeguOpMr5HWlrrXNVpFGSffiI3oGSKZOTVPUSkVm/Lr2zcihq8g1prAgi3pHrNvh6VTiZsqQsZ0ywVTLttVBGeCzbkpSZxiFuS6AJDiMIZEnJpeehXPiiJHsAPIeUH7K5Eg7WlomJvR/5drf0jHifr3EafPe2wrqXRL1CsRDVLQKtSMmJ5Kdy/Mif/+mnbC71wd/yHBNPYPNTOSxdsu76tp6J9BLXrRHkL4bAXKS0mAjkAgLLRaAaQgVD3uVKRenLQgCktCxkUS4QAAILIQBSWgg2ZAICQGBZCICUloUsygUCQGAhBEBKC8GGTEAACCwLAZDSspBFuUAACCyEAEhpIdiQCQgAgWUhAFJaFrIoFwgAgYUQmIuUEPdNY4yXJzUeOAICXSDQipT4M5PY0reI++ZXAsBnJl00R5QBBDJLlzA43X6QezDgXsYHuQcDGVgBBLpBIOsprWvpkuqzgfILdLVqJJ87YHHfjL2JTyQsFnqZjW6qHqUAgc1EIElKsUXeeIiCuG9+yNZV3LccKbVuNvhCvjVUSLjZCCRJKVwOF3Hf7IoAbu6oy7hvIKXN7iTQbrUIREkpDBzAHRFx38gsUeJIqcu4bzlS4mtqOQ72iKphrV3QzOSvzukF4tTicGpBN7cImVgwTV23DbE5v1u0DUPM1XbdgystSkqI+7bauG+tSSlcWVHEd6utIW2Woh74JXO5DRtCc+ThyMiv1Gj0EGtfG0ISx7H8iGt2cMlhXZa1IiXEfbPVs6y4b/ORkiOVoMnU5pQii/Srxewji6KpZWIXyB+ohEMgsAgCUVIKh2+I+2ahXVbct9akJNYcrz2sC0lJDfPcetx2a/O64ZtoNtITWyS/KAq7QGBRBKKkxIWFE92I+9Y80b1o3Lf2pFRWsyGPIJJGlJQSXpUppg0pzZl/0VaIfEBAIJAkpdgrAYj7RipYgHslYL9x3+YmJVOBwfArJCXp9YgK97sNpLRIfl849oDAwggkSYlLXNfLk9Ia02HLFyblebmfTmM7Hj+tUk+wZOY595cR9601KWViselJaGuUxUV6O7s0quKzNZBSFUZpjvxzYonkQCCGQJaUuv3MxBNEdD6EiUc+6Sm1TROONyedxsvsipSW8ZlJpb98rF9iwdcq3athm50bqs4bKLytC8cli3hHoW5eZoTUfJVgDwgsjECWlFypiPvmkLBbxH3TeOAICHSJQCtScgIR980hYbdYukTjgSMg0AUCc5FSFwJRBhAAAkAghwBIKYcOrgEBILByBEBKK4ccAoEAEMghAFLKoYNrQAAIrBwBkNLKIYdAIAAEcgiAlHLo4BoQAAIrRwCktHLIIRAIAIEcAiClHDq4BgSAwMoRmIuUEPdN1w9entR44AgIdIFAK1JC3DcNNT4z0XjgCAh0iUCWlLr9ILdLtddX1jI+yF2fNZAMBDYPgSwprWvpkvDLdL9QfrmCYo/ivi2ryZj1t2vLNSxLWr1cW8dyWZR6GpzpJwJJUoot8oa4b/FF3t58p6ALF6fmz/sfjAsanffx4e49OiWef0r9TAddMUEsTErhYnIpo+T5RfLI/NjvFQJJUgqXw0Xct+blcE+emtCltwo6cmxCzzw3pXvun5ALyXTl6izZsEBKSWhwoYcIREkpDByAuG+2ZTQFDrjvwQkdP2GJ6MuvZtU+48d5U78mUtKx13RcN1NmsPhbdrG8cjG98Whgwp+ndLIrWZbD5TIenB1yuXNCj4z8VB4+7xeMs1qEdsadR7e4XD3enM7vQ0eZ0tlbqxbR09d0PmGXzUjDMB6esdcNPdvqs0PSHi1T65Osk55ciJIS4r5tTtw323hdB+BWWa4wKVr47mhIo13XYuvXDTHIVT1dBxVluNxmG65A2RhfLi/fEJyUXy61K0mpZufuiEZjpVV5YO0L482Z/FKGsbHELWNPTW4N30ioqQgpRfXZEfUm7MnqGjO5Z+dakRLivtlWsfq4b5EOwaqoThFpsWoOJ16GIaosKYkOJUWosuUFsR+mCY9rpGS9npQ6ouSKlCWhEcVsdB5MDq9YvjB9JI3CvyRJf1dg62i4oz0jb0OkPBWPz6fs616UlMLhG+K+2ebRNHxz80e87WT4xp1Z3m2rVlpv2PaOL4ZWzmtQHagqgEz6JAuU3lasY0UIhktNyueLkTxq+Ja00+vr9wTZuJMmv7C9GqY5YkjYk5Qr8ZX7pUCFaUqfDKkL/fyQ0unqjOrvNkpKDEc40Y24b80T3Z3HfWvdaYKgC5zPkVKijDwpyc7HnV10MFm2ScadNiOf09Ty8Ckxp5TQsdQi2MxJAjK3IRNhT1KuJCK5Xxa2b1ISeEr9sG8QSJJS7JUAxH2LvxKwtLhvpvFHJkFlp5D7VZ8ZeFJKlJEdvqnOYUmgGi6FBNMkn8sK85hTgpQSOio1qoMIKS2Q39iTyqdsipCSIrM59UnJrOzDTpKUGJp1vTwpq8V0Hr4TJ4ca9q5r3OBaGttg+FrVqWThC+yvI+6b8lTK+YfKnrCRm2PtuRgMnefENptOlcF0nvhyLeRbedo7UJ5SSVLKTjExrKspQgKx/IyTi3GXsce2L6mbLb/CNzrxLbytxHxQrVxhT+2a1FUb28ujLCl1+5mJJ4gad7hOIjtOWR22AjMdqGqQsTRepm9k+6vnZXxmUtko5xoEFuF8TWiLus75ap6Jx8GRd3b45oit1EfLE2WVFTmX/DIP26zLFTcXIzfiIZqqs/JrbUi2g1DvrD31+bBQLzdxbed/hjQ25Tkia6uPties87rM/bXTbc6dJSVnGOK+OSTsFh/kajxwBAS6RKAVKTmBiPvmkLBbLF2i8cAREOgCgblIqQuBKAMIAAEgkEMApJRDB9eAABBYOQIgpZVDDoFAAAjkEAAp5dDBNSAABFaOAEhp5ZBDIBAAAjkEQEo5dHANCACBlSMAUlo55BAIBIBADgGQUg4dXAMCQGDlCMxFSoj7pusHL09qPHAEBLpAoBUpIe6bhhqfmWg8cAQEukQgS0rdfpDbpdrrK2sZH+SuzxpIBgKbh0CWlNa1dEn4BbX9OlusLLhBcd94YbfLVwu68UlB128U9MaVgh59wkcx4VUoebmT3C9qb+wz+FwhuAYEDggCSVKKLfLGHezEk1PiVSg5codc/pX3b36d63x+yYtafwuWLol2UrmsRwekxERX06OhUnkOiWO4Obs5thvHeHNx31771dTsv3+9oDMv+nTzx32zqzluzXIWtaVSGoDEZSCQQSBJSuFyuIj7ppfD5ZhuHNuNY7xxrDeO+cZ/9pr4HBOT9Jjmjftm1igSaypl6nD9l0BK66+DA6RBlJTCwAHsGXxxc0bjj2d0+syUrn04o7ffLejZF6bEQQWc58DbW9/uJeBp7ynJAiqvKePWpNN4mdLrqNKLTj+bzejQoUN0+PBh2tuL2yADB7CtLjgAx3pjz/Ho8Qld+6gweDx1emqGcg6beeO+xRZhU4uphbHIwkXOBiPSsd0iy7qqxcos6lkZzqMVi7BVWDpPNlNPsl6xDwRSCERJCXHf8nHfJJjffb9HL782pQcentDz56f06WcFnT03pXOvTs0ckyMlDs+U+pmOLTuzIQu9UmHNczIE4VY/LFdtFCRbX/K2mZSyMkKdGmLBpWzFeSDQhEArUkLcNwuji/smQe2MlJynwVtJLkZYhFDU2tCx6yVRVWQXSaM8pch1KUOllQgYFy2ic5AGh0CgJQJRUgqHb4j7ZtFMDd+cN9TN8I3JIZiEV8Mm8RTSpUsQhvF82pJSk4ySoKIPCDhvjUhbtkAkAwIBAlFS4jThRDfivumJbiaix5+e0JGHJvTK61PiVwM6m+gOhmaxaCCqHsP05cX5SckPB1X58sAQoIzmAU9JwoP9/SOQJKXYKwGI+6ZfCTj70rJeCbAT9NXkvCECPcekqj5xXc9VRYZnkswSZSg51UGgHzylChns7B+BJClx0et6eVKaVT3dqYYh8qrdT6eJP32rl9D+TBj3rbOXJ0P7DGF4IrI2Sk9GxDVzT97kEMrkl2GnSiwqOXaYKGOtZWVkYqc1enLt4UVKIEBZUur2MxNPEFW/cBXgOpDsVOW1NOG4zCJeWK1gL7PyOny2hfaW8ZmJsTGlu8CkwqKcFNc2eVvNG/DDMenhG5vriKgcfhnvSBKdwDKUYdL6+ayk7JodC8GMTD1GIEtKDhfEfXNI2O22fJBbJyVtB46AwCYi0IqUnOKI++aQsNtNX7oEpKTrC0fbgcBcpLQdJkFLhwBIySGB7TYhAFLaptqCrkCgBwiAlHpQyTARCGwTAiClbaot6AoEeoAASKkHlQwTgcA2IQBS2qbagq5AoAcIgJR6UMkwEQhsEwIgpW2qLegKBHqAAEipB5UME4HANiEAUtqm2oKuQKAHCICUelDJMBEIbBMCIKVtqi3oCgR6gABIqQeVDBOBwDYhAFLaptqCrkCgBwiAlHpQyTARCGwTAiClbaot6AoEeoDA/wHWojC6uuVIhgAAAABJRU5ErkJggg==;" vertex="1" parent="XEuqMZY1B0dR8SwTnQAA-1">
          <mxGeometry x="40" y="200" width="293" height="116" as="geometry" />
        </mxCell>
        <mxCell id="XEuqMZY1B0dR8SwTnQAA-3" value="&lt;font style=&quot;font-size: 25px&quot;&gt;&lt;b&gt;MODULES&lt;/b&gt;&lt;/font&gt;" style="text;html=1;strokeColor=none;fillColor=none;align=center;verticalAlign=middle;whiteSpace=wrap;rounded=0;" vertex="1" parent="XEuqMZY1B0dR8SwTnQAA-1">
          <mxGeometry x="460" y="80" width="80" height="20" as="geometry" />
        </mxCell>
        <mxCell id="XEuqMZY1B0dR8SwTnQAA-4" value="" style="shape=image;verticalLabelPosition=bottom;labelBackgroundColor=#ffffff;verticalAlign=top;aspect=fixed;imageAspect=0;image=data:image/png,iVBORw0KGgoAAAANSUhEUgAAAbMAAAB7CAYAAAD+IW7qAAAgAElEQVR4Ae1dO5IcqxLtdbWjzdyYbcw41x9HoR3IUYwrXxN3DXJkPVuL4AUJSWVCAtm/6qruowhNUVVJkhwgT/FpOAT8AwJAAAgAASCwcwQOO7cf5gMBIAAEgAAQCCAzVAIgAASAABDYPQIgs90XITIABIAAEAACIDPUASAABIAAENg9AiCz3RchMgAEgAAQAAIXkdl/P17Dlx+/d4XiHm3eFcAwFggAASBwBwRAZncAHUkCASAABIDAdREAmV0XT2gDAkAACACBOyDQIbPf4eXtLbxMRhD3OGS3eZv/fobj27fw/vcOtQFJAgEgAAR2ikBLZuRM38Lh22f4U2fq94/w5fVV/6/nzGoZ9f5v+P71Nfzz62/436+vi56vv8L/ZmldS0+0X+kKIVzL5hACkWXB6Gv4nkkp5Xe5L9n9+yv88/oa/hUfDn8+v4WD42Oi6EAACAABIPDkCCgyYyd6/DS6BeTwtTNuejkk8yP8V0D9Hf5V5JHIjAixEFh+JgnmFD0lXkorEmX5d22bR2mFnNeSr2jF3/D9F7OUYR+Tn4qTrf/9QYR2+OD4JVcIAAEgAASAQIVAIbOfH2+D3sDSo5LxNZnZMqlHwgSXiaty3paMIqUQck9urMdjj0fGsudLZbPWU9snUVrCFEfpSQQne2WLdOTCOOTY6SUrQdwAASAABJ4bgUMIaX7s8PYRfvawMIbCoqh26LlnUobY5HBkRUKlh5MTVD2o8/Uoe25ss0qrwaIDZG1T0wO14jnKx4qGZ0AACACBJ0LA1zOrnXAGSDv0SS+D4hhDivG5QWbd3spAj7LnxjartOJw4ldjLi7jtFy0XNRR90AXWfTMFBa4AQJAAAgMEChkFmX6c2aJqLTjzT2o0svSjtpO05Yxh/WKXkuTrUcTzG1t1mnxwg/ugVo252elNxbtG8hjzmwAIl4BASAABDQCiszoVWeehpx3me/JRKYWd/C8kV6Zp5MzSCj3oCRRJnI7UY8x1Hczm420Qs6HXikpF4AwEjZ2/DZe+aNi9tMIGQdhIAAEgMAzI9CSGaFh/c4sE1GeE4vDgEQ6VQ+KiUgt4S8yWgfLWEOKLj1FbyrCurdEqwnj8N81bJ6mFW0QREVp6tWfXNFS3ux3adEHfmfGWOEKBIAAEPAg0CEzT9RzZIye2Tlqdh6HyKz0cneeGZgPBIAAENgAAiCztQtBLXZZO3GkBwSAABB4TARAZiuVKw2BDoYeVzIDyQABIAAEHhKBlcnsITFEpoAAEAACQODOCIDM7lwASB4IAAEgAAQuRwBkdjmG0AAEgAAQAAJ3RgBkducCQPJAAAgAASBwOQIgs8sxhAYgAASAABC4MwIgszsXgCf59sfgnlgPKvPzJRwOh+X/S3d77AcFANliBGinHOvcRRZ44Ct8Qlu4ILMWk5s9WZbnL7uS0O4k1e4itQGouDUi8f5PeD8ewgFkZoEzf/bnPRwPh7Bf+KxdiubZ3poEfML1SgRkdj0s/ZpoH8fOdlaGFpCZAQrIzALF/2zvZEYbcQ+OrfIjsQ1J+ISLy2EnZPYYX2GltC6tuLQZ9LPv34ieWalP5wQ2TWaz9v43vH97C8dPcar8ORhsKQ58wsWlsX0y6+ziH3Pe66KXHfjj1lG0B6LeALje2LjZ1FgN+9n7SereUpKJ6Spdvf0XZxWXtrwaD0V6dtb/835c5pbiPFM9phTnn47v4U/4GV7EPFQrJuaohNzx/Y+vAnI6PN8V08zO9HB4yYfC2uT088Wwm1K15YtBnBbbW2eqCM4DZAPrORxDne0xzsnOiJWSI9w5bY9MlnXmq2ezsqHkicuXyyKl1cjWGHK5TupPqG0uZc75F9dBey9Sg485+IS38KynbWyazNhhW19giTTEeWCZABRRCVLg53W8+r7sfF8IzU9mNP9VCMyORw1yRGZksx6C1MRZmnQIgzPPkiOSzikTlnRIwsnw4zpefc+OieWFNf0gp1NI7BiOx5fwU/UObHI6i8wovUne+9aKNxmzmnjel0UnDT7s2AtAOV+ROMqzpHf5GPDIhJCwn+VrbjNlUGEvspyD83yxPYkIOWtNvEk6MuVRe5dyPz/ewsFY+NG0ZfgECdvDhzdLZlRh33pfGRZRLL2jUmpWZVZEknpsTHQ6HhOKlVbuFdaEV4gsaWoaFyegbOCH8WrkgXugJS0p3zuNOjk0djAlBjl50bPIJKPkyPmwjEUw6dniiIv2fkCmk51bii/ttNKK/luSgEzClueFIbV9jZOVqjrheRxpv1CicM52KkKs8+WXmeVrbnO2c0gynnwtZNavPyzD9UlgVAXH7V0K94YgrXZqtKen9QkSw8cMb5DMUmU9vI0ndxuisCopPRO9t7oM6T2TlnhJZMOHg1qNpENmNeEM9c/SXezp9syKSIWZcqZFKITagZGc/NIXsjnYOEdJTK24/UTao2yQTtMmp9PJLOlUy/fLcNo4r7Xx/bSzpMyXjKzy6MmXR8aXr6nNbKeykR+eki8mqhmmOW9UBhapVXW3MqW+Tb032zfAJ0i0TsNVxtxreINklqCcfamliqvnlewe1oOTmTXH4HKyPmeUyIznVPSQkrvSS3uUE70dmanegttQKWgTjJRIw36Gg1Z5tPVo0vHISKyUFeLG1iMElqCycXlMIVle8lUdh+RmZMYKsm0dUpu196RlvPADPiFjbfkELoYHvm6WzCLm/TH01FtqyKsuqFnPTPXARGQVz+qZ1c/q+6Sr+VLkJLrDjGnYsyxgIfm8eKXu9cV3vTmz2ulwurXzqe9ZrlyTA7qYGKRzVLZJB205YusZG9d713vO8fxXIpzRYgWVF6FX4WrbczqZ2XpEqhSc2swRerbH9713Kl++jyFObrn289Fv7zn2YOEHD9HDJ3yEw9tbOHz8XiB/ktCmyYzKwPzKsMmjKTNFSs1bepBWP8neW0sompRy2vFsskIwhj2ZKDUxZRu6ZJaHL8vcWyYylVbSwQ2/t3KpdWqJONScS+2cGoj6jqcRJd+We3A1+7nILPrQuPqSv/Rz2mrhhEy1bxv3JmszZGwOJ5w683LZqS8LN2KsP+FdLACZ42zbSfGKgR4ZxmfyQ2eHzSnvqT7ovDEqeU6vlEV8fk79WfQtIUPP8jIEs70nAeq9dZ200QalXg4/sU9gCB71un0yI+TT+K9y3FQp9TBjs5uGo+JG9fVy3paABIG9voayBL8mMzp8c7Gp/kqs0yF7G6LSaUUdRKYlLV70Mf+dWXHUec5IEVnM+JTMWEYPM9J8VHHE3DQG5OMkM168wfNd0V4iJpEWExXLLFc93GfKCT3J6oHNnC1enZgxPBhL88c4e4jKI5Mtrn9uYZJ9JqqBzaSNia/I8YdESmucL64bOk6BLQescmjqYR0pGO3dfFZFhE8I7w/007uqdKe3OyGzKh+9Xk9+XpNIFfsGt86vwhukfFOV2dk1zic/b7jhpsZA+TMjMFr4QbjAJzxz9aC8PxSZpeFAY5XgzYv5ucgsfW3rntDNIUYCT4zAeOEHAdMhM/iE56k2+ySzWD7mkMI9iCwa86BkFrNGQ4T1MCOI7HlcxI5yCp+wo8K6vqn7JbPrYwGNQAAIAAEgsFMEQGY7LTiYDQSAABAAAgsCILMFC4SAABAAAkBgpwiAzHZacDAbCAABIAAEFgRAZgsWCAEBIAAEgMBOEQCZnVBwaZmv3PnDjlzk8o+o1//dm22X5+l8U2OPljNl6pWTN/shm/0j5TOtRrQnQIB+52YcO7Nm1otfkRsoGAYUuSfzPyCzWBmcP7bmStLuECJqFC0PXuEnAhObfbuNCLtz8K5kVsy5NdmcoN/zA3GPTMkbAiYCm8bQ2pHEzMV5DydtmZXC/zAS9hVkFnFxViYbQv2UyKDsrajfXfXOazPJ+ckVZFaVksfJemQqtbitENgyhrSht33sTJWL8269bdmh/Zn9z07IbBtfRo66lPZ5nAwDePRMZbwN4FIyG+5UPrXyTIETek5npXCCfo+T9cicZecTRbobhjPf4th95NJi8rZlRzqrfYx6bV7R/2yfzAa7aHO3296wN+8SQr0ksfv8Kx+6mTfwrTYHLrpexU769c4CA7KaVaapzbnCkp5i29KzauIXmbjBsbCZK/6sMtV5i/qq/A136I/zXPEUZZ7viuHsmJod8Ks5ML1zPBscrxOy4bR4g9xKr9Rkhxf9aiNccRq0es7plGvaXNcjw3kpmyazDpGWbWP/qd4AuN2NpbFL4ZPyPrbHI5Ptc5ZFz+bGVsaHrnoT40ZW5SvvVkO46o2Wa7GC7MC3aBl7U++mLVbthnYpgv8J/7wu/qvgyoFL/Q/rCSFsmszYiR4/ja2gf/+g3euXvLRHt8gtr3gRRqqAldP3fmX0tq2yCoRJRg45emwOmXhlvJjur+p8Iq/NIzIju3VF65Jx7+w0dmaFxI7heHwJP9WX9kIeS3nlY0ZMT2PLU1xKTzq57LhMPTI1Gc76o8MspNI5mkTlQ+oQ4aGMldYgf0JtG8x5LTZHCX0kTXL4I3yEPQWzOu8eGd7qbJRWtG9uM+VziCEffzNJi+viYTkmp8UjoTr0LUmE/tKxM9bCD09bFn4B/keAysFr+B/WtWUy8508K3LCR7nIr6NcmbgikbTl3L3E0CMzYUaXDISMDNbyJtnKCBz22mzll3Sk/STrxSy1PZxcivIZjvHgP9m4swMhv5gdUtplPzmx5C9t5316zyzpqXfx7zksZbu6yfYoUuiQ68TJktqhjJ3W6TZbDl1lqhBH4Sh+TWXEPTjbHl0WfplZWbjzOcRQ1iXOFJMp54vvFyJbykbIRLGPNzrAUh0pJdQuwdkQ5CIZQ03bgf/J6xH0B3NC7Ur+RxTBBntmqQId3uYTrlR5uAfE14bMql6YyHwJeonhCmQ2s7lpEMXIKuC1uUdmnfjz9KvykY5SOSTpgLJzrLysdqAyf7Z8+cpXQ1G8CbL8as/xlZx0aLZ+0x6VJ2mjCA9l7LTSBs6GTV2bO2QrzGh15pfKPtsenXePTO5xKXvbstB6pbFVWNlYvZN1TL6q45CcrAdSOIarulu/ru5T763vh2ZtOY0Mwf+Yw4zX8j+izDZIZsm62ddTqki6ojSOmL6MtIzI+xLsALsIcGi+O35jA0flL7dqXkvLz/UXdV6bSc74MurE1/aU1FLAmmOQjkY5l9uRWcWJlZGeW4+zznpUnjq6hzJ2Wl3i6STBc2+9k6EpmiwLqUfZZ9ujSccjI8tXJibDth4pUcLKxvI0BVz54p7ZiMyyOlfPbLzwg9rJsC3zyR7wP1cjM8v/iKqyWTKLNvbHtfO8kuyFMVnIZ5siM5/NViMR5bUEO2S0CORQj8zy3JweZrRtJE3DObPcw1AOSTo7y6lZz9j63rvec47nvdp6tEPPulSeOvqHMnZa7uE3kSTZdxg4654dqsdi26Pzfr6MMJeCU5s5Qs/2+L73TuXLT2ak8vMbDTWa8/FRgBynvfAj9vD+NRZKNR+C8D+DYcaE4cX+h+vPlufMio0mG+cejFgkkUigWonnrUydyllsKIF5z6mp0HXcmc2ZpPSKQmMBiNfmLpnlMf5iT26gRiPljwpzjkF+NSunI8msnu/JzjIOUZndLNuZRigTCVTzIgVjb8DWrx0660r5sO30yBhpZZzq+SbW1r3meNoWvQCkJY9k/5KWYQ/xgCwLj4yzLBw2p/yOcZ7n6zQyozRN35Ktib23j2rRVSkY+J8eoReIOHBr/8Pp7ILMyFhjIpadfp4riwxPiyfO6ZnFNCp9cpl7swSX5+eMJad9MmvTMG3O+aUvv0E6JDawuZB70RGX7ldkz3OAWSYulGkwHH6hsgOZ9cyitdlB5jmW6FyJmASZMVEdmnkYObe0OFElJ/QQNsM/PmddVLBDLnYZvaOujM4323ySucWQGMhOv9iisSGJF567SteFyOJbT949Mskos8yazM1tJm1dDFNaidCWvOl8cV00yiZF7/w1fEueWzM/3lhL1fbMtuz+mG59A/xPBnrmf7g89kNmwmIEgcCuELCJYVdZeDJjZws/ngyO3WR303Nmu0ERhgKBLgIgsy40m3wxXvixSZNhFCEAMkNFAAI3RQBkdlN4oRwIZARAZqgKQAAIAAEgsHsEQGa7L0JkAAgAASAABEBmqANAAAgAASCwewRAZrsvQmQACAABIAAEQGaoA0AACAABILB7BEBmVy7C8gNr+ePtK6cBdacjQL8dkrv9n65ilRioP6vAjEQeEAGQ2ZULlZ2R3nPsyomcoK7s0NDsyuBUQttVLbsuXLqDhccej4zT+ixm7fJwmoa1pLdWf9bKN9IBApciADK7FMGtxs9bAx3ff4b3o9x370SD681cT4xexD32eGSKwhMCtEly/yiPEzRBFAgAgY0isBMy28+X9SrlPN2vLO6Fx3v2Xfij3auQmccej4yF7qxuYEeHBrVp/Wli4AEQ2DwC2yczanjV6ca0gWf/jC41xEeyeZPdZqPdfOYQ7Rwvdo1/fQ3qdOpYjLWe6iyj5n1nzoyHkWjT38aetBt32bQ0bwD8pexsv9Sn4U72i1h3Y1klMrq5CpnJBDzk6pHhYzqquiGTimHLcaP+lOOVhpvp1ljiHghsGIFNkxk77PbMIfs8oUQU4jA8clri3jo2RZAUE1ijJ++Qze/H5dk/JqbR29iT4yqSs879yRb0zhhTBjqJQcURN8ac2bnTb0mrx565TL9uCNvjRurxKI9m4QfqD6Hkqj8aT9wBga0isFkym5003RJDTSJLL0eC38TLZKaIishL9Px6X/JScQnXdvCL5EBVOvGV0p3jVj2x8bEyn+H4ZjlsTndODCzpufLijOb4DU9kkvHYM5aZ1Y3FlP4QZFMP+Dic0qNG/VlwRAgIbB+BDZJZckCHt8mEfd1bqgmIez08VKeuordGZCLuzTLLJEM6BMmNZItTzEKKtERElQ+bCIdkRqpGmI2JQVjiDGZ9x/fwxxlDi3ns6cmM8qlTiXep99apRwp3Pk9Klm3uval6w8PVor48fP1pccUTILBFBDZIZgkmz9e3dPL0pa16NJ2eUF0KLmfEkTykZhOS7oGxPnaiPEdnx5X5FDFT0JpTVEI9YlBCJ93QIYl3IbNkpqduhDBf+CFxRf35PPPj5KSqA2EgcDMENktmMcfTeZFCRIkE9BCeTQwNkkVH82bwYKS7867uCbB2lb4dVzpdjkZX15zHtcksnxp89sSZx565zLRuWAs/FHg8xBt7WQl31J8aINwDgf0gsGkyIxiHPY/c+/r1K/xTry4MIaR5Ee71dApFkUlHpnmc0lWrJouMTUjxNZGSsrPWY8e1yIyd+Xw12pwYynH0DoJKsvbR9D49c3tC8MjwSkV7vpB6bx+/S6nYAdSfef2xkcNTILA1BLZPZoTYbCL/NdjEshBaWQof50DkfJaDzJgUpY46PUsmyct5GCY0nnup7XaSmaPXUYjlUO/ewb8/46qYiSPKGWTGCz545w9LJmka6/HY45Fhq5erVTesZ0sMGeJyq8uTZfi9LPtnqD+cf1yBwF4Q2AmZ7QVO2LkFBIYLP7ZgIGwAAkDg6giAzK4OKRTeF4H5wo/72ofUgQAQuAUCILNboAqdQAAIAAEgsCoCILNV4UZiQAAIAAEgcAsEQGa3QBU6gQAQAAJAYFUEQGarwo3EgAAQAAJA4BYIgMxugSp0AgEgAASAwKoIgMxWhRuJAQEgAASAwC0QeGwyox9ELz9QVj92vQWaTp3lh7jyx9tG3CKXN7vV2y2JH4RP9Biqt/moPm7G+BH3qobfwZ7yI/WV806/zWuOypmgjfY1AQiv10TgscmsIGnvrFFerxxgkurtOkHmkKPQu4fUZrr01JF2ce/czmq1vKxnD5PZ+UfsnAOKf8cUWzval40Lnq6JAMhsTbRPSIv2Y1SnAJwQefei65GHD6qt2eOz2i1FG1Z3jspxKdkWmXlMfu725UFofzI7IbPH+nL0VBNrc2FPvKvLOPaBvHqa3o2Gr59wR+OeyWzWdq6xY8pOyWwLw/N3aV+dar7zx9sns+Gu+fXGvb1huXFj4+G6spmsVcnr+QG1+32uBTOZ+r2VTlY1JDOvnplcfE+9v7R7POe/npsb7tAf55Xi2WY8vxTDf97DkTY45t31bTKgjYXNuSFbvrQ1Tos3UTZ1FGkjkPTHoTwe1qONlLtntPXssZ9b+eptolyGE6d5OtXm8akCBZSJM6V6WA4oRfsquMXAGu1LJYibEQKbJjN2osfPv0YesgNWQ3F/w/df1rEfAzL7/aPacb8+lqU+QNMwJT7qnVdminfsqRtHcSKvmXRqZR09UYx0iROR+eRtSaAiPSawROwyXk6zd3YaO+FCYsdwPL6En5nQEs/4nX5KzZand5Qek2R8cs75all/JMNCYIM0uz1FO05NZokwhc0ZM5uDbZ3lWBx1ukHKeyHEXFTxMm47iyAdlWMu/ED7ige8fv9anbLB0K3Vvjg9XKcIbJbMZqcJd52umeVBpTTkm14RVdzeV2lW4JEpac3taWwocWWgpyc9rxeYNJhlMmMiI81Eyp28Wr1k6ZgzgSXnmhztdcksOfraeTdkISEyw5kwCpElob6eCcFUrKTJzIpr5yNbEd6P1nE8ts06raRh1nYWSPpDkE1dWSIZoV49NET5XL/mo6pT51jFs7Yvzj+uUwQ2SGapgR3exhPSPmfP+R83Nj2Ukpfyy8bGX2jUU+o1upzGUMZnT5Ty5a+XLz1syMOH6Sp6XeQgxD2bN7xW5UNkls9IU72xW5BZ7oXx8KK6ip4P96TUe3mOm0UwsZP3Eg4HKcdAdOQ5nSGZhTyUKeyTHwCcRLleklZVNkWnHUi9N7ud+eof6+3Vw/Qe7Ytx8lxPK0OPxmeR2SCZJejHX5fjxtMWXl8+NTTt0PsNOesZEtYJMoowtdV9G6RcL1+JzFSPS0bj8Klk1u2ZrUtmFXdwbk64dgjjpmSmD0nt56Fjm5M4IwjjtsMwjRZ+9OoVx62vfXm0L+1bauTUvdW+lABuRghslsyi0aNxf6uR9DPaa2y5B1ORypxIevqkBSOZ0bukY25DlOvp6T2X9lnzatV7eTucMzuHzHpOOybae9d7Lg31hG091xlmrHWn+z551fbW8fm9/dwaZowxRm2HNLoWfngdca++oX19sRaKcZHKa699SRmEhwhsmszI8t7XSl5woXf1OHUBSG6EYhFJIsnOpG+BMjXSek6qvKbASKbX+BcNl5HZsjvIsHfm7JmxY3yx1tbI3kx3mLEeasuOWS1mWPLeJzPWcwh+cpB6OWwQg5rvYzm+GvL5lSZAK1/9uKxdX3vy9vMemZHOXtvh3tuHVaDZGrSvwcfiiu1LVw7cDRDYPpmR8WkcuXWm+cuvrPrT81lpEltsZ2XJcaPN7yJBUTzRW7P01ER2rkyax9J2xyyPyMxKy9Jjyol8tSsejZoy+YJX80wDMisEleex4iIOIgLBSokY9HAcLZmv5rFMOaHHyEX1SJCOmFerVZjpkLycV9O6rHwljIx8iQTnaZ1BZpRrq+1YzyqIctx/S5uJ7UjXU7N+kbyQQ/sK/1nQ8rNZ+2I5XKcI7ITMpvmAABA4AQGbGE5Q4Bft9fgU8fvVXUNytPDjGvqhAwjcAwGQ2T1QR5p3RuD+ZJZ6YrKHtxYko4Ufa9mAdIDA9REAmV0fU2jcPAIrklnEIi/FT0OmPNx4DyLbfMHAQCBwNgIgs7OhQ0QgAASAABDYCgIgs62UBOwAAkAACACBsxEAmZ0NHSICASAABIDAVhAAmW2lJGAHEAACQAAInI0AyOxs6BARCAABIAAEtoLARWRGv1cxj49Ysjf68e8ita3QHm3eFoKwBggAASCwLgIXkJlvF4E9EsMebV632iA1IAAEgMC2EDifzGhjTPv4CJnFPRLDHm2WmCMMBIAAEHg2BDpkNut1+XcR2CMxbN5m7Of2bO0U+QUCQGCCQEtmg522i66RM6Wd2KvNfeXmtlFJLaPepx3ly4a/vNGp2Nm+2HErPTFNZdMVbeZNhDlfYvPWtHGr2KSVM5o3a5U74A93sud4uAIBIAAEngQBRWbsII+ff4fZp8P/rIUfRC7aGTe9HJKR5yTVZx7l41Gisy8EZhyZcoqeQkzGsSzXtnmUVsh5LfmKMMtjawz7mPxUnFw8OANpWE/xEggAgedBoJCZ73TaCExvCHLpUUn4NJnZMqlHwgSXiaty3paMfQzLWI/HHo+MZc9CvgkBrYfPQGL7JEpLmOKovCeCk72yRTpy4Wc4vr2Fg/VxoQRxAwSAABB4XAQOTE6Ht/lijghD9/gIYygsymuHnnsmZYhNDkeykzd6YVGR6kGdr0fZc2ObVVoNFp1KVdvU9ECteOkDw1uGlgY8AwJAAAjsGYETe2aDhR+1E86oaIc+6WVQHD+ZdXsrAz3KnhvbrNKKw4lfjbm4pvZouaij7oGqKOiZKThwAwSAwHMiUMgsZn86ZzZa+JHng7TjzT2oMo+kHbUNuS1jDusVvZYmW48mmGTfrWzWaeVe6iv3QC2b87PSG4v2DeQxZzYAEa+AABB4JgQUmVHGB1/6NK/28buLDznvMt+TiaxaGZhI6TX0e1UGCeUelCSds/QYQ303s9lIK+R86JWScgEIQ2tjx2/jlT88XvrFIcURBgJAAAg8NAItmVF2rUUe1rMam0xEeU4sEhaRTtWDYiL6IufOiozWwTIW+bn0FL3J1rq3RKsJ4/DfNWyephVtEERFaerVn4xoypv9Li36+Bbex4tOWRWuQAAIAIGHR6BDZm2+uws/WtELnxg9sws17jE6kVnp5e4xB7AZCAABILAeAk4yGyz8uLqtIDO9cvPqAEMhEAACQODhEHCS2Zr5fl4yoyHQwdDjmqWAtIAAEAACe0Jgg2S2J/hgKxAAAkAACGwBAZDZFkoBNgABICwKjRcAAAAMSURBVAAEgMBFCPwf5Iv1Ra3VRvIAAAAASUVORK5CYII=;" vertex="1" parent="XEuqMZY1B0dR8SwTnQAA-1">
          <mxGeometry x="40" y="400" width="435" height="123" as="geometry" />
        </mxCell>
        <mxCell id="otuS0v0U1lB1Sducp4aO-0" value="" style="shape=image;verticalLabelPosition=bottom;labelBackgroundColor=#ffffff;verticalAlign=top;aspect=fixed;imageAspect=0;image=data:image/png,iVBORw0KGgoAAAANSUhEUgAAA8QAAADxCAYAAAAN8350AAAgAElEQVR4AexdO3IkNw+e8+wRlOwlfASX7uBImzhXonLk1InK6aYubfkMSjZw/bEOwb/AxscB0SCJnume6Rlhq+x+EMTjI5rE14/RIcW/QCAQCAQCgSsicEgpxX9XHIAwHQgEAoFAIBAIBAKfGAGqwuJfIBAIBAJ3jkAQziDdMgfuPN0jvEAgEAgEAoFAIBBwIxCE2A1VCAYCgcD6CEiSEvtBWm85B9a/OkJjIBAIBAKBQCAQCGyPQBDi7TEOC4HAnSBwy2QlfA+yvdccuJPpIcIIBAKBQCAQCARuFIEgxDc6cOF2INBHYK/Ff/gVxDRy4PQc6F/10RoIBAKBQCAQCAQCyxEIQrwcs+gRCFwRgSATp5OJwC6w+yw5cMUpKkwHAoFAIBAIBAI3hkAQ4hsbsHD3MyLwWYr4iDMIa+TA5XLgM86lEXMgEAgEAoFAIDBHIAjxHJM4EwiciEAU85cr5gPrwDpyYJscOHH6i26BQCAQCAQCgcCNIhCE+EYHLty+FgJRhG9ThAeugWvkwG3lwLXm4LAbCAQCgUAgEAisi0AQ4nXxDG03h0AU4bdVhMd4xXhFDuwrB25u0g+HA4FAIBAIBAKBCoEgxBUccXAfCETBvK+COcYjxiNy4H5z4D5WjYgiEAgEAoFA4PMiEIT48479DUYeRfX9FtUxtjG2kQP3lQM3uMSEy4FAIBAIBAKfEoEgxJ9y2PcedBTG91UYx3jGeEYOfL4c2Ps6E/4FAoFAIBAIBAITAndGiE8tuiIdLo/AqWMV/T5fYR1jHmMeOXB7OXD5VSUsBgKBQCAQCAQCpyBAVcYd/buFoumO4J6Fcgv4h4+3V1jHmMWYRQ7cXg7MFog4EQgEAoFAIBAI7BIBqjLu6F8UTbdXNMWYxZhFDkQORA7cXw7cUWkRoQQCgUAgEAjcNQJUhdzRvyiq7q+oijGNMY0ciByIHLi9HLij0iJCCQQCgUAgELhrBKjKuM6/99f09enp+N/r+wp+bFw0fT+kp4P473Fje6mv/+3hkJ6u7MOpRdo/j4f05XBIf/48pP+ep/1fnkW834/tp9rYRb+fh/TL4ZCq2PS4emR0n1s95lh/+y7Geiex/HaYco7ykv77Zyd+rZLHW+XYLVynW8VO+bFVPmufd4jzcA5fYUV3qfj+mp4OT8f/HteoJVyWu0L/PKb05ZDSnz9T+u952v/lWXT5fmwXZ29v92dKvxxSqmLTUXhkdJ9bPeZYf/u+vwB+O0w5R3lJ//2zPxdP92irHLuF63Sr2Gk0tsrnLX0+MYuoKr3yv4/018tT+noLhFgUyHsgo24ffh7Sy+GQXnskxCMj4j+3SP/z4ZC+PBzSf+mQZGEFvSDJHlJCurqEMx2SRwa219zmOAc3LTwya/p0VV07LOxBano5dK38WWustsqxJdfpWrEs1bNV7NmPjfJZ+7wEZ0+uemRGOGcfO3P45QuLj/T28JSedkKI/3xI6ctDSv+llCQ5Bi4gyR5SQrq6hDOl5JGB7TW3Oc7HvkaPTF/DDbXukUA5yMe18metkd0qx5Zcp2vFslTPVrFnPzbK5019XgogywchPpHkucnoifpHxQi1u33wkF2PzIqx0NM4EJBMiLmwQtzWObTpLekaPXH0yGi9Zx97imWPzIq4nx3Tmb4sKewv5asn166SP2diXfDbMMc82BU/1opniZ4NY6e4Nslnw+clOHty1SMzGjfS0ZvDT6xJzui2L0JMT+NAYjMhZnKMAK1zaNNb0jV64uiR0XrPPvYUyx6Zsx3Zj4I9EihPrl0lf9Yatg1zzIPdWmGcpGfD2MmfTfJ5Y59PwjFNK16n73t6/PYtbXvDNZ4QjwqPVvvNEmL1mqH1tMI6Z+JgFI8zOY/MkiLbKSsLxplPrMMj0+p7i+fzU6XBE/NLxzX06Ur5sxYOW+aY+zp1XjNrxQw9W8ZONoa5c0Lcls9unD256pEZ+e2YwzuFxUZNOyLE6jVD6+mbdc4ExlM8emRM5eedlKS/pckj0+p7i+f3+ORr6NOV8met8d0yx9zX6VrBLNSzZezkyjB3FvpL4lv7fIJLuUv7CfHHj/Tw7Vs6/PGDXiGf/tF3vy9v6X/4/pf2P97Sr/lb4Nf0b5ayCe6/r63Xom15mEywhe+Nu69WG98l8pNP+vb3XSzyH8/Tt8Av9N0qfRv8cEgf+EaY9hv9UGi1yCidJ53Qn785Jn3CdtYBW+KbZOkf7EBP9lPpgA+Q0baq88IOvoMmex4Z8sUdl/IRcSzdUlFIT33zkxF82ymeIudCFOf1luU8MjT2+JZZ2sKTD+03+eX5vtTzRMeSaRa+ogBdS0bHZh2TLTkOhAueiuGVd+pnFfE5PkV+LTltV44DYW2NhZaxxkSPf+stAuSa9kP3JxvlP5GLul/rWOvT/lB7jpVzErb0ZwNW7F8UzvAhyzZ8tfRoW3idHL7IMScbwK7SZdir2tWYUtyeHCN7Wk/2a0HsXltWnmbbypYlB+yx1T5b+VzJGviNcNa5VcaLcpb1eWSWzofw296WVXy+8/MtveTvfl+T/OL34/klfwv88vyREn0b/PCWPvCNMO03+k0GWoR4Ok86oT9/c0z6tGewVb5Jrv3T4uccU1FIT33zEyh82ymeIudCFOf1luU8MkmQHWkLT691DOSX5/tSz5MzS6ZJMMRNhLVkdGzWMdmS40C44KkYXnmnflYRn+NTr4tbctquHAfC2hoLLWONiR7/1lsEyDXth+5PNsp/Ihd1v9ax1qf9ofYcK+ckbOnPBqzYvyic4UOWbfhq6dG28I0sfJFjTjaAXaXLsFe1qzGluD05Rva0nuzXgti9tqw8zbaVLUsO2GOrfbbyuZI18MvtPAe0xoJktsox8tkkxD9//JEO376lhx9quQA5LUT4Jf368pr+ZVL8e17ZbIJ7EiHO9kC0CYr39DsR4yYpNggxhcjktpBKfQxyKojwy8MhvbOc9e0tyKguBPJ5Ip+icHo9TCS5yHb0FhkmliCsxXdBOIstQbhntkT8VhzF3sAny1YLg6JT+LroHH5QBgSBY6Afp9IkIhebRgEp7XVlmHz8ImyB8M3IARMAKjattmJTkNdyTmPRkEHhO+sniPtaMjMb2kcQXcYGuOQCm/3JOHRiqYr/hpz0Ixft4tqRBTrkssxgzAkjSRLhO8atSw7U+Hbzx8AMfsrtyB+SJRnKQ5lf+Zz4sTmtB4S1whk+dfD2YAjMqmvuu7gGWb+8duCP7DMaU8RNMcDmLMdw7cncAGYCn4J5I3aXrV5faashV3ywniCL61jK5f2WPj4/wpl0eHK1K7NwPpzFgNzLW5RAjS2T20x+SUQfg5wWIvySXh5e0zvLvc5+tKhPiDMJLq+7vafXw1MqtoX9ud6G/+ecxjedIAjZ/vTjVJpE5GKzVUCyD10ZJh+/CFsgfDNywASAClKrrYQsyGs5p3caMiAYWlwS97VkZjaME7ngZ2yASyZFjFvGoRNLVfw35KTZXNBL0iFuWEAuywzGnPyWJBG+Y9w0cSgkw7jh0c0fODXYjvyh7sBa5lc+J35sTusBYa1whi8dvD0YArPqmvsuPk9g/fLagT+yz2hMETfFAJuzHMO1J3MDmAl8ELrlh8S4a6uBmx6Llo3iAwiq9NnI5yLfsEvtwEXiSnOCPNa5gT7IeRl/L8da4zUjxN///pbJcFk3SiTER6dfhs7El0nwr29Emieiui4hnoj1pP/oxP/eXtLXJ0mSj23dxZlJ79vPQyLSKAlrfkKMH51SZJlkLSLZIoP5vCCo5NP7o22PfOn6XBUXc1mXLdIxILvZh4GMZQtkHU+2nx8O6XCw/3vs/aCXirMUxbL4bRSLVGybZEDo7Mn0bNEvYJ8yPjMCIHyBvpYMFewgE9Jv+EmEbi0Z+NLcMuZ4wpQLaSaL2R+QUkmOEas1Xj0ygO8xoZP1yLjhZyY1kpjAJm/Ngt/yBzYVAYYdbOU44NySrcsfYK18kbGaejqYtnKMfJd6zVgaeElZjI288aAJcZUn1pgibh73Vo6ZsXd8NGN32sJNGNw8yTFbtjrYU59h7CpvTZ+hR93g0ThjXDy52pPpjeny+VCuzY39THpf0tvPiaBWP4jFhDgT1IosT7Jz4jogxOqJ8Puj+gGu4kvD1/Qz9de4Vr/5eRRyktC0ik8q3kwyINT2ZHq26BewT/k3KygNJS0ZKmpR5Eq/4ScVt2vJGG7Vp7hAx1NBPOkiH7I/IKWSHEODVdz3yIDWyXpk3FA9IyZo4K1JYC1/YHNwg0OOgzLlOnT5A6yVLzJWU08H01aOkdNSrxlEAy8pi7HpXadVnnBn9MtEDXFzLrVyzIy946MZu9MWbj5JImnOPx3sKdRh7BJMizyjvRMnRFz4IP5OjvV8FoR4+l748O1vwsr+lwnxS/qLOHD1VHgLQsxPg/GqdLU9gRCDmPKrwyBxuZAQZFmTx5MIsSRysKvOZYLJvpxKjLMOpXdGvqnoGpBdFHy9X6K2bOFGwqn+o4jTW1kUl7ZG8SnJYZFVhWZPZomtlv7qfMNPrwz5mgtPehJHf5qKxzf7yftryVQ+KcxymyIBZBc3H6Q/eV8RWYtUoNiuiIawS/qrVz35WMtjzEgWNw9KLMrn0XnTd+ET9Se/ZnaUTLGjz3v94bzp2ZH4w14T00EedjFc8qRREXiMO8jTcEwVPjLG7KPIeeTeybE7bZk5wXjKXGxizzkwjF3mSme8MFbStsYZmJDNXg6RXE9miS3YbG/tMkKfzcTUeH06vzJ9ILJ8fHo8keATCbG6yz8jxIkJdfaF7WpnVzqWRXFR2Sg+JTkssmqnJ7PEllJrHzb8rIQ7MuRrJuL09If+NBU/Xcp+8v5aMpVP1oEqxMkubj5If/I+yDH0cIySVFRECHJiS/r1k1r5JAuiGDNqw80DtJnEhRpVLJA3fUcjb8mvmR0l0zxs2J35w3j17Ej8Ya+JaSfHqG8XQ7TrMYVR3kKHHGOQSdxMGo6pwkfGmPWLnEfuwY3FsTttmTmxYT7neDrjZfoDEGir4ipN+rwzx1rXoCDEk4nxE+LLEuLpqXMJf7DTf6InSei1CTGKCOnTUmJpkdR7IMTWkxKz+OwUkcC3VTii3W1LFq+dfVnQw4beNmW4YKfCl/z6h+JjolmK2LVkOjHA34w5iC7bBdEh/1B4Wxjmc+jLtiw52Go98Srthr8o3okYw6/meDdypesT2Wz06/lVtbX6q/NmfsuYFf6wYeFMbc0ckzpBfPnGQ8HQetVX9SMbFnZVHOwz8gQ+y60rx1aK3WWrEZeFsxV/ic0Re5EdjJdlp8IZY6NySuov+wMZty3Y7G4Hy3VuliRUfa8rn9hWr0lvRYjhr/RpG2JsPd0xi99OEQlvdYFezvOO25bu2DiWBX1DpP10jgtYIhjk1z8UH5MS0pvJ0loyLefE+Yw5SBHbBdEh/0DeLAzzOfRlnZZcMaeL99LQ3gEhowIefjXHu5ErXZ/IdKNf2yvV0uqvzpv5LVUp/NFk4UxtnjwkORPD3tNKGG7IVHE4xtSVYyvF7rLViMvCuZs7jtgFlN3x6tohJSqXil51vhqbIiR2Bj7PCDF17X9DfAohtr8rntxstbXOi+Bmu21CLF/vza9My9ear/CEuBQoXFBY5FbL6GOrzyUJscSUfOu/TtYeGx2XVcxn8qOehptFoSrQRjKFaIp+VlGofbSOs4+KBGq5rgwX0USE89MwcVy+KxXnzpIR8WofcVxhzoV0fkrFPoBAzcaLZfF0G/oIV/2UD22nEGL0rfQ2Cv7WmFrjD720HeWPlDX3nf5084LGytAD3zTOQ13G2FcYNkihjm827iDYuE45T3qE2JVjK8XusmWRU7avcdaYVfg4Yof8aLyGOPN4Ih+qJ8lqrEcy1vXQunbgf3s7W6BnJ6YfuSIizK9My9ear0aI4aZ+BXu9V6atYj4X7vJbPLySqF7/g3fYjorAQjTRoVEQi+bm7vBJDgiIIopFIRekRITz0zBxXJ6UinNnyRSj7Z0Kcy6u89NA9gEkdDZeLIun27BAhb1+yoe25lOuItDeqfQqEoBeLVJhjT/60HaUP1LW3Hf6M8wdQw980zgPdRmOVhg6r4HZuCO/cZ1ynuDGiWF2IuSQ5xhnObZS7HvN59F4tXK34GngQ22638jO6Bo0CXF2ovUr008jQpxS/Z0vE9vmj2G1ie+k5yn5nxI3SBcT3vItMB+XH6raASEmkl78EUUMSKfV5ibEyfhuWthAQZNvFKCYVe0zW+pba+g4e6vIFvRZRaFFEiBftkYx3WvLxal+DZSwYL/wxLboAE6eAngkg8Jb2Ke4iQwXIrmWDPw29CE2WfA3yYQmEKxPvu4t9UlSQcV5iYv1NPGFv3qrMeVjqbc5puwriD38rLYLZMpNC+mj0x+JdWUfulScIDZksyKcSs7UBZ3YGn2AmcSGzhWyxX1kO9nS12nO385NIhl3M8e0fzwm1Y9MUSxaDvHx1mVLx7B1Pg98RkwjnPM4L8hVra/VH3lQxl1h2s+vUs7YO/IbYZLg4/JDV1cnxBNJL/7YUSw/q8gWFFjFd/PJCDrRtlEsZhGjLReNFslmv/DEVprI+47if1RwwtdCfvlJHx0XIsk+ny2DAAx9aJIkqUkm9NNI1idf95b6JHkjQlfiQqytmwVQorcadz6Weptjaoy/Vo8xAfmftdOJDoYY85E/EmvThoqzkGG8OYBOSg6nu1ujDzCTcdO58no095HtZENfp3TcvGaYtAGbZo5p/xjv6se8yLiWU0FLjJu2dAxb5/PAZwrBOxbAUfYp46WwVtCUw954tQlx7q7+DrHrG2LqKEjw01OiH8bK5Fb8OjTI7tfq2+Cn9BWEm9035YSeEmXeMQgxk93qR7TwXS9+MMtJiEFO8WeL5BavO8+II2wJomnpsQgvFRuQtdo9tkrBwgRW+ly9Ns4FJX1HbMlkW6qt3GBYVCQZYyT7c1FXFWCdohEFGxGDGTlgvS0ZSSrQv0nI2K9WOxXbkuwV3EVsQxnYELmS+0hCsZYM/II+QcLhO5EZFM6STGTchE8aRxo7KQ99uIFRsBZxQgY3AIqM9IvzQLbRPnyEjpkd4WuRWfD0t5U/RVcHwywj2rPv2p9Ofhcbwt+ig/XK+Ic55sUQT3v5uiKbFfFm257rtDemJ+UY46dzbBT7SbY4/7Qtc1yX5rPnSfwCnMmnYa52ZPR1XPIMc8Xibb06V0dMfqsf0aKf56Qfujo8pfytsJMQV39Kqfy5JNKD1531k97JE/0NsaVndTJMprkAlYVcr9BFsUgEkf6znka1ZCSpQP9m8Q7S0yBs+mlMNZ58MJSBDTwxw1MeaXMtGTgIfcZNACqOQXgkmci4CZ80jjR2Uh6mMLYFaxEnZHJBrr4lLrnA5KH0Zzn4CB0zO8LXIrPg6W8rf4quDoZZRrRn37U/DlJEeiqcSQfrlfEPc8yLoSBiwLu6tth2GRtysBFHb0xPyjHGT+fYKPaTbPF1oW2Z47o0n3F9G/2yfvG/JTl4To6RydZ4DQix8PYmdgdka/GCHvpQkFvkG223us3FoyYnp+SIVbRqPR4Z3SeOT/qVb28+rjb+VxonEJhCSj9zjt1i7Dvzef3r4SaKhrt2MheZmpycErFFDrQej4zuE8ebIrDa+G/qZVs5CHIhpZ85x24x9hvzOQjxlYpZb9G+F7l7JMTmU5+l+cBP3OQrurMx88gstRvyZ5FlkMnqqeeOMc1kRT6B1Dmlj3ccy+z6ONfXW4x9hz6vMh9WY9kudKPlMgiYT32WmuanYvJ1xZkKj8ysU5zYEgGQyeqp55YGz9Sdybt8kqhzSh+fae+mut9i7DfocxDiagGPJ8KtYvXuCDEXpLdCiFrjEueXXbP5tVrjV5VvAcdMiluvMMc8dtYNklsY/0193GQ+vKmS8/6c5YL0VgjR/Q3AdSLKr9W2XrW+jktuq8PXZt2aQjAQWI5AEOIoJKOQjByIHIgciByIHFg5B5YXJNEjEAgEAoFAIBC4BgJBiKMIWrkIWvbEbtOnHjG2MbaRA5EDkQNn5MA1ypKwGQgEAoFAIBAIXBaBOyPELfCCpAXxjByIHIgciBz4TDnQWg/jfCAQCAQCgUAgEAhIBKg6iH+rIvCZCq6INQhG5EDkwKk5sOrEG8oCgUAgEAgEAoFAIBA4CQGqZOLfbhE4tdCMfkFSPnsO7PaiDscCgUAgEAgEAoFAIBAIBHaEwOcgxN9f09Ph6fjf4/uOhmBy5f3xKT3N/LosqcGv2P7585DwZ2mqPyfEfzeT2m+acHr+5IlH5l6+TVz9F2bXu7z0H1Avf49wPRPX07TVnyXgv/3358/rhTa0vFXsZHirX9f1+LyV7SGg9y+APyPzRf5plg3Cxi/d0vUDm90/ObSBD6EyEAgEAoFA4LIIfA5CXDD9SG8PFvEsAlfb2QMhzn+S5uGQ/kuHJMkxyC9I8j8OIuj5m5YeGdhec5vjlH/T1YjHI3O+T1dLt9rwHgmUg3ys8jc2ayQuepT/PMYGxT2K+D3fPNgq9jyAG+Wzy+eNbF80MRcYW+sa9OhBXm9NTvM4P6T0X0pJkuMFsIRoIBAIBAKBwI0hEIR4JwNmE+LLOkdP41Bs5EKAiwJ4YZ1DmyaHvx0OafQ3fj0yWu90fLS6eM9TsHpkFhvebwcUmnsiUP1cm7CkfL3Zv7G5YY55sLtqNm4YO8W1ST47fd7E9lUHq298rWtwLT19b32to3XQpyWkAoFAIBAIBG4JgSDEOxmtqxNi9aqfdcfeOmfC5ykePTKm8vNOymKnpckj0+p7i+fzE5ENnlSeg8XQpyvlzzkxyb5b5pj7OpUOXXB/y9gpjGHunBCr1+d8M2Jn19IJ4fq6rHUNrqXH53VfyrEO9hVEayAQCAQCgcAtIrBfQvzzLb3k735fk/zi9+P5JX8L/PL8kRJ9G/zwlj7wjTDtN/pNg9N6ZXo6TzqhP39zTPr0qMJW+Sa59g/i0JP9xEm5nemZv8oNHeX759k3xpPCTKaLPy/pbaNvB6kopCdyueg7pPSF/hNPkXMhivN6y3IemSQKJGkLT68ljLRPfpEvoyecnidnlkyTYIjiaS0ZHZt1TLbkOBAueDIlx8Mq4nN8qmC35LRdOQ6EtTUWWsYaEz3+rSe8yDXth+6fcxC5JnJR92sda33aH2rPsXJOwp7ONSv21reOWbbhq6VH28I3svBFjjnFCewqXYa9ql2NKcXtyTGyp/Vkv1SOAf8sq3zx2rLyNOtTtiw52MdW+2zlcyWrfEabzh+KXevSMjrHsi6eS3pjqvXK2L0Ykq1u7OwHfT9byYn4dTzFZ7oOhZxlS+aGVw+NJ2yY2PFgaH2VrCMuVhObQCAQCAQCgU+IwH4JMQ3Gz4kUF1Kpj0EqCxF+SS8Pr+md5V6/6xHtE+JMPAvpfE+vh6dUbAt/5nq1nVSIddUfYtnvmrjqJ8QTGZZke/Kn/uEtPlcR94/09ixvIcDomVsuKH4BQSB1fK4qPFBwqcJIW8/FVkuGyYe0BcI3IwdeQtzwtfKrIQOCUcnSgSDua8nMbBgncsHP4wBcciHK/mSMOrFUhXVDTprNhaYkHSJuyGWZ1niyUC5shR74jjHVBS2KYGwhR+q6+QOnBtuRP9QdWJMPsJ/PPR+Vaz24LiqcId7B24MhMKuuue/i1XHWL68d+CP7jMYUcVMMsDnLMVx7YkwLZgIfhG75UeR3ls8jn+G3vulBuEmcdW4AS+QS6cE52Y/mlnLcyJk8Royzd7xG44457bfHlEpsDfuja1DHDsz0ddHTQ23AauZ7GSS+KSryEJii75K4hNrYDQQCgUAgEPgkCOybENMgFPJoEEImxJmgVmR5kp0T1wEhrohlSpqkHn05JzuOT6OlltpWw/+CxdRzTpqlRtr/mZ4fDulwsP97nN0w0P2PxygwSpE0qU+/qAKQTlPhooueo6ZpryfTs3XqL+f2iin41pKhwg7FqfQbflLRtZYMfGluuTjFk5hcTDJZy/6AlEpyDGVWYWuQW4jTttLJDTJuyOaC3CJBLGAWvZY/sCkIKGzIrRwHed677/IHWCtfZKymng6mrRwjv6VeM44GXlIWY9O7Todjirg5l1o5Zsbe8dGM3WkLhKYQHArastXBnroMY5dgdl6/NmNXtk0Z7bM+VvbzIettxu7E0BO7mT9qfoOLvWvQFTsr6umBLdqa+dO6OaZwXRKXtBn7gUAgEAgEAp8Dgf0T4sTE1Hh9uiKo1VPhBqFMA0Jcng5Pg1+TVDrH/bMv9RNed7pUfh57VbYU8S1Sqm/Vpwhts5MLHEUMUKRqkirJYcubnswSWy391XlVqFZtOOjIkK85RnpqI56cZD/5qcRaMnCnuVWFHtnFzQfpT94HOYYyo7BGoVgV25DHE0DxyqL1tJbEMWbUjpsHRY3yeXTe9L10mnZ6+aNE54defxivWTxCo8Qfp5uYdnKM+nYxRLseUxjlLXRU46nsks8YR7ktfRQ+MsasX+Q8cg9uLI7dacvMiQ3zOcejcEOMtLXyr4pdxVX6qvNmXEV42jFlZOxKZ2+85Hhjv4w7bhhgvoMfDRwsDNBF+oBzFT442cBSNJdd056KvQir87BdrVWNuIqO2AkEAoFAIBD4NAjcACGWJFS+QiyfHh9fr56eCm9FiJEX0qeFxFiRWmisyK2LELfIPTSuu7XuzqPIkAVViyRX3gwKEbetSmn7wCrOtHRThgsripH8+od8Z1JSCrS1ZLRTxnHGHKSI7aLII/9A3iwM8zn0Zd2WXDGrispyvrOTi3cmXPCrmRONPOj6RLYb/Tpu1U2t/uq8md9Sk8IfTRbO1NbMMXTkrYlh5wmZ7G5hV8XhGFNXjq0Uu8tWI3YLZyv+go8j9iLbGy9P7CqXil51vusvd7JkZOwuDJ2xW7aq/EEgKg6czlsPPujQ0wMZ2rbknLJiEfUAACAASURBVOfdcUmbsR8IBAKBQCDwaRDYPSE+vhY8kdz8I1oYHkkcK6K5NSGGA6eQ0sm3+ttijg1PqKtYYAs3AI43BTKJPhyPhSTvrvfKtFXM58JdfLdFRs3iSTk2kilEU/SzChrR3Nw1n64o6a4MF3dEhPPTMHFMT1jyzQBx7iwZ5Zd1WGHOxaD0ASR0Nl4sW71Ky0RDP+UrdjkukOxy3rFD41X0NorW1pha4y9NjvJHypr7Tn+6eUGKDT3wTeM81GU4WmHYIIW622zc8WQZ16ljTF05tlLsLlsWOWX7GmeNWYWPI3bId8fLE7shQ7p1zutj2Jfb2Ziq2F0YOmOf2UL+qBtpyPPqZiicNmKHvB4vnDf1QF9vXTFsUTeNqzcuYTJ2A4FAIBAIBD4RAvsmxJnwPqXyLTAfFzJ5dUJskdspe/AL0cVXkVSZyJbvlZkM02vYIMTlNXFJdg1bTJxlv/xa99o/qsXFFMgWQrGKDIskQL5sG0VMbjfacsEH8lmUHL8hxBNb2ZT3PUXgSIb9KeSXi3M61oTvbBkEYNhEkyz4m4WwJhCsT77uLfXJIpUK1BIXYlXFMPo2txpTPpZ6m2NqjP/MzgIZOSZFj9MfiXXpK3dUnCjuyWZ1E0HJSRXNfaMPMJPXIZ0rZIL7yHbSr69TOm5eM+omSTPHtH88JtWPeZFxLacClhg3bekYts7ngc+zmKzYWcco54dj6oh9CYa9cZ/FxWMl9Zfh612DGj8LHyjq6YGMQYh/w5zkwVn704tL2IzdQCAQCAQCgc+DwH4JMZPfmuwdvyfOJNlJiEFOy58vmv2JIvtJb/UaM31BzH/ySeqxCC+lD2TtdvnK9UT4s7wgxKRjegL8lP/MFNm0dQlCfc63zb2c56KlFN4k2ygyqAlFHhGDGTlgOy0ZSSrQv1nEsV+tdirkJNmzQhzKwAaesOHpAwoyUrqWDByEPuMmAJEZEB5ZqGbchE8aRxo7KQ9TxXd8VyrihEwmUGjnbckFzoMyVtwOH6FjZkf4WmSMwle2yf1W/hSZDoZZRrRn37U/nfwuNoS/RQfrlfEPc8yL4ejaYttlbMjRRhy9MT0pxxg/nWOj2E+yxdeFtmWO69J8xvVt9OuOuyauJDzKMVY4yuXRtezFkMz1xh3+evKHdPX8rnxu5AaH39UDGeQx5hl5fcFvtM3WgwXXRbEXO4FAIBAIBAKfCoH9EuJPNQwRLBDIRZYmJ2hcsrWKIN3fI6P7xPGmCKw2/pt62VYOIlBIxWfOsVuM/RZ9bqdjtAQCgUAgEAgEAoGAA4EgxA6QQuRyCJhPfZaa56di8nXFmQqPzKxTnNgSAZDJ6nXjLQ2eqTuTd/kkUeeUPj7T3k11v8XYb9Hnm0qKcDYQCAQCgUAgENgnAkGI9zkun9MrLkhvhRB9zkFaP+r8Wm3rVev1za2qsffa6KqGQlkgEAgEAoFAIBAIBAKBwCYIBCHeBNZQGggEAoFAIBAIBAKBQCAQCAQCgUAgsHcEghDvfYTCv0AgEAgEAoFAIBAIBAKBQCAQCAQCgU0QCEK8CayhNBAIBAKBQCAQCAQCgUAgEAgEAoFAYO8IBCHe+wiFf4FAIBAIBAKBQCAQCAQCgUAgEAgEApsgEIR4E1hDaSAQCAQCgUAgEAgEAoFAIBAIBAKBwN4R+ByE+Ptrejo8Hf97fN/7uCzy7+P5ZYrtzLjwi7l//kwJfwKn+tNF/Dc6qf2m/3n+vIpH5qZBuCHnb3EsbtFnnRI3fL1j/voi/yyWju+THg/n+Qvjstb6dZ7bH+nt4Sk9nbmGnufD/fTex5ge8Rzm/A3PdccoU0qedccjUym94QOOdY9/ueQ3/ssaX3j7zw3DPHN9qxzb+Dr9HIS4jNZ9LnpYfF6eP0qkp+zkP3/zkNJ/KSW5gEAXikzPhev5e8IeGdhec5vjHBTKHpk1fdpEF08emHBpu8eFYRS7NRbIT8RmxsWTMmSqmzsw6pFJKcnFy3NDSPuc+xs5B72kM/c5pFRdXxhD0VfrRijVVsVFGFR6K2H7YMn1bmu43ln4bo75ym7ReFzCzlpu5/zpzPNr2fHqWWv98tqz5XZYG/x8Sy+Hp/T63fb4KmedPu1jTI8IjXIe84VnjvRc7x6Zo3fr7eU4xVphafbIWP1u8tzGBOokTBxk8Vr5c1I8RqetcmzJdWq4NTwVhHgI0ecRoOIchV0mHFw0AQHrHNr0lnSZJEUIemSE+Dq7ngnSI7OONxfVAhLpIXQXdaxnzBiLHIdY9BGXLGYwcZYcZD3lOB3fgijnDJk8sTOZlPs9l5PhM/yR2Ff6BIGVMiDMuC7JrrxOLT8sW/nJgcDM6qfPLbnedd/PdHyVeewMgGX+xBgDyCDEQKK7dRLiro4rNI5yfsl14LnePTKrw2CsOzMbHplZp9s9gbVQ1gbXjsaTa1fJn7WA2TDHPNidE0YQ4nPQu6e+XJCDHFCxLotwCtU6Z0LguSA8Mqby807KhbGlySPT6rvr81fC/BxMXGPBcSF3W6+NZQIKUti4S1vJKMfJly/qJpESyYemzyC8bD9P7IeUCvmlGB5S+o3+4ydCtJjTPunDOcRWjrUDjbi0mOfYfb17lN2rzK1dU455/l6Hqh9XEOI+Ptx6i4TYkfPuuc5zvXtkXGAvEzLXHaXCI6O63PRhbz2/VmBDn66UP2vhsWWOua/TE4PZLyHmiffp8JrkF7/Vqzj0bfDDW/rAN8K03+g34dNa9Kbz9Mox9OdvjkmfBha2yjfJtX8Qh57Za8wN/0z5kS3dvvH3TyjMUcznV1EFQcgXuvouAq+rgkh4ZOQTNmlLE3RgTX55Xgn13F2yZJoXoVho15JBTL2tx5bV/5y7pXrcNCErPvFkjnHXd2bleEKm9Z2nNRZWXDJfqN2ME34xIfXIVLacRLPnM2L/83nKV4khtVF+Y0u2iRzT5wuU3yDOpt/SUaefuQvLlnEQ13K2z0Qcfmc5JUNyVbt4y4TaKC8oTshQjIgBc0L2xdCT7eEGBoQGW8wF1FfiW7pxzIQnfPLGRXLIZ309ZB2Y+xRGlR3IIK4F/uBmSLGl7FCM2lZrzix4LN35Ob3G212XoVOvT2otT7q9s36Z6yPs0Fbr0rZY9v1R/JbI4SW9ld/DONYGsOWuAaTf5IezJqnsUD0h9ZC/jPXolemhnmHsk0BPz6yt1D+Ep6iB9DjomNiXmb5KbkE9xvrO3URtoxDkeYnm0LK2KxHMR14Z3d069q4XNF56bstzH+ZVVm7JabueOVPLyLUA+vSaYK4/vJ5bbbp/medpzTDmethtbbU+bZPaM4aojRp1tBX7KTWbpQfraYnhyjXJfgkxIcQLQiGV+hiTbyHCL+nl4TW9NxeS46JXBiDv8PlqUXpPr4enVGwLf0YLFIliwq/6w6iOQx8vtJVSKy4YXGHLifoLLqLsY0q/GIVnTvzBBdyV4QtU2kIRPbuAeIKxJqgqajHBV+flQUMGi6UUzfvsJxXXa8nMbBgnPLZm3dhXPSnO5IwTZE9OgNZYkAyNlxyHfO75qFDrwYKqF7bcozEWR23HvTzxi3zLx2JhzLn2yN/o8nmPzNECFdxzElu108HIZ9ZBGOmYyR8am4zt47TNY8U6QYi71w07lGNTY6Z9xRhW+UBPo/G9ItuV16AVn8YROMFf5AXFC5t5cWcscD3PcoOva42TjkMeEzbQN/MLghjHR5HTxrjl/iKn0F1vR+MxjMvpD7Ar40OOyPHimw/yOtVjoX0/+VivV/qYFPM5z1rpWb8862nf1rSeZ7JaAv9Ib8+43S5qgHIj3KgBcs0hCGBivSB03prk+2tdW7Ceql5wYDjh0vEnxzqKfbqhUNm2/Fk0ru2aZOyzGAvg2vKnjOUZO865jiyMrvehDF/vcl7FtY25S0aS5w9xI062lX1j/ipt2GnIkP5qToE8+3mN2gbYAJfZetGJpVovGnIIkbazdULEDTnPWqDnefiOMc06mHBWRNcgoZ4cg2+t7cgf6kcyl6rZPBgCsyof5RrH44n8yLEbYzwaU8Rt1ST7JsQUcV5g6E6uWnhKG//oRLUoT7LzBbI1SfP5shBmqFO+m1wmZOnL1H7W/3txldjkHeyetVZcP9PzwyEdDvZ/jyh+e6q5DclaFVxGMpI4JWQ1MRn6ezI9Wyi0DZXdU7OLxJBuydAFhItU+g0/adJbS8Zwa3bKYyt34vHBBIwYZgo7J8zJWY+7sIMFgFTmiYcJsanHWHzgSmss0I4txqDkhfJNYlX88cjAAG9ndlQ7HQ59Bk6aaPH5jB1jUu4I8zFwHdpQ/uaxFzcHcrOK3wjlSF5lX9UvY6JiAU7ZXxVvzgEu7mRfMzeULcvH3rkWTvCvmsfU9Ut6S670jAzmOk9cLn8cWEg84TJ0I3dwfpXtRdYvp6fFl7b8nIRpWU8NMMnUxBE3v5mUZl+W1CRHP2b1xpAQN+ochcc49qMPcm/mDzUOfYKGVk3i8dkzFlHbAOnWXId22rZk5PpIMqjb5Nyxloz0x9x3rhe40VfNa9Yc2akvyL53zhytBZ55HvFKXHFOb+U46DbPscsfYK1utshYTT0dTFs5Rj5LvWYM1vgpQWBXrd2q33BMETfXLTlGUZPsnxCnNBHT/IqOvBOqCGo1UTcm3eaTVHvyni8ILJd98ZJVNariMOu34soyS2zZ/gtTZ+/KxCnKGheHnECLrNrpySyxpdTahw0/K+GODPmaCRfdrRJPlrKfTBjWkql8ahx4bM26YiKQBGcmpE6oyaa06vOMXY9wk89YbKEHE1y1sFFjZyzQl7boX8gwnWTf/vw+vb1QdEufPTLSEJ4MqMWjEnH4TBiYNyeoL4glfONXOfUEb+FY+aEOgJFcRHLewp6Sx6HnGpTxIC7ampirRVFfO57cgE/SVjX2cN4guGgCHlU/Y+ykrVFet9qtsYJ9YITjnj/Zl8F4DccCAKy43c/6NV4r52u5BsJeQ+t+U11R/QnHvH6L14YlGR3UJEf8xGvc8gZ81V/7q+of2az61TFIwXp/6A+JK921Bnlk43l8wCFltV67rzcOpXl4iGsd12TuYMwJdJ6us9b1DkM9mSW2oK+7bfhZ9enIkK957tlDbSPX6M56Yc6HHKMcQ8yt8pzExTtnYsxo3ZmNvfK56G+cN30vnaadXv4o0flhwy7qouI/41WO55pMEtvEtJNjpLqLIdoHaxx0VOOp7A7HVOFD8qg9SP8NEGK52F2bECNrpE+nEmOpQ8UFM3kr5Vq2WEYuppWO8w+suz/mxaES1LQ8kHHbMpXPT8qkn7dOZ5oyfAHRRUh+/UO+84VLffKEspZMyzl53mNLyov9jOtg0hHibWKqxs/MA6mIfa6Kfty1NvxpjoXQ2bTJvmGM0KWS98igI29H2I18zv25+CBZ6V/2rXGjIi8CaGMce4uYcjsf6oUk+wKdVgeMjZKpMHT4kuUxvioHyAd57Xhzo+FufVrlp2y0Yq/iksJYqPlGhvaxe+NGxQu12T4w8eDckIG+vHWMRSW/yoFcl/ayfkmf5FrpWR9tmZqEtW60C0CdhHginzVutS1NEoUN7EpbOEfbirTacUlx2nf5M9Ottcjjht0zfJ7hI82dse+eEzrzSjE/kHHbKgr7O6N1h3o3ZXje2Ett41ovGvOhnlcpbgvrguYJcybWUSLGZS1ojXfjfNcncq7Rr/g92mn1V+d7a1424Vy/4E4zxyDAWxPD0VhxXwu7Kg7HmI5ybPeE+Pi6D9+dla81y8m1WgRaC1djkm48OR5PwC19KguMw25chnz/O6uWH+u9VmQlfFWss89VgppxHJ/sVXd6hCzZ0kW/dTGILs3d7KMoQC3BrgwWDXriSK//iuPyNEycO0vGck6f89jSffjYGsOG6HRaTaKQ1WPRxY86GXqQJ/LJJYkOdUFGPomEY7RlfMqCxW1V7B4ZqZOLCu0rREY+53aR04gdPhKeuEsJndhWbQaOkOtttX96/Ky+FV4skPWAJDOG+jqVuip59j1f8xJ/Iybg08Jb2rD20d+aX5pxDeaIahzYaM+ON+c9/gzHyzEWFk7nnLvM+nWqh/P10CJ8tfZ5H2qvawBbptLjqkm4llE3sGtbmthWVqaDquYR7dmHI9kex+70h0y0bArz024Dq1b/yme7b41P1DZ6Xp8NAdbK1tzG8wbd5D+rbvHosZxT51zrhUXweQ3R64U1ZxeTZ8yZlV5j/SIbrTmb5vvemtldU4rznR2nP8PcMfTAN43zUJfhboVhBy/ZtblWrliT7JsQ50lS/GF6Pi7f8ORjvhNcTbSXIsSTneKPGL2pYFA/yoX2UVyQq7ZtW32yXCk57YAnDxTwUGIlqFUIQr5sjYut15YvOIsAsV/yaVvRQzueSW8kw74W8gtyJF61QMxny8B5wyaaXLaK8HGHxsrEqWeLsZFkzRoLPbkdrfKewrhMrHpxUHIzPaMFnjvoxSgfq6LAI1Ps9/zqtYnXuiWGyEssLL1FUrZZ2BcfGRt9jQJruQhDj5Slc4VAckyynezo672ZU2IcEHe2iYWLc06S4+Ift1U/nCGDdOwjZsSDX+sG7sWW4aepvjXG7KvGKevQfay4tEzDn+F4YU5SOW7GssbJK6xf3fV0FpOxVnJ9UP+Ss/GjWgOSCj/mv0/CTrhqEiZ84ub+RFrVL01XNc0syHxiTnbPiH3kz2Qx/9hojaPlm01qSXLss923JsSWzRPOOee6rLl3vcN0T8Zow7WNuQpqMFeZazYJNeaO0t8jw/6cXbd49MAxQxZNso5orhd6HWJ98lM2qQ9rLJ2jdQHrER2P1i/oqbYadz6Weptjyr6a6wWMLJCR44buyIuRPxLr0lfuqDixppLNav1UclJFc9/oA8wkNnSuXBfcR7aT/rVrkv0SYl509cSLhSMvSK7FBz96Ib7TKd/94LUq3wSMxVB+Q2SRYRooyM7aPXGJ/j1bsCFlpn3E1UzJZQ18kZbkpN5GUkMpkpsuntkFxEItGXnhoX9zUWC/Wu2a9MA/uR3KwAaKedzNksXnWjJwDPqsmwBo8/jD+BOOcoKEmbyFPssWCYj2PB4ybmrv5IG0U40r6WC9coIbjUWlQ8RmxZcXO8gIrKRPXRmOq+QgdNFW6Ov5XPwV8rCP/MefYKquLQipRSDbkn7wvhzbKiZut3TDPuKrFjkem6pfY5x79qgN40u+w8+Mi8ijghP5y+elPOBwb9XYwQfkcjcu1Rf4FB3KiR6Ow7gW4NyzA5d6YwGZs7dXWr+w1s3WU+daOcU9kcXjeinXSV8NQHrgy1GPILLOmgRPWqGD4sp6JSEHiS/1CmoY6TcIJtoaN+Hxa9hFV63D5Q+SZ+bX8Wm0iU22WdtDHSfjh/rWDf5NCPGCa5D881yHLZlqPsA8LubBY/xi3W2099Yd6BnKcOyz9UzaXEsGTkGfUW+ctF6wHnO9ELbyPG6sw90507sWaDsSP8Qtbo5X649ox24rf9COdYxiMnWN/Gms5UU/71T5SjGxXrkWDnPMi+Ho2mLbVbyNOHpjOsqx/RJiPTpx/CkQyJNBY0JZBIB1AWkFHhndJ45XQQCTbZngbnEsbtHnVUYvlAQCgUAgEAgsQSBqmyVo3Z/sauN/JWjuomYbYBeEeABQNF8WAfNO31IX+M4RnkiZ3T0yZsc4uRSBvBDIu7Mae3281MA15G/R52vgFDYDgUAgEAgE8nel3ZrEg5Fn3fHIeGyFzGoIgExWb2Ktpn19RXdZszlgCkLsAClELoQAT+S3MmlcCJW7MJMnWLwmpr9DuYsII4hAIBAIBAKBQMBAIGobA5T7P5VfKea6R75qfAuRf8aaLQjxLWRm+BgIBAKBQCAQCAQCgUAgEAgEAoFAILA6AkGIV4c0FAYCgUAgEAgEAoFAIBAIBAKBQCAQCNwCAkGIb2GUwsdAIBAIBAKBQCAQCAQCgUAgEAgEAoHVEQhCvDqkoTAQCAQCgUAgEAgEAoFAIBAIBAKBQOAWEAhCfAujFD4GAoFAIBAIBAKBQCAQCAQCgUAgEAisjsCcEPPf1ry1X0SbIeP56XmPzEzxjZ7Y8a8c6j+kXf427Y1CXbm9VY7dwnW6VewE8Fb5rH2+BZyrhEsp3aLPOgYxxt0/VaLHy9JzL+e2yvkV8Ik5/AQQb+E63fL62iqftc+fHecTUnN3XfSYrungVnmofbyFPNQ+b3ls4I5ftib+iT9V1V3/V/ZvRojhhIeUeP5mrEdm5Ziyuvxz5/JvnxpGPDJGt9s8tceL0THJXSt/1hrkrXJsyXW6VixL9WwVe/Zjo3zWPi/B2ZOrHpmlOGv5W/RZx0DHeixOlbH63eS5jXL+LCxiDj8ZviXX6clGzuzouQZPNrFRPmufl+DsmZ89Mksx0T4v7X9r8ksx3BSfjfJQj8kt5KH2edNjA/c8zg8p/ZdSkuR4Uz+E8hkhzk6wQ0LO3KW7wqO/GeuRMZWfc9IAeqbOIzPrdLsnllyMl4rSk2tXyZ+1ANgwxzzYrRXGSXo2jJ382SSfDZ+X4OzJVY/MSXiLTrfos3B/2jXG4iSZWafbPbFJzp8JhyfXLpHzZ4bR7u7Jw3bvbosHu66CrRs3jJ1c3ySfDZ+X4OzJVY/MoqExfF7U/waFF2G4MT6b5KExJrvPQ8PnLU9ZuFNe4InwErzW8nNGiN13bjxJ6pFZKxKhR4IqTle7Hpmqw40fbHqH7URshj5dKX9ODGfWbcscc1+nM68uc2LL2CmCYe6cEKblsxtnT656ZE7wW3e5RZ91DNZYnCKj+9zy8RY5fy4eQ58ulPPnxtHq78nDVt/Refd1OlK0UfuWsZPLw9w5IS7LZzfOnlz1yCz02/J5oYrbEl+I4db4bJGH1oDsPQ8tn7c8lwmvfItXvUI9w+vjR3r49kd6/tjOqxkhpuSjp77Z2UNKX+g/8cQ4Jw/O6y3LeWTkd27SFu4O6JDJL/Jl9Cq3566CJTMDHw6IQVpLBqp7W7Ilx4FwwR0VOR7WZJHjk4mWUrLktH05DoS1NRZaxhoTPf6ttwiQa9oP3T/nIHJN5KLu1zrW+rQ/1J5j5Yka9nSuWbF/UTjDhyzb8NXSo23hG1n4IsecbAC7Spdhr2pXY0pxe3KM7Gk92a8FsXttWXmabStblhywx1b7bOVzJWvgN8JZ51YZL8pX1ueRWTofwm9ru1efyS/CZ5brKog8bsZYSDFLhnA2xzjmcAmdeS3rMdE5q+dMKESu4Rhb3d+6LiDr2Wp92p8y9jGHm3UCYaznw5jDp8zTuWXlqkfmlDncmsfK9cDzVvFHzYl07en5LusTa6XnuvDIWPlT2WZf6dvPKs+Ezy4MS/DTjoUP6fHULR58yIolp9yoYzJw1/LWMebKc/BxYShuOEhb1XhZDupzrEf3gw9yDpZ2kK+jNYXktG7tgj7++eOPdPj2LT2+65Z1jmtCzEn9iywsRDEhTVqJKttpvysDsIUtED4NJOmiZCIArbZit+FraaedhgyStZKlA5Fca8nMbBgnyBbGAbjkApv9yTh0YqkSrSEnzeYkFxOpjBtyWUZMcDgvt3mchB74jnHDxYSLRm8hRzq7+SONdvZH/lBXYC3zK597PirWepBHFc4Q7+DtwRCYyQmHxqMcs37kRzZr2ByNKeKmGGBzlmO49sSYFswEPggduBRfucFly4jBtNWQKz5YTx/EdSzl8n5LH58f4Uw6PLnalVk4H85iwIkd+5yvoZjD038xhyNbXVs992KukmsF5peYw/lGnMyxmMNLLZUTrjHfd+dnztSuzNI5vOEHmUKOV+uoUQNU7ahlxLrsvS5ojetdO6NaAvXib48plYcEjfi6GMoZodEfMXXrll5fgU+rXpFuDGOXwq199uemagmjrsljp9ZwT02r53CCic7p/G3BV51//zuT4sPf67PiihDjIiwJTV40EotAMMmA8Lwn07N16i9czxJX+ILdlowcHOk3/KTFdy0Z+NLcMuZ4wiSTMPsDUqoWvazPGi+Wa+Fa6WSnZNzwk+Lvjbk50Vn+iAlfFjWwg60cB5xbsnX5A6zVRS5jNfV0MG3lGPku9ZqxNPCSshib3nU6HFPEzbnUyjEz9o6PZuxOW1hUq5ywbHWwJ5yGsUswLfLM7R6cocqTqz2Znq3WdQvbctvToxefnj/Q2ZPp2VriM2zRluxVeS0beb8ls9b87NFjuFWf2mnOj+afJdc7xr+6XmsU8nj21gwlPjt0+QOsYw4vpCaPjZzbUTMAYWte5Tbz+gLGUifjLW3FHK7mL8bNmg9NnGkMOmOD4XPhjDHrXBewJckw2ZDzRDW+7IC+9nGs5245l8J3itszJ5j4IKad5iFi1FsTn8Y4e/DpyfRsWXmofdXHNIbUT9aIUkbmijyPfXMOH9Rw6Nvc5tenv6XDHz8ohVf7VxFiM+CG41aia696Mktsab3mccPPSrYjg0GniUbe5cp+8tOxtWQqn6wDdaGQXUwg0p+8rxc6jlEWKbhA5DlplvTThKj/0/IYM5LTxTUmVu9503fplLoBoZrGhwrD0kGfZ7xmfpcO9eKA001MOzlGfbsYol2PKYzyFjqq8VF2h2OqcGjlmDwPNxbH7rRl5sSG+ZzjUbghRtp6cIY84dTLIZLrySyxBZvWdomenj/Q3ZNZYgv6utvOWJR+HRnyNS/4MYeXubyaI0ROxxx+fAqnMQLZaBWPyHsTQ2Acc3i5ZIGnxLm5hnAvupZ1PULHUkcx0JkTMFZVv4Z8b66DrZ7MElvAxMqxrMeTP1qG4yqx8nF3XXLIeMYC41nFcwbOTXx2Wktg7GXOSizQXsaGEuoMfFbLQyR2Z4uxbV1/iI3arVyzfIXOCo+OD3bTe3r89i0dvv1NUK7yryLE1h0Z0/HGQFYeDWTctiql7QMCHaSxJdWU4YuMBof8+od858mmDOZaMi3nxPmMOSY7touLi/xD0lkY5nPoyzotx6LJEAAAIABJREFUuWJOTTDlfGdHXgDwq3Vxt853fSLbg/zpuDc1tfqr82Z+S+UKfzRZOFNbM8fQkbcmhmc8IavicIypK8dWit1lqxG7hXM3dxyxy6HojZdlp8IZilRO4XS1Hci4bVVK5wduPQN/suaBjNvW3E3zTG8s0KEpw+MecziQ6m/N+ac13o3z1vhXVhv9KpneQau/Om9ek1LvSvOYVEn7JoaNeUz3tbCr4nDMY655daXYXbYasedYN6xJmnNCw58KZwyMyimcrrYDmeGYCmVLfRZd865lS+NsxqkUDWUceUgqLX9M3QMM4V4Ln6wTuaRym3y4dm0M//V2VXwGGLptaScbx2WeA+4jOdyYJjk1RuiafRzog6y5vcQTYisJMxjq+0Ez0ZXXIxmyheRFV2sg0dbbZh8H4HZleNCICGdSLY7LXRFx7iyZXiDcVmHOyZ/vpKjkmo0Xy+rXVgjX5s0C1qnHwuFm/Tpc4yJtjak1/tLmKH+krLnv9KebF6TY0APfNM5DXYajemxaeMmus3FHcYbr1DGmrhxbKXaXLetmAtvXOGvMJDaYgD35PBqvIc5sGPnQu9s5krGuB08uVLFbGOrc2KHP5NJoLIYya83PHj0adON4rzmvXa2uJeN6J/lWHlo5K/WPcl7KmvtOf4a5Y+iBb3puGeoyHK0w7OAluw7nlpjDZ/WhxA/7o/Ea4syKkA+XmMNHPreuN8RM21lcxlo5skN6hjKOPDT9aej24NzzKbehzuGY91gby7Hq4oNYuIMHn5GMNS97ckr7TMcZb34zg/abPEJ0rubDBXOvUNHfvcg3xJz45YkfuzS78Oi8EeQsgp6M0SaBr3SxX3hiW7XRgeeCHcmwP4X88oRDxyUB1pJBAIY+NMmEak4AelJkffJ1b6lPLvx0QZW4EOvghgJ0la3GlI+l3uaYsq8614pu2lkgI8et6HD6I7EufeWOihOTEdmsSJeSkyqa+0YfYCaxoXNloeY+sp306+uUjpvXDBdtGKtmjmn/eEyqH4Yg41pOBSwxbtrSMWydzwOfEdMI5xzqglzV+lr9kQdl3BWm5qEzN1o2Zzp7cRltTZ/Zr2Y+jsaCHBvJsD9yLsjXQMzhs2EtJzSmfIx5geSaY2qMf9GLnQUyctzQHWM+8kfOL6Wv3FFxxhx+/MHOApPCqJznHYlxzOEaHbteMa+dAc6kGf3kWkHn5FpQrfd8nenaT46Z4XE+5ZEZ1RK4Tqt6SNUYxf5oThjgI/3dTR6W4Bo7HJMcT5KsxhBdR/iQXE/GaEM+yfzJ5ljWnHtxY09+psDyMz3wnbZ6/PQx65jVkFJHZ/9yvzJtBauDEY4CZAKT/tMXA4m2ZOSChP7NYgmD1iBsdIFIsidcLLtDGdgQd2tyH2lzLRl4BX0y4biNLhRcPHICyLgJnzSOlKhSHqZwARWsRZyQyZOe+m6nJD7nQenPcvAROmZ2hK9FBj96ZMQtZWi/lT9FroNhlhHt2XftTye/iw3hb9HBemX8wxzzYjiKm22XsSFHG3H0xvSkHGP8dI6NYj/JFueHtmWO69J8xmRv9CvjvgBn6jPM1Y6Mvo5LnhVnnDt79Zn9as3xo/yh6IcysCHGNPeR1/xaMhgO6DPmst3lvHf+ETH18hA5W81DwEVsh9eFsGfqEu2mP425T7iQd+Fv0cF6Yw6fkBpdX7vL5wVzQpVXnXwZ5uoKc/gIZ+TtyJcqn621shMnbLTqhtIudmj887UjtgVXvpbKMfXr2O/FNsJnj3koYLJ3V8QHBloY6rwo8x06yq2YW62xo75yfqSuOQ+wpvIY67zQfSqfuC/pkTc6pVvN/Wv8HeKmMys25MEEqOfotRJN6/PI6D5xvCkCq43/pl62leMCL5PIZ86xW4x9Zz7f4vWwms+esfDItC/XaNkAgdXGfwPfPCpjDhco3eL1tTOfXdfDznwWGbCP3cDn7HFw5eHZVu5XQfWjWpcKk+4CLb47oJ3juxNdPR4ZrTeOz0CA0qn/33/Ph/TlcEi/fe/LjfT42s8IhbvmCUY8dcKdz5J3nznHbjH2Hfq8ynx4fqov0rCKz56x8Mgs8jyEz0UAZNJ6K+xc3Vv0jzm8g+otXl879Hk4H+7Q505WXL4p8FkF82EermLlfpVcnhBz4s8X0xFBut9BuE5kI7zXbf/zYSLCRIb//Lmubh85Pt3mP49H3y9H5nv+XidjwuoGCDTnww1sraXyFn1eK/ZPrIeKLbwep1+L2zssmRSL1z3n9cfeIwj/dotAzIe7HZpP5Vjk4dnDTVX3Tv71CMCO3FwNrVG80b410b1d/aslYSgKBAKBQCAQCAQCgUAgEAgEPjUCO2GaHvK3p3Hy+Bsyt0s49z52e7oWwpdAIBAIBAKBQCAQCAQCgUDgdhGgyv/K/7zkw3LT2zfkgpzeUw5Y10KcCwQCgUAgEAgEAoFAIBAIBAKBpQgQS7jiv3siKRFLkO5L5cAVL9kwHQgEAoFAIBAIBAKBQCAQCNwRAkGIB7+KHCTvUiQv7Phz7Y5moAglEAgEAoFAIBAIBAKBQCAQuCICN0+I/3o5pK+vN0am3g/p65P4r+P//95YriPjJ1I3htMOb1aU8eDx+/29xrS0bzpeV5wxzjSNX3ulX6nFn28pf8LqTN230B0xf5F/yusWHL9jH38Tvz5Mv6Jc/r54OuboOeO1Rc6/Pz6lp8f3Ox6VbULbYiy28XQbrTH/bIPrOVpj/jkNvY/nl/R08M+D58yZJ80b8avPpw3sFXt9HkL8cUi/Ph2SJjAVmfTIrEzSRoQeBOvXt5p4VX6PfLpCXIv8G/m/l3a+kfHXR3ssVhmvYbxXnDHONJ3/dMtDSv+llOQiA7W53SCL8rwuIPCnYPKWdXtkSnEoCZFhG771ttK/nhxsnnsTgOydq6Pn56do44Klh+Ma45Vzo5Pzp2B9TnF3ir176TMai9Z1LM975haPDHKrmr9i/rmXVBvHEfPPGKOOBAjxy/NHR+rYdM6cOZo3jlbE3vfpz9SZf6KOx56uff0n4FAXYV7Q7WRhKMO2ocOyIzw9e3foj8eCwET6rW9Gz+ZNXls9JiCTx1PWfbwfhFiSjysQxxEhXoVYXiGuVfyWY7OD/X9fD+nryyH97+q+4LK+vS0ViiAgeRJVk5lsl9EtPe/pO7PvKFCkXrnf8k/KrLlP9qyFck0b965rNv4bBSxzYy2b5xR3G4V5E2pHYyHbZUBLz3v6znIh5h8J293vz8Z/o4hl7q5l8xbnn3N8PgVDEDf5xhGGmPSB9EnCnMdH3BTLx+qtJY8M7GALPdIW2s7dnuKPaZNJvIUX5C1MM5YCM8gu3ZLumyPEj98O6VG8puomlB5S6JFZmQy5/T/H7hXiultCvOmr0O0nzzWeSy/1nchzwQciR3fpQI6zh6q9eL30fOmYUmr1TSnN7PO5L4qkS3XmfseGKX/uyd6d53N1f6L++S7xCgtpFzKVG1bOdfs3Gs8p7hoq7//0aCxUewFk6fnSMeYfCUXs1wjE/FPjsfXRyXOmuv69c7gmiogvn39I6Z/niRT3CGDitR41E3RU2wUyWxDiyhc68Pgz68SfJw1qL3ljAipWuY54jG+HEH8c0sO3Qzr8cUg/BTkEocSrqvnbXPEUrzovv9vl/X/TIXlkiJCQLXp1uZIXtiRpgczoVWf4L/vmfe93xlru6ZAoJtIBH6rvlQUGkPPYc8eu/dEEktoZs9+FL91X2cV4a5zyU1uhR7/OPMNA+eOOKx1StqX6F39GcXMM2l+MzShPip10SG8PT4leE8IrQ/k7moe3pF8cqtr1tzbfX9MT9aEttdH+z7f0QvuH11R9nQiZ3Ob/ZgcTlndr3f3LfRsEsCkvDPZkaHLVC80pk2vPBlyRd4S1TcjQFndycfeYtlgws2/izrKU0SRe67FuPNDiWMkZi1HVLp7uw+dSHPAYwSf4DDnXlhcl6NAxkQ6NQYUl9/fERbqs8Yef54yXfsULOs/a6mtQX88p1fOB0Q77uTDEtXx4SW8/0XLcYu6Yv474EfMPw+S57nsyVv7F/HPMQdqL+We+RkmEND557tziJt9u5h8iXFyzYA5r/ZaCluvMiRLTU/f12kRjUa27pFjUMq5rXcg3/XLINOchx5qrc2wWk3bM4Y/uQscePPK6LPObbVV1AClzxCV9yLYfpipbnr/wvu+J2M8fh3T4dkgPP+bymVASIRLElIjWjGB4npIOZCxb+ZxBkkDEZn4octfqLwlQU2bgb9ExkmMyJwlyJqsirhK7ODfD2aEnCeIIEgyspP3iu8JLns8+inGntr/Et9aW3sVxCX9BXstW2YZvrfGa+cO6gQP6j7ZEiOsfk3hPr4eJJJcL+PtrJs3lOCkZLBaFCL+kl4fX9M6k+PU798xykiBPerb4QZ888RqkLE/mxvmW/DFmLqiMvnJhKvI8ic4m1yJg74z8oHYQxN6kj0mZvq/u/RvZm9nQCxQWkceUCnkzYh/qYVL5y0N9p5sWreGiqQLEgl1h/70uBvViiD7AFmP6WyeuHFPrpgLffPCOl/YHi/DS2BUU88N8DdbEVT/tmAjs6Drla7e6efaR3p6r21/Z/ogQx/zTmVvECDavVX1NUh/jGhSqmrtNG9zDm88x/9TzDc0ncj7S13vMP8d543Lzj7wMpptzZi3imDOlpnP3dW6QPjon80df39Q+Wis81+RQBus9ajoOFvlb+ahyPus2CGjvSfPQnwbYGUO5Nku73CfPdSTzeLw5XvkvfgizOq/iki4AB4pp90+Iv/89kWH5mrQkDJl8KGJiPskbkUKCYiBj2ZqRnA6Bk35jv0We0E7bpgwTKv1UVPbN+464NHHXcVmxa5xJZqQHhLgigezfMA6BrfZvFnM6JCK/lR3qrzDzxAXdOl6c19vWeFnnLcy0Pn2cCXFV1KakC2R5wWO/kmFCnIkvk+DpadBUNE+E+Pg0CDpoWy9+P9PzwyEdDvZ/j2oSlnr0fp5I5YQo943JcTZZa4Wdu46YBAuZ4gWsEERDV+uUxw/07cl6FkjSQzpaC2mOS90A0LHiWMcqF3CPHizwdCdc49jyDzhUWwcRMIt+1c8TF+xCVvqNNrltjZfpj0VypLKT9u1rsLqW+WZXuYkFO6oorK9bCC3dchEa84/riUYrf6z8ywWhMc+NRqhlw+rXk435x0JsOmde7zH/MGCyZhAYbjL/CP2pRYg9c+Z6dYuZG8ZaUF17KndkVNjHHNEjn00Z1o+3rSpySAa89ge1BHzFtukPBLxb+G/MhxlHrg1ndYYjrsoFloeeXRNi+l6Yngx/F0RIkwOLZJjEZUAKs96BjGVLEyzt3+jY1Kni7cnkNn5luEkoB3Hlp6bitePyBFS8fm35oHH26AFeo6fBMi74I+PTtmc4K+Jb2hUWnrjQd2iTx83SSTpmJP6cJ8TqNaG6QJ4u+XwOrxVhi35ysaqeCsvFjZ8ooW+1lU+jqinm5INWQbb0vHSg1TcvYpJw67u5Uslgv2XD6kays8WJBaVPLRkS7emgNiyCciuJn7loqQXco6c8kV1w08PCxCwopGBrkVPnPXFB7dAmC7awpvNYRKET9iXWaDt5W12bRy3V9S6v5aNISqpv1UfKLdq3i1BLd8w/07Wq84Tgltc6rtPeNd8bIisXW/KtfNY+9Xzp6aA2xCO38prAdVIV+jH/mEPWwprO67wCrhJrU+mSk2oOQdfqer/o/AMPaGvPRXreQ4/KZ5xcYWuNkR4LXO9lbFS+azfQv7pGlJBHJnfhdVLeAPesf55rWbrU8wfxyzmhFxvpRR+NGeKAPXkdeOKSPmdyLUj/rgkxkQjXE2LxGi/1MYmLIkIgOdV2IGMSnRbxUqS2siPaTJ2infq5ZVrEeBCX+STV4YPG2aPHS4hbeOH8EJPWuCgsLD06LthsnUc7tpZOagMhBsGn7ewJtsIdOuU2PyEGseWrW0/2UzFak9ZKRi5i1aI3J8SzJ09yRllrX5Gbonbp+dKxfxe0ulsr+yzdb/ln6RksguiChYAWj9mi0dPh9MWKHYtLXnyceqo+cP6EreVPpaYVszpv6Wn5aMlWNulA6S/tjI8em6xTLK5F/pyd6to8Kmpey0cRRYgbxaOUd+3beip/Er+xon6LoJKJ+ef4uYIL94aQ81rNvVv5rFTH/KMAaeGmzltzSsw/T0m+bWa+3qzg9h/ac9FFCbFnLVB5QvG18mLUBmx6/SEjt3ptsnJVynueIEv5pf7Ivq39itwyzpL8Ur/FcQlj8Fmu47snxEQEht8QX5EQg+SMnnhKQiP3W+RpqQzkTX2KBEIWW7OPImaWjCaIlgxslC0T1VPxgp5sWzzBxvmybcWs7Fs+67igs3Ue7dhaOqmNzp9CgKEX2zEh5ie7PdLsKkgbC46YVOjdmzVemcbkVO4GwoaxmOSm1nn0o21HxrqrK7u69zs2tI5mjFqQj2my1wtAV4ezOLaeLliLT+8pEblY9WnE4Dk9XJwbGOt+w7iEM57xb2Jt+ANZ3L0Wps7cna7l+set1PXdIM3Tj88cb4plQqpI6nLn7DmhIrv8CrcufiuZmH+ab4osGhMjF1v9kaOzObbRIeYfBqaBccw//A3xRecfmaz2XJT076XkLmrOXKlusWoMXGdYC3KeNN6cyE9MxWvBuBnVu0Y9MhIl2tdro85dLb+EEJ/iz8yePqEIMDCV5JW65DjETehhXLCj9OP0TRDiTAQGvzINskDbFnHJr/Qq8iz70X5PZkZ0mHTp72ZJD4iy1SZtznQqIkqyHhnoJP8tm7244GuPrFk+aJw9etZ6Qozvvb+q8ZQ/qpX9U6RZ4+OJC9jqeHFeby2dJNM6r/uPjseEmBcK8Z3fVAyLX4h2FaT4Xhh3eTFtrL9tkas8EYoJD5Zb8minbVOmUeDIvt79JYsBJnUsdr8ZcRW7LXI78J0WPuvXmUd6aSGR5HuoZ/Atc7Hn2AGGcrGjc8AJi7P0D320jCbxOq7szgBDuNwcLzU2kKPiRtuHrnO2+dot1zIXdvT5grjhNV3fR/JrFoVcuMp++bXDU35US9im2Cqyi1cZi894Yix8jvln/vbHCUkyuw46OpCnuGZi/pnAAoYx/9jJs6/5R/rYIsQ835T5x54zpaaT99VaAIJMPzQp1yutXxNUas952KsJnDKWLV0TDHMev6mygT/av9kxY4obCrmd12yJKeYzueZ64iJ9mTir3z6h87dDiJkoev4OcZO4MIGVr6zOnlR2ZDKhUd/atkgkyKFFTtEm/cA+vpM9Vcayl4e5Exe1m/YE2bTInIXzSM9qhJjzIRN9MSbAD6QSpBj4any8cZE+K17YMePWr7Dz02n4UrYCZ+jrbceEmF4Xxp9Qmn6RuvyZJhSyzoKUJgn84mz+ZVl8Rww9ebY6/3/2nb1D+vPhkL480jRV/zed79u1dfZfV+prnLdiYpXfxtC+nLhLL0z0fLe4FGDqPHSV9qJg2sGkDzm5IJBEJrPqjjSKYCzY5Zg66EWd7XX1NPpw18WbUUzwGzHrBR7tnriwkFaylsdqXOR4QEf2h4oGJ8m2zIzPceHH1x69gpivSXUNTqSYf4Fe/+p8MSKKw6yv/vVqiOGar59MU6tdhNaE+F7mHy6cxBMc4NOaW9BO25YMcmeYf1JZYz/mnwYwC0/H/NMDbE/zT6Memc1lPp97UXvbcD2XtcB4IlvpMtbOSodau1FLeGSwDpZ1slWLgFwLW7qOIJ97NYDLnyrwxgGvndJnudail2XPmkNH1zLarXhvjhDrwviSxxZ5uqT9sFWTopvCo/U2AZ9v3VixY8QUca9b7zjfa/wR15YI5AVxcOd7qX0s1tYCvVRXyAcCgcD9IhDzz/2ObUR22wgEIVZPnmwCMhXoQYi9RCXkZnnUIMR4sqyfbM/6V3l625PO2Htv/ow1hUQgIBEAcbXuDku53n4uaOVTQ77jjzv5vb7RFggEAp8XgZh/Pu/YR+T7R4Aqzyv+8xa++5ALQnzuOKydauf6c+H+jVeml5Fh8vle/y0dj/VxQMEiX9+x9uNJYBv7PWIoXy21XsdqR2O34LUr5MY5BNu2EGcDgUDgXhCI+edeRjLiuGcErlxdLy2AQ77/5HBNfO457SO2/SFwSu7uL4rwKBAIBAKBQCAQCAQCgUDgthCgKvSK/04pgj9LnysOS5gOBDZFYK1reFMnQ3kgEAgEAoFAIBAIBAKBwCdAIAhx9W3mWoV66FnnSfYnuAI/RYhbXQ+fArwIMhAIBAKBQCAQCAQCgUBgQwTunBADua0K8tC7DvFdC0eMd2wvj8BaY7hEz+WjDIuBQCAQCAQCgUAgEAgEAveFAFWfO/m3pBBe6vZS3SG/L6J77njsJMV368a5+F6r/24BDccCgUAgEAgEAoFAIBAIBG4EAapkP8G/yxXsN/lL1PrXj1/beOHPBH3tyNwXmW5jEXHW2Fw+N6yp6yO9PTylp8d3q3H35/DrxfRLyPi15vhzPsdh+8z43GLsW/j888cf6fDHj/TzmBaxFwgEAoFAIBAInIUAVbSf4F9duG9JZNyEmP8u7e/vHd88Mit/Az3yH6Tn17eO3yOfrhDXlmN+97qd47VKboxyp2q3pq4rEOKfb+nl8JRev1v+LDuX/zzHQ0r/pZQkmai08N+9xZ/8OZkw36AeFz4VWFc+uHBu4CYKcuML51KFgmPcXXpSSr8dUoIt689ZrT9e7+nx27d0o/e7qmGIg0AgEAgEAoH9IBCEuCqwzyB5rGdEKAt58pAMj8y1/D/H7hXiKrif4/dn7bvb8bIm0tsmxEQwQHAzIVaEBkSl/N3b7xMhKccWJMa5W9UzwscI9bqnViTEo9gxpvJvZGfC+niEADIlX4z8gUxPD/6uKsnI/aOlaW/ks5YfHr//nQ7f/k4r3HsamgqBQCAQCAQCgc+DQBDiM0nO47dDehRPeYMQO24q7JZgOXw/M19ukpjvdrysifqGCTE/uQNZIaIBcpwj5fbqHAiJID0WKtW5W9UzwqcKcicHaxFiR+ySfCL6TFaRG85xH+qBct5m0q1u3OQmh89K1eDwIz3/8S09/Pio5T5+pIdvf6RndboWiqNAIBAIBAKBQKCNQBDiUwnOxyE9fDukwx+H9FPoACHG66Nfnw7p68sh/Y9lqvPUpv77Nx2SR4aIFdmiV5creWFLki/IjF51hv+yb973fmes5Z4OiWIiHfBBx4xjyHnsuWPX/uhvn6mdMftdjEX3VXYx3hqnf1/rMf3roybZMwyUP564PDIeDOF7y+eZrwIfGrMyXiOMW+N/QuzwedpaE9uREH88v6Snw9P038Nb0vVy1U5y1nuY31+POrKu14Svk2f9YUvJWV6ecs56ckePyvIrqyA9DsX3qmcc+pQbL88fqRq7U3KD8iL3e0+vYtzx2nylX7RP+XjMobHPfolMTGUeqKe/3nEf6ak8apDsSmatgw7xzd8Vx6vUayEdegKBQCAQ+HQIBCHukJu6+D4Sm58/Dunw7ZAefhzPQTYTSiIOgpgS0ZoRUc9Tt4GMZSufU0SDfAO5mfmh4m/1R3y0bcoM/C06RnJMsArhSoeUyaqIq8Quzs1wduhJgsyBBAMrab/4rvCS57OPYtwzVuJba0vvKXGtFjtw7fic4xuNl8CklRtrxS7xtmdrJsREQgrRmUgLESH8mwiLJCZMbCQp9j7d88rB+Inb6mkfvjF+5FdWJREa6L9XPYOwU0pWbhxvoKC/KzfEjZKaBMucSildKDfId3xz/gU5cUgJbxtQu3fcR3qAU94q0l21rXzw/e9v/R/Tyq9Tf0uHv3HLamUHQl0gEAgEAoHA3SIQhFgU83WxPSe71P7974kMy9ekZb9MCBTByE/gBHHL8h6SMZCxbFnEQ/o32m8RGtmvKcPkUj8VlX3zviMuTdx1XFbsGmeSGekBIQYZlv4N4xC5o/2bxczks7JD/RVm3rjkDReydUrsHp8lHjPfRfyIt5UbRPxn/U+IHXamrTUvM8EpZHiSeX+UT4An8gsiU7RkkvOS3vDztfq4CKqdLun5mZ4fDulwsP979H4MqV4/pad4IDu0r1+jVh4eD+9VzzHCzp6dGzUBXpIb6ofUch6I/CFPLpEbIuJMevmHrqqcWDjuTT3CFu3iqbP1g1pK9MxD549p5afIA+J8pifRPRAIBAKBQOD+EAhCbBT1ddF9JMb0vTA9Gf7e6WMRAk1Wsv4BKfTIWLY0wWrF0jpv6lTx9mRyG79a2ySUg9jzU1P1eq5+rdryQePs0QO8Rk+DZVzwRcanbc/wVeSvtCssPHF5ZDyxD33GuCsfi+9oF1vLN2As8co6lF6rb99Ha0KeP/EjqYoQt4jujLywrvzKqyI60vSsn2xcaZ8JzZ/fU/rlkFL5wSNFdIbW7lXPMHASsHMjyXyQ+1KnHuMsp54GS3ns6344v/ZWvToPolpIsXfcR3qU33iaXPJRta91OL0S7f0xrYk8x49vrYV+6AkEAoFA4P4RCEIsivleoY821xNi9TTYLOoVGYD+ajuQsQhEk3w44zR1qr5umRYxHsRlPk10+KBx9ugBXiNCXI2L8oXahphcgRDPnsgqv4c+Q34wXhIbU+eKsUtb9vRsk57TCDEsDIjxJUgPiIr68SIQHzchuVc9GKru1s6NmyfETHYL+WUM8lNe5Itn3D16FL6VDdW23mHjx7QsA/GE2EIlzgUCgUAgEAgMEAhCjKJ/wXb4DfEVCbH7NdhGvCahUbIeGRAXU3ZAsMw+Dh80IfboWYsQZ9vyh6aUv6kVM5NFEHLLZ09cHhmMCbZDnxFDy3e0i63l/5qxw/dpa81uNumpCHGLwA6f+tm6L/JaLJ7w4XVuDn3R69LU5171WKkwO2ePX/XKtDc3hrnCxlv6cvM6r9Pjpoh+bbkiq45xd+lRmM5+gEu1r3LY+TGtSn98Q1zBEQeBQCAQCAR9zP4VAAAgAElEQVQCfgSCEItivi62j69Km+cHvzIt+2iygrb8Wqsiz2jDticzIx9MXPR3s6QLRNlqgy3aznQa+HhkoJP8t2z24oKvvSeclg8aZ4+etQgxSN9XNZ5/iR/VsgioxscTl0fGFTvnS89nOY5aDm1ya/lG7WvFLm3Z05xNeipCjFeoD/KV1/kPb831t2Sm8+avVM+VnHwmExzx41kV4ZFa8TRQvlot2m9Wj4jhtF0jN5iwyh9cy7kyyg0vIU4XyA0eb/mEGOQW35kTXsNxd+op2DPJljZK24o7+ce0Bj+UFb8yvSLgoSoQCAQCgU+IQBBig/DVRXefGHv+DrEmakU/CIn4XhZPCj0ymXyIvvRta4tEgiBZ5BRt+DZWbvHd56kylr0c2yB2054gmxbxsnAe6VmNEHMeZaIvxgT4YTxBDIGxxscTl0eG7A1jd/o8Gi/TjvG6/BqxA8dpa83YBukBAZa/II1z4k/iSFJEmqcnh/xnm1hOyxQPmFiVP/NUEaoidfZOfiLHP5pEvyZs/hsQYupzk3rMYJec5NwQY07jNftxNUduTK9ZyxsqHT8ukBsgwPlPcHF+WK/Rj8Z9qIdJsLRT9lv52IFm3OT4MS3vE+SxsZAIBAKBQCAQ+KQIBCE+kxDXBXqfPK8taxGjtW2EvsuOaeC9BO9POmtH2CciYN8sOVFZdLsAAst+TOsCDoWJQCAQCAQCgbtEIAhxEOIUJGwJCQvZ6+fLXc7FEdTmCAQh3hziVQ0s+DGtVe2GskAgEAgEAoHPhkAQ4iDEQYhvOAeuT04vfYPgs03REe96CAQhXg/L0BQIBAKBQCAQCNwPAkGIgwwFIY4cuJEcuJ+JNyIJBAKBQCAQCAQCgUAgENgHAkGIgwzdCBm69JPIsLevp8/7mDDDi0AgEAgEAoFAIBAIBAKB+0LgkxDiLQYtCNO+CFOMx/2MxxbXa+gMBAKBQCAQCAQCgUAgEAgE5ggEIZ5jEmcuikAQ2fshsqeO5UUTLowFAoFAIBAIBAKBQCAQCAQCBYEgxAWK2Nk/AqcSruh3fdK9/+wKDwOBQCAQCAQCgUAgEAgEPh8Cd0mI898u/ONH+pnH8yP99fKUvr6+39bovr+mr09Px/86/v/v7WWS68jcVvBLvd0X4f3f2yF9fTr+9/t77V9pf63PX5+0tvxZOh4hHwgEAoFAIBAIBAKBQCAQCNwGAlQB39m/9/T47Vt6LPx3ASH+eEu/Pj2l30tfAxqPjNHt9FNj/0GIf337OMOMI/bTtX+envlGxkv6qzMUq4zX50E0Ig0EAoFAIBAIBAKBQCAQCAQ2Q+D+CPH73+nw7e/0vUA2JpRHUQcp3CEhLv6fs3PxuM5xdr99/319Sl9f3tL/9utieBYIBAKBQCAQCAQCgUAgEAgEAozAjRFi/fRXj+NHev7jW3r4IR/PBSHWKJnHQYhNWJaezIR461fXP36kh29/pGeZ5ksdDflAIBAIBAKBQCAQCAQCgUAgEMh/hPc2YMgk4Fs6lG+DDbdNonAkxHhVNX+bK57iVefld7t5/zX9m1LyyKQ02aJXlyt5YUt6DZn+q85H/2XfvO/9zljLPU0xkQ74UH2vXDA4yo3tLYhd+6MJJLVnzN7T78WXwavsM3COJzJJLXrmrzPPMKj8WRBXSqlLiEdxs8u1v8fvyGWe5O/kq08DjvHGXiAQCAQCgUAgEAgEAoFAIBAI+BC4iSfEKP7rJ7/zAL//bRFmJpREiAoxnYiWJBhZm+cpaVfGssXnKpI1+Q4iNvOjCq3d/yjWken6e9SQRnKZzEmCzGS1xCViL+cMnId6UkqCOOJ77gkraV/43txlH8u4k+BH+uvt+JH4XO8JcQl/ZzcWKttwtD1eM39YN3CAhrzNnwd8S4e/j/FU7XEQCAQCgUAgEAgEAoFAIBAIBAJdBHZPiDPJdT0Ja71OzeRDERPzSd6IFBKUXRnb1ozkdIdEN7bJ01GyI5MJ1fyp6LEv7zni0sS9jsuOvcZ5kunrORLiigRm/xxxiMBq/0RD2Z3Ib2WH2irMPHEVhf0nxEWsNV7WeRuzoyp6fdq6EVQkYicQCAQCgUAgEAgEAoFAIBAIBBoI7JgQTwS3/oGsRhQppekpsvwxLchaJKPxamuXFLK+roxtqyZY8Mu7beisuvdkuC2/MtwhlN24+Klpee34+Brv1/L6te1DTYg9ekBIR0+DZVzwp46vtl0BNh1UxFe0V1h44jr2HdrMorZOapqR+N4T4mJ22bVSusVOIBAIBAKBQCAQCAQCgUAg8MkR2DEhnkbG94TY+jEtjKxNPkziUhEh9Ffbroxt67qEGP6zby1i3I2r8SQVqvPWjr3G2aPHS4gr48aB7U8luFtCDII/bWdPsGUQnm/rpXzsBwKBQCAQCAQCgUAgEAgEAoFAQWD3hJg8HX5DbP6YFmK0iVFN1Fi2Swo9Mrat2VM/uOba2jrrrh4Z9GjIdmNv9IHKvLVlapxtmUoNHWSiOnpCPOs1O5FtlyfYs+b26++VfdvnOq6j7tb5owTt2TpxvkuApaL4hliiEfuBQCAQCAQCgUAgEAgEAoHAYgRughDnqDpPwvJT5OYPC9nkwyYu/Epv+VEoC8+ejGGLiab+bpY0T0T5KVltR8uGzmMj73lk0Gnyf26zF9fR1zZZs33QOCPmtp71CDG+9/5ajWf9o1rZv4o0a3x8cQFdHS/O11tbJwhx7W/dE0e4SfQYv6cFSGIbCAQCgUAgEAgEAoFAIBAILEbgdghxDs364SzrnMTBJh9N4sIE9vhrwcaTyqYM21Lf2rbIH8jhnJweCejRD7xGe/xOFv2Xylj2MmLNuCY8TXuFbPpx7utZkRBzzsg/3fT16YgfsmQixcBX36Dwx0X6mnklboD0xmt6On70pcgWnOkBc/wdYoxdbAOBQCAQCAQCgUAgEAgEAoFzELgxQjwPtf1jWnPZ7c/Y5Gl7u2HhLhBovU3A51s3Vu4i9ggiEAgEAoFAIBAIBAKBQCAQuAICN06Iez+mdQU0m9+GXsOXsHlzCDQI8fREff5k++biC4cDgUAgEAgEAoFAIBAIBAKBnSFw44R4Z2gGId7bgNyeP/xnlsqr0q1fBb+9yMLjQCAQCAQCgUAgEAgEAoFAYHcIBCHe3ZCEQ4FAIBAIBAKBQCAQCAQCgUAgEAgEApdAIAjxJVAOG4FAIBAIBAKBQCAQCAQCgUAgEAgEArtDIAjx7oYkHAoEAoFAIBAIBAKBQCAQCAQCgUAgELgEAkGIL4Fy2AgEAoFAIBAIBAKBQCAQCAQCgUAgENgdAkGIdzck4VAgEAgEAoFAIBAIBAKBQCAQCAQCgcAlELgrQjz9eZqnhF/oLX+3Vf9y7+v7JbC9Sxv/PKb05ZDSnz9T+u952v/leRDqz5R+OaT02/eB3DWbL+jjSRgOsHl/fEpPj9fN64/nl/R08Ptxjs9bYDiAeNXm3w7TtUPXEv33z6raQ9naCNzseF1wXlsb893ouxMMb33O3E0+hCOBQCBwlwjcDyHOpHf0t1o/0l8vT+lrEOKTk/nPh5S+PKT0X0pJLrBdhd+PJLort1GjLmZNEnJBH0/CcIDNOeRyoNrdDEL88vzh6nOOz0MMuYjFWJfto3JNybVu7sgcoptBJ/9jey07We/AJ1x3iGl2o0n1h9wXHfvJQZzWcYQhbrAVf3meOc1aSkngMMMopTTyR45Fa7zW8tmlR8RDGLV8qvDacF4b5iHbLuNp3RRVMRVZnatKlzWeq/hTgccHJ2LoGdOhz2KdBTZW7DLXW7kxnDOt2ONcIBAIBAKfBIG7IcT/vj6lry9v6X/dgQtC3IXH0UhFJAqxvJg7ilYUBld5CsYF14jEXNLHUzAcDc055HKke6v2c3weYshFbC/nMOalwOQ+5TillItIfoIr90/FZHTNoEBu+Z3bBVkw5R2xn+r/Kf0kbnJf6sJYyLgzYRWxSnnPfu7PT+Dl9S99kPuWzt54reWzRw9kSm4auWr5j34SV0tu6TlXHiqlyFU5FsmRq+hXYuA+Us9q/iif6fAUDK0+Op89PntkYGuUG8M504g9TgUCgUAg8FkQuDFC/J4ev31L1puhmRAPn/wGIT4rsZlcYuGlYhLkuKdXL+o92bXbUCyUYqphIBfGZxTfDbXz0ydiOFdUnzmHXNaaLnd0ss8ODPO4927WsA6dv708yAVtT6cDup7+fJ0s1W8Qo2HsDj+3EmlhKIt12O5hBZnWFlj+w591tK7/lj/Q2/NhLZ+Hek7IVfh/sbnXyEP4ULYGkR3mKscuyS/pI8ywDhX9cudEf6QK7J+C4XBMoVxuF/hcYvfmBsuhH+W1nvukK+b+x4/08O2P5HwByFQRJwOBQCAQ2CsCt0OI82T8LR3++EFvB83+rUGI9TfI8tXqnv7cb/h0Gi5/pLeHp0SvleIV0/zd5cNb0i+aVu3628zvr+mJ+tCW2mj/51t6of3Da6q+JoVMbvN/4wmPl25zEam+kdSLby4yhIxsp/60cEOG2kBs8bo2fNK2sOCjPetwkAyrgIEObHu2qE3GgD54lU37VdpP3dFjqvMjpTq/jHaYzsQUuXF4SW/GBYZcNF+H1r5Yd6zImJbr+ATfTt3mserc4EA+VUSJC1Lz1eJG4Vn843a81qjzFHLNQp7768If/Zpbg2SMYm/qMhpwDSKuXo5DphU7rgVLB+FS4e4hB4a/+ZTApIvFaEwHxGstn0d6luRqjlfMq9brs64xbWHbOi8wb4lYcXTHB09njfmbMLPyqNg+0R/qvwaGozEtfsodh894oo55wsIUMtX1JO2csf/zxx/p0HgocYba6BoIBAKBwNURuAlCjEn44YeijPrHsp6OP6hlvz7dfkI8keHX9G8Zkvf0O+njp869V7J7ZLmoKzsTIa5/fOg9vR4mklzEvr9m0lyOk5IBuShE+CW9PLymdybFr/gBqywnCfKkZ6sfYJoVAkZROSuCVCGQix0mmFjwc5HNciAx2hZk0U7YzWwdAT3ucWHcI60jW9Ru9lexHY2esZfHtCau+mnrRGBH4865UN2M+Uhvz9XtlOxolxCXUDi3LULs8LmoWWEnj5ckBooc67zIJOGxky88jtYYI++qtu/HfLAK7EIe+XVs3Lj5jb7RF36j8G1BknUrwjCKvaVLn9cYodCWPo1ir3R2MCwkDWPQup4qhcaBupYJiyZxavjjGS+yvJbPIz16HLI8cBJ5ncddHJOPdE7mpdZljamB6vBU1qvysOrUwHqUqzlWQ6+Oq7KFed/oV+R6/qyA4WhMix9iZ4ihEZcez1ZuCDPn777/nUnx4e/5OnG+8tAQCAQCgcB1ENg9If7+9zfXHUkfKW0R4on8ll+lxliIH+qqngJ/vKVfn/ADXpPOX98UWYeO2ZZJQ0VCUtKEZtYtKRkmxJn4Mgment5NJGcixMen0VJfTZZ+pueHQzoc7P8eQaylgsa+Wbxw4YEiOhfQqlBBUZ2JLBe0eMqEwoLaZF/TliqGyc1ZwUVkQ9kfFYUeW7JAoyIFRXgVWwO3ZaftMa3zR+aA0K5IaZ0HQu7k3RYh9vi8Xh7O3EdOodBVeSLHjvYxdlIPxhF5XNqUrnLe2IEOecMGYrmw5V9vxzkz79CI60H1Ec3Tro59JmCfkNcaJGb+L4iddKD/DEM2AAysp5rwYbStCMLAv5E/aLfGC36s4TPpaupRMbRy1cyVpXMvglq4BU6zcUXu8Q0eScxNE5DHddrImRxrJ+9P9WdtDJtjagTf9FnIzmScuSFUrLc7eGNvPUOhKRAIBAKByyCwY0I8fS98+PY38ZXhv7MIsSC+laFMfJ9SJspZZnqCjFerJxJ8IiFWT9FqQjN5kc+VV1npVWjxurMkN9VTYUmG+Amg1pGP5dPDKuqTD2SxBiVYxFFUkox8AoZ9tOO1ShRPkqDkgoWKJVUIwNbsPMvNCrXSYdrRPlbNTlvkZ7ZDTwbpT1NxUVd8rpSecVCN9VFPlT8yN44iKam+VR8pd/J+gxAru1C/vn1onm9RROc8Q158n/4cWCv3pJaqv2jI5/UNFtEud3uy1rWDGzXFP6EMOTvKbepi+Y5zuP5oK3UNr1Podcbe8iOHxMQN1wxi0zcmRj6jveClCKGAL+/O5JVAbm/Ft5LPGONm7M5ctfIHOAIPz5gSBMCllRsSJtiQuSPbyz7HgTjLebUD2/CZmnEO/vzCb1FIGag5x5/VMHTmxhKfzbicuQE762+X1Wjr2w+NgUAgEAish8COCfEU5EWeEHsIsXgq/O/rS/rr/S39mr8bbjxdbo6RTRo0OcjH6lvgSkaSnopwzAlxeX266dMKDVic1fen+S45ikqWAdm1rOaFX8mj2CJduW+r0FXnUURYhZO0nX0UTyVkGwpW+FDapC2Oi+yQrn+ojWOwiqyi45SdaqyPCpq5cRRRhNjOQym+fL+h0+PzcmOLelTkhscOYwRFvXyp8hgd8GSvlTtCjnabeda4Llr+tM4rc+Wwir2c7ew0/NE9mvFoQT42MWRbmvyasg29+bS8HlluhNPIRjO+tXz26PHkKuvRc1QVH8v05t4evFbbCF/dp/JHN/KxJ1dJj84X6n6WP2th6BlTEbvH56aMJzeErVV34wnxqnCGskAgELg+ArsnxARR8xtigd9ZT4jlk2ChM4mnwikR8aXXpN/T75kI05NhPi6vT8vOrX2bNFSEhr8X1t/5VjIuQmzbqj1b6VXVTkFango4irJcEIFgsM5MaGXBYtiimHQB6ymu0M8qsDJOHlvsGxHhrEcc01ONESGvx2N0NN3wqH/cit8EwFsHDQI6/ajV8c2AnE/qpsvIer+9lW8On9NKeWg5yONRxljmkpCnmxdFRpyn3fx0DXkp2nTOiabZbvPmCPujyYqlO+f0kpzSsc+8Mk40/NGSln9aRh5bGKLY75I5qaSxn31pvH2SnywaY2f5I9W3xmstn116PLlqzFHQvWTulbGP9hfnIV9Dresr23PkKuLSc+rZ/qyEIfzz5LPH566MJzdGA3lKe3xDfApq0ScQCAR2jsBNEOKM4eCO5FmEOKWU+z/Nf1Tr+G0wvxr98pJwbvqu+CX9WvUbjbhNGiqym1hGfGc8kZelr0wff2l486fEuojmAoNeb5NFUC5C8QTYgIoKW8jnYgCFLOuT5BhypMYqHLwFu5ajoqboNoq0mS32TZLfHGeHYBmhu0/lXCi5wWRYvk6P780rsmuQUibO9Y2XbX5Uy+OzG4Algjx+hRhwXz3m+biVlzq3hX3kgiyA6Zwu2JtvGjT8gV6pJ59r+Sh8KruN2Et7Z2d0nVJX+DiMnYRbGGKeeD46A1KhbxAcJXx7FEO5jnWXlj+QY79kbGjCWErdJ/nsjH2YqzoW6BVzKfnuGdMSY2dncR56bDtyNeNg3AxaxZ+1MAT2g3z2+OyRGeZGZxxPacLDCdx7PUVH9AkEAoFAYI8I3A4hzuid9neI8c3vV/kr1HkfP4w1Dc1Eio+/VA3ii4Gb2kUffrJs/6I1eumthxBTAYk/oTR9O1z+TBNWItcT4sk2fiE4f4OM74mhR7t3xjGKwvxERrwyLAtHUg+ymOX4qQ4Kf2pDEUqLPfpm3ZIMcOFRdMg2jqFbEMs4tS6QcMjodm0L7aJfLlS0HPSdveUc4rGkmx15jNWYlpsoLFc/VYYTglBnufrXqyGFHLJ0oK3Kr5kun8+wd/IWYyGeFiKftM4qD8XYZTkU6EJPyTUlmwtXIWcROVwbyHPtCx33/EH/4oOwh2sERE3KtGK37OtzlT9sT/vfjd2JoRWbtqN9Gx5rgkMdnP6QKHxq+YF2iXVLtuerV081Fir/pL/ZH553qE/JDXai0tMY06X+AoNiy7gGSxuUGzKzXFUyvesKPshtsan0kExpgz9izLOOMzAcjanVDr/hl0cGrldjauQG5M7e5ocS8XeIz8YxFAQCgcAuEbgxQrxLDMOpQCAQCAS6CHie9nQVRONFEYjxuijcYSwQCAQCgUAgELgqAkGIrwp/GN8PAnQp9P7bj6fhyW0hgKc91hOu24rkc3gb4/U5xjmiDAQCgUAgEAgEgEAQYiAR20+MQI8Io+0TwxOhn4QAvnmk1yFnr4OepDE6bYlAjNeW6IbuQCAQCAQCgUBgvwgEId7v2IRnmyAAgrt0u4kzoTQQCAQCgUAgEAgEAoFAIBAIBK6IQBDiIfhLiZMlPzQSApsgYI3Fqec2cTCUBgKBQCAQCAQCgUAgEAgEAoHAFREgdhD/ut+OnkqgLtHvMw/dJfCVNj4z1hF7IBAIBAKBQCAQCAQCgUAgcJ8IUMUf/26WEEvC5t3f+3B747i03N5xC/8CgUAgEAgEAoFAIBAIBAKBQGApAsQq4t+nIsSXJpL3Yi8uk0AgEAgEAoFAIBAIBAKBQCAQuDcEghDnEV2PtP31ckhfX9fT1/9TQCvZeT+kr0/iv47//3tjuY7MRXy++E2M5Zf+++NTenp8X97xk/fIfwOWf5kZfwLnl+fTQEH/L4+n9b/VXmtiCAz2kM8fzy/p6eC/rs7xeQsMgWVsPxcCvx1Sol+bx3//XDr8nyn9Mvq1e4/Mpf3ek72N8Ll6bqyI8a3OmWVdobXl8JRev9eglPYbq+eK34246ijto1sdUzua/tkgxBmflYhlOiQ3If44pF+fDun3945tj8zKxHDkPwjxr28dv0c+XSGu80l6/0KyWs8pxi19n+Vc/vM3Dyn9l1KSk7GMP8s4SC4I8amEGjbJ3rk6oOsSWw+GS/3YQz5jgX95/nC5f47Pq2HIhTTI0CyPVDvkrJs4sng+6095KZszn1zoppRW0INrtMTN177XBchhroCei/zdbxG/aY/bTXy/Hwly12clZ9oBCI0tMO4RcY+MHm/4XeWqwKS0080Ax3xtuq/0VViqtmLvBFuj/HHhgwCUX5XPSqbXVuLBzZQT4srmev6o/CKbp+QY2VltzgRGl9h+f01Ph5f09rNtbOm609Z0wRZHXB5vRmOa2428lOflujXLaZ7vPTK4Bisdhm13XKpvEOKM3BnkTpG/EaEsxMxDCj0yyn7Rf+J5t/8n6s/+XSGuc3HxXGBa5pxiXOv6TMc0MaJIyEWKUSBLmUtgQ/ZOLRIu4Z+2IfFpYaj7jI5vMZ/P8XkNDLGAl9zh4rMcE+h8rkdWcnFxSIlk5P5ozKx2FP49e1Y/fW4NPcBH+kK4LyVP2RdR3Kzhm47XOs6+MlmxblBkP4z5y9IFn6UenCv4cK5IGUuXPufxwyPjyVWXjHawcTyLX8s5rh3dxTrOdgb548JH3MQtY2YZhFwrN1aKi0wPMVT+QX5pjpGaNeZM5c7mh3mNeHhLvlusm7uzmoG14hqNqWyXzi897+k7uwb5Rg/qRaljtG/5F4Q4o3Y6IX78dkiP4imvm1B6SKFH5hxiavR1+2/0dZPOK8Tl9q0Z1+jymrefU4zPtX2SMzzBgTBQ8T+b7JTM5sicWIRu7lfLgMLHxLDVt3P+FvP5ZJ/XwJB16PzNhFYU35kUtgpjYzxoIf+yQF6qmBUUsnHB/lp6rKJE47PAraMoX7OYR44N6+0Bg3+epye9FgFaFIueZzh/NDEhzJbG5fHDI+PJVY+MZxSAL70p1Pq3lq2ZfiN/PPh4fIatnr614lriD/zCDQ2dd6W9tbPGnNnSveH5k9eIDX1aQ/UqcY3GVLUXv5eeLx2Pbx1ZcxxdM+Z6unQ9bPgXhDgPxAmE+OOQHr4d0uGPQ/opSBQIJV4tzt/mvhzS/1imOi+/2+X9f9MheWSI4JEtenW5khe2JAmEzOhVZ/gv++Z973fGWu7pkCgm0gEfqu+VBQaQ89hzx6790d8+Uztj9rvwZf4qu7xiG/v5FZXpG5T8naPxrSNevWm1Q3OezPi7j9brPNA1f330I709PCU6D5lsz7gLWrVrfyke6oO4aP/nW3rJfr2m6utoyMDnDb+1ycUCPy0DXnqbSQM/ubEmVsjngoHl8BoOCttcsKg2yGhCovVUkzZPvlRgVHLGJF61iyfl8LcsCFywwR/4DLlVtnpMdX6kVOeX0Q4/zstneopKr7WJa6uVX1qu4xN8O2vLY4txkHlh5inGTRDiXmE8843tVfklhHT+ZL9gS+Sh6GLuaj2VvQV6TOXiZL5O4R+dN4hIFu/gLNQdd1mPLuq7cR17j/eE/t74LSGvOl9apIh0VuMx9rY8uZPxax3Q25PpxQo3PDKQbW6dOea1JWOia0LHPvNDjC/ahvg4fZb6WmvTqXGder3DJ9rqPCxtS6/B0nH5zmi96NYtyV//kGdd4qjXk8a6U/t7XKfmtVkHC7KVa7T39CrWOv09s3ct7MbVcWNJUzNXjOuH9DblhdGejDWfeq8VYaLpRxDijNIyQvzzxyEdvh3Sw495v0woiVgJYkpEa0ZEPU9JBzKWrRahBRmd+SHIPBHRVv9MUlm2KTPwt+gYyTGJlQQ5k1VBZkvs4twMZ4eeJAgzSDCwkvblxWTu54mz/g5FT0jTJC6JJE981STL5yry+pHeniv6mV3AojCfdKcFIROIonvSW8l+f82k+RiPksFiUIjwS3p5eE3vTIrLRJ3lRnEdrZy7l4sbg0xCL7WDIPYmy9zW0SP1SaKD89jObOjFgI9/exSvgnJxIQuioR68kvZQP5FCoQZ/VtnuKp9lRJzbJa9Fm8NnIX32LhZuOYZE6HCsxzPn7SO/8ixIII1fIdS0L9pmTiKX1I++kFzWo/rK3MB18xvnD2xq0qj9BkmFnFfPzHfjRNbFMWe7xtPPEc6G2upbRrSP4oLccKuuXYkx9UUcwFdvMTdVdoxxBc76CSnZQ45VOloH7O8v4ukKMC2+eGSQYzJfVb6RCzkPBzItV3EesY9y1WPrlHHPfeTa4MDH47M3NzxxZRmFP50D2ff4A7zL1shDakO+VHkn5rrS/+ydcf0zrqMc9Q9qG7ZqoD0AABPDSURBVEE8yw3XqvZCQO11Z+YP6y71EVSMtsIn9LV1d2otoaPEgxjNuEZO9duRY3qOyvkirx9W05KXVpoynJtYh3IfNRdLPb39lo0gxBm1ObEt5E0Rxu9/T2RYviYtZTNRE2SY2v59NX55ekQKye5AxrJlkzl/fE2yK3BoyjC5/OtjYM8RlybuOi4rdo0zyYz0gBCDDOexZP/qOHqX1zRZVmRzdudxmugx0RVteQI7EunZBFgE/9/eGSPHzfNg2OdK48tkcg27SZ/Gk+pv03jcpncmZ3CT6qt9CP5DitCCEEhBu7K9u34KjygJBMGHFMV3KclbEnXwNgOgFeiex8ZGD+xVBE911HXx697W41/68eUm3dz4f9+cyb0XmxxbTHDkhLMd2erJg5N1PpR9yCRjPlgT3sAvkweZbMq+FTq5fJlgRPzoD9qI7xxGtB429v6+36ZN30i6DyhPb9Kflf/66//y6+2RmHfsh2s3YnNet/WwvWo+21eEgPSlZlIg7wnaCYiJQSbjOq+dGET6YcSPxBvZir8sHBfXmalDxJ/HKFKviO9sU+IVITKIT+LQ12pThrR1FY8yFoiN5F+019rXosWBbOtEsmFby559R2zEn2wlfmEhx/U2YqPta1r6xBxfr4/rvE5Zx7S7x11+FBox3BKzlNHtGyv1stdtMa/1l34Ujke4dfqh3HfErw5t73Q7b/C8R+472+Y/7X3NKzMfqz4XP8R6x/17Uc/zfFzPt+RgmXfJ/ND322PWr9d+90HpY/ZHv7LvjAvF3jku1c3bno13zeR7ae9eqX3adK8MBHEhtSLgqhjM7wvnleHfShxqMZzTnli0Qk2LrkaIWb8B4bj4F09RUWrLqvte/JE6ik3JXx89bgWlYrxSL/3osn28WlZtvTgt54gfEcTiV+qx3NpLSu3bFdN6qhmQjFCYc5u8TZ7ZaGvCG6T9R4NKefILomxl0NcxN3Hqm9KUXvwaWXzpXzK31qFvPxQUJpsWIuZUKpOK3iRAGY98lAG5+tA3BT3RkYFcT+5kgiXHIn4kz5tPTJq2PoBo+qbuGweTlEzeJo+2Ozrt921brrjfv/zJszshlULztk4y//d7+nc3c38wk1adRdLSL+c8ckJEgfO6QO4/zWRdreqIH7cfVyGkbXQ/lrScz6FE/GQ7qYf4yFvp76VKtWyZ0Mh1ouuxylmxyUnx0ZTjrVrWa1bXKxKz1GnOV+tgy5t92R8pTLzzrogSM1mU8oRhXuXN6bn8AGfxofPIWCJxR2zmWFXCzafO56RnI8ekXrZvRPuYKWpRVvajy5B0w0I56fUfibfJZ9p+S8zFX7RvOAxzWfo6yVWQ2CXGLfHMCJx+uDXW2dcRidXxOnTf8e8RPd+94234vs9ssxCkJUb7r5tqfpljla0I3VpSyTeaM22ba8Xq1dZy657XD7OPrcd1ub28cg3KNZy3x86FemUgiEtLKLHWEYoikEIrxOox3pzPCrXia0UURmw8USgCrytGV+rn+jR5wjY9YbxS9yxkhz8UBH94iPgRXuchiPuDrh4w1tO+HztAlv2bdgBubPTNpxE6S0G8WPleD/I4i4CgmB2bCct83CT0QCsTxNlk5CMYi/drZDN5Cfpp8swBvkGiaeuD/27fOJgYQez3Q22+Pd3xGYl5e2HdHF6bNsa139hH7SNtOJqAlnLtRLr2H9t3G9tOH2vi6dg09erYNH6aDJ2d6sdO6puYB6sFntduDJ2YPR/DY85Y0C1zY+y5XFt3L5ZsY5l5dvpY8WuEto07YqN9SnrUV7fYiG3ZdtrLxtzkqTtNPB0/Xr58bOR/lU+nrJ5Pz18vrnzcq9fJ13unwBKbGmO2xtpxGzjcGdt1Tj0n0ceb8d/309y/VN7ecWUyWCEWQXx4bzgvDhw1HwoK4qjvWL3aWm7a6/R5+TF4IVZ79rrQgc1u/XBQBoK4NEZcEGehuvoO8QcKYvtocRHWRtCOjoXFrqljz6frb0UQu3lMHTwb+8ODZ7OI03nPeGFTytZXrU1PArF9ZLr+mierrc2ArfKbQbAMYkakKutgMnJDMPFVz80gqm8+TfxaEPtltYHu94iOXdloy2n3epOR1uqwlwdcO9kc+hgMrAev/q+l3gRncQPRTuykyJzbd/fc+rOuXa+/BWJO+/XD1Ztz7Rt20tr7ZXquYc1n+6Gcz/llRVWOedeE9NvZttNXm3p0bOZycqJj0/hpMvg7Ep/lU/wcMRkv15NZOZ1L7sQ8nw8mSmydFceyamFEZ26rtWtaF73WN4SZrADqvKO059e2V8RmUUbl2uurxT5iYx132svGbLNJ35zj6fhZ5JOxtdd/OiteTTydshobVfCmvmEZDn6Y2XS9q3h00vaFXh10nr3Sq/OfZh6iSm3mUf49opnbqKy948pkIIinsqIitfVp9po6mHNl16+XZ5mP9eu1z32wOx45/bPE2DuuKzCw2XTNaJ82PSgDQVxgbRPERTCtfGVaiyor1ORceaR3RViObBaCrwpN+95sLk+EsndO4snbhU8jRKM24jPH75U5qpfEOlol9uK0nCN+dlkhlsFnfme3is38WIwIYrFpxK4zia8Dvs5X3l855qNaquzczdsBsg6uc8z1vI45JIgPv5DuclOwg5fZH058ja0dsPMHWuzHH+YsnQmNJzbmPPIo5hF+8yRjnrhF/NQVJJ1Hx7F3uvSVuW98dH/WtetPCiIxa0+npKUfakGXj2mxYieSZT/QV+ZJrQ2w10ft8XrD1x9Ryq5sPFIHHXOedNhVbRtGxI/Ns9iXGH8czsj1qkWkxDjiXGxGXIPX1yGSeMqKhznnYNI126jEGvfCfCDYlKs2afuGJ/4iNq3X+YeRbl/N9tXv0Mb6rfub+1inrDWuubjV/hPkE455S9/w6mXjkWvJ3FPC8ag28HhFrkHl4rRkYP5TxvnhPMq/R7Tzn0OYveMHi5zyffaPt7lDe6uCeNtcK1avUGSuUe+6KeO4Mx737LXzrs2Wa0Y7dNLSn/V9T8wQxIXEEYK4CsXI/yG2Qk3Eonw0S78nu3h0t4pcz6aIQvWvgrJNT0SKOPTEqZzTZUhaHr0+1sYrr9R/UK983i1P/XgQEcQRP3sJ4nlgrO+IZHFY3i3xRGm1yY/WtKvKclkqAVJszbsm1Wx6d8Xz4Q/eiwFSbj41nhxLE3NQEOdwJJbmXWJTd6ndKVuZGOr3SHLaFYoymairOvOk2hwXX/N5E6AMoGKnJ+zZtEwizMrRPNjWgXzezxnshKaWN/TTyWNC3XG39qGz6M+d/rW4NmIx7wVprV/kcpo2NSuI8mOL9Ku8XfTBTl8teZQ/EZPleJ2M5GvFXhfDeCqYxqb266b/rtUrCLiJuVNOdjXi7PkQnsO6D8oLht+9jnN+ictyK77rmCBx5q2N1fYNO+aEY7Rtleut+o34WbS5tXFiXvTViI0UGNg2MR0TTy2j8WPaXdpJt4WkdZssfNh4vLI6NlJmtG8sOKv+VWI99np32kvXWTfR6BrUdvuk1+c/ZS5T703LeVRw/lODXcyLVCXceY2975R5UvvIdJkHbZ3/BARxDs2NySlrVC9VxaOT9gcXcbT1uOTL217e4TWjHQTSpYw6Dsi1nre57yOIC8DjBfGE8GPye6LwI+O57rIDVxomEIAABCDw6QkUAeGsknx6MABYX5GG0eUQqIsKi4WNevw9npq7HFjnHymCuLTRxwjaUwUkgvg92+38L2YihAAEIACBjyUgqxmnrOp+bA0o/a0I0DfeiuwH+e0I4mkV13+y74MipdgAAQRxgfSewmq/shDE+7Fc/3EicDVhAgEIQAACn5KAfhTPe8z1U0Kh0oUAfeOKO4L7yDRi+L1aXH5k0o8/e2n3FQUTJIK4AHlPYUVZ6+Lz3BiZq4ZdCEAAAhCAAAQgAAEIQOAqCCCISzOemwAjno8TzVdxXVMJCEAAAhCAAAQgAAEIQCBAAEFcIJ0iQLODU/KT9+P4Ba4QTCAAAQhAAAIQgAAEIACBqyWAID7rpkUsHy+Wz7phCQ4CEIAABCAAAQhAAAIQOAMCCOIzaIT9Q7hWIb0/KTxCAAIQgAAEIAABCEAAAp+XwFUK4n9/fqabn3/SP6dd/3t+SLd3d/Pf95dq9PI4HyvnH+WE44RDEIAABCAAAQhAAAIQgAAEIHDxBK5QEL+kb/f36ZunZ4vofUi/Xkft9pp+PdylWwTxCBLnIAABCEAAAhCAAAQgAAEIXDyB6xPEL0/p5v4p/Xaa5u/jXbp9eE7/OecOhxDEBxakIAABCEAAAhCAAAQgAAEIXC+BCxPEg9Xf0kav6cfP+/Tlj78EXATx6srvOwji1z/py/3P9MMP83p7GzWDAAQgAAEIQAACEIAABCBwRgQuRxAXEXnffTe4MF0RmnsIYvsOsn60euS/5FOr0+U9596j3WfUQQgFAhCAAAQgAAEIQAACEIDAtRK4CEEs4rG38iuN8/vJEcz2Y1nqg1r+49P9FeJJDD+mv1Jgeknfs7+66jx6JNsVy+Xx7vt08+S98DwXQgICEIAABCAAAQhAAAIQgAAE3oDA2QviInJDK6lrj1On5IrSBdSeIJ7E7/xVasmnPtTVrAK/Pqevd/IBr8nn12fnGenIyreUxRYCEIAABCAAAQhAAAIQgAAEdiNwxoJ4Eri9D2RZAtMqsv8xLbE9SRAr4Sv+yrYI37tUhHKxmVaQ5dHqSQQPBHFxsq2uTfnsQAACEIAABCAAAQhAAAIQgMBRBM5YEE/1ia0Qjz+mJWTeXBCrVeG/jw/p18tz+lreG+6sLufAWCGW5mELAQhAAAIQgAAEIAABCEDgXQmcvSDONFbfIV75mJYQPUkQ65VgcZi3alU4lXeK82PSL+l7EcJ5Zbjuz49Pq8y8Q6xgkIQABCAAAQhAAAIQgAAEIPC+BC5CEBckg5XUsooc+DDVSYI41XeQ75Yf1Tq8G1wfjX54SHJseq/4IX1t8h1E/je+p/W+PZ7SIAABCEAAAhCAAAQgAAEIVAKXI4hLwN6Hs7xjfvuOBLG883urv0Jd0vJhrMln8aFsRPhKidN5laeuLDdftA6uaItPthCAAAQgAAEIQAACEIAABCCwP4ELE8RLAJGPaS1zcQQCEIAABCAAAQhAAAIQgAAEPjuBCxfEsY9pffZGpv4QgAAEIAABCEAAAhCAAAQgsCRw4YJ4WSGOQAACEIAABCAAAQhAAAIQgAAEIgQQxBFK2EAAAhCAAAQgAAEIQAACEIDA1RFAEF9dk1IhCEAAAhCAAAQgAAEIQAACEIgQQBBHKGEDAQhAAAIQgAAEIAABCEAAAldHAEF8dU1KhSAAAQhAAAIQgAAEIAABCEAgQgBBHKGEDQQgAAEIQAACEIAABCAAAQhcHYFdBHH5X8A//6R/e+N5eUy3d3eHv8eXvUvAHwQgAAEIQAACEIAABCAAAQh8UgI7COKX9O3+Pn17U636mn493KVbBPEn7aZUGwIQgAAEIAABCEAAAhCAwP4EThfEL0/p5v4p/d4/NuURQaxgkIQABCAAAQhAAAIQgAAEIACBHQisCOK11d/X9OPnffry53WHUEYuThTEr3/Sl/uf6cdbhzmqAucgAAEIQAACEIAABCAAAQhA4KwI9AVxEZH36Wb0brAnNPN7vw/P6T95/zenX5/T1/Iu8GP6W6rvC9y/j73Hon37maSUJe8bO49Wl/ec3/zR7jkiEhCAAAQgAAEIQAACEIAABCBw5gRcQSzicW3l9/eTI5hFnM5C+CF9fXhMf6so/l7eNfYF7lGCuJQnQjvTfknfszB2RHEqj3ffp5unN33h+cybnPAgAAEIQAACEIAABCAAAQhAIBNYCOIickMrqZ3HqasgLsK3iuCvz/lZ5Umo7iuIJ2E9+T806H/PD+n2Tovkw7kUWflW5iQhAAEIQAACEIAABCAAAQhA4DoJKEE8CdzoB7KmVWTnY1pFED+kX1kDN6vCbyGI62qwPCrdbDuCuLTjtrpeZ9NTKwhAAAIQgAAEIAABCEAAAp+bgBLEE4jYCvHgY1ofIIinVedgQ7JCHASFGQQgAAEIQAACEIAABCAAgesmsBDEubqr7xB7H9MSTkcLYv+94slt71zvuARjtrxDbICwCwEIQAACEIAABCAAAQhA4PMScAVxwTFYSS2ryL0PU4UEcUrte75V2PY+hpX6wnfyc5fWVolF5H/je1qft7dTcwhAAAIQgAAEIAABCEAAAopAXxAXI+/DWd4x5TEoiJOI3Preb/4wVhG36uvQInZvm3eD79LtXX1HuRbr2ik/04e0+D/EqpVIQgACEIAABCAAAQhAAAIQ+PQEVgTxkk/3Y1pLU45AAAIQgAAEIAABCEAAAhCAAATOlsBGQTz4mNbZVpHAIAABCEAAAhCAAAQgAAEIQAACSwIbBfHSAUcgAAEIQAACEIAABCAAAQhAAAKXSABBfImtRswQgAAEIAABCEAAAhCAAAQgcDIBBPHJCHEAAQhAAAIQgAAEIAABCEAAApdIAEF8ia1GzBCAAAQgAAEIQAACEIAABCBwMgEE8ckIcQABCEAAAhCAAAQgAAEIQAACl0gAQXyJrUbMEIAABCAAAQhAAAIQgAAEIHAyAQTxyQhxAAEIQAACEIAABCAAAQhAAAKXSABBfImtRswQgAAEIAABCEAAAhCAAAQgcDIBBPHJCHEAAQhAAAIQgAAEIAABCEAAApdIAEF8ia1GzBCAAAQgAAEIQAACEIAABCBwMoH/A1B7izJvJgl8AAAAAElFTkSuQmCC;" vertex="1" parent="XEuqMZY1B0dR8SwTnQAA-1">
          <mxGeometry x="40" y="600" width="964" height="241" as="geometry" />
        </mxCell>
        <mxCell id="otuS0v0U1lB1Sducp4aO-1" value="&lt;b&gt;&lt;font style=&quot;font-size: 18px&quot;&gt;Mule Pallete&lt;/font&gt;&lt;/b&gt;" style="text;html=1;strokeColor=none;fillColor=none;align=center;verticalAlign=middle;whiteSpace=wrap;rounded=0;" vertex="1" parent="XEuqMZY1B0dR8SwTnQAA-1">
          <mxGeometry x="40" y="160" width="200" height="20" as="geometry" />
        </mxCell>
        <mxCell id="otuS0v0U1lB1Sducp4aO-2" value="&lt;b&gt;&lt;font style=&quot;font-size: 18px&quot;&gt;POM Dependency&lt;/font&gt;&lt;/b&gt;" style="text;html=1;strokeColor=none;fillColor=none;align=center;verticalAlign=middle;whiteSpace=wrap;rounded=0;" vertex="1" parent="XEuqMZY1B0dR8SwTnQAA-1">
          <mxGeometry x="40" y="360" width="190" height="20" as="geometry" />
        </mxCell>
        <mxCell id="otuS0v0U1lB1Sducp4aO-3" value="&lt;b&gt;&lt;font style=&quot;font-size: 18px&quot;&gt;XML Namespace&lt;/font&gt;&lt;/b&gt;" style="text;html=1;strokeColor=none;fillColor=none;align=center;verticalAlign=middle;whiteSpace=wrap;rounded=0;" vertex="1" parent="XEuqMZY1B0dR8SwTnQAA-1">
          <mxGeometry x="40" y="570" width="170" height="20" as="geometry" />
        </mxCell>
        <mxCell id="3pOJfGcYNxFdb2ro315z-8" value="" style="edgeStyle=orthogonalEdgeStyle;rounded=0;orthogonalLoop=1;jettySize=auto;html=1;" edge="1" parent="XEuqMZY1B0dR8SwTnQAA-1" source="3pOJfGcYNxFdb2ro315z-1" target="3pOJfGcYNxFdb2ro315z-2">
          <mxGeometry relative="1" as="geometry">
            <Array as="points">
              <mxPoint x="600" y="250" />
              <mxPoint x="600" y="250" />
            </Array>
          </mxGeometry>
        </mxCell>
        <mxCell id="3pOJfGcYNxFdb2ro315z-1" value="HTTP" style="rounded=0;whiteSpace=wrap;html=1;align=center;" vertex="1" parent="XEuqMZY1B0dR8SwTnQAA-1">
          <mxGeometry x="540" y="160" width="120" height="60" as="geometry" />
        </mxCell>
        <mxCell id="3pOJfGcYNxFdb2ro315z-2" value="" style="rounded=0;whiteSpace=wrap;html=1;align=center;" vertex="1" parent="XEuqMZY1B0dR8SwTnQAA-1">
          <mxGeometry x="400" y="260" width="420" height="120" as="geometry" />
        </mxCell>
        <mxCell id="3pOJfGcYNxFdb2ro315z-3" value="Component" style="text;html=1;strokeColor=none;fillColor=none;align=center;verticalAlign=middle;whiteSpace=wrap;rounded=0;" vertex="1" parent="XEuqMZY1B0dR8SwTnQAA-1">
          <mxGeometry x="405" y="260" width="70" height="20" as="geometry" />
        </mxCell>
        <mxCell id="3pOJfGcYNxFdb2ro315z-4" value="Requestor" style="rounded=0;whiteSpace=wrap;html=1;align=center;" vertex="1" parent="XEuqMZY1B0dR8SwTnQAA-1">
          <mxGeometry x="460" y="310" width="120" height="60" as="geometry" />
        </mxCell>
        <mxCell id="3pOJfGcYNxFdb2ro315z-5" value="Listener" style="rounded=0;whiteSpace=wrap;html=1;align=center;" vertex="1" parent="XEuqMZY1B0dR8SwTnQAA-1">
          <mxGeometry x="650" y="310" width="120" height="60" as="geometry" />
        </mxCell>
        <mxCell id="3pOJfGcYNxFdb2ro315z-10" value="Operation" style="rounded=0;whiteSpace=wrap;html=1;align=center;" vertex="1" parent="XEuqMZY1B0dR8SwTnQAA-1">
          <mxGeometry x="470" y="290" width="100" height="30" as="geometry" />
        </mxCell>
        <mxCell id="3pOJfGcYNxFdb2ro315z-12" value="Source" style="rounded=0;whiteSpace=wrap;html=1;align=center;" vertex="1" parent="XEuqMZY1B0dR8SwTnQAA-1">
          <mxGeometry x="660" y="290" width="100" height="30" as="geometry" />
        </mxCell>
      </root>
    </mxGraphModel>
  </diagram>
  <diagram id="_G7gHs4r3xtmkFVHyFzc" name="Configuration">
    <mxGraphModel dx="1278" dy="614" grid="1" gridSize="10" guides="1" tooltips="1" connect="1" arrows="1" fold="1" page="1" pageScale="1" pageWidth="850" pageHeight="1100" math="0" shadow="0">
      <root>
        <mxCell id="8nkGI7kgPrW99Bi4NLpE-0" />
        <mxCell id="8nkGI7kgPrW99Bi4NLpE-1" parent="8nkGI7kgPrW99Bi4NLpE-0" />
        <mxCell id="-4LlhUDDOt7ldMm8t6Zg-0" value="&lt;font style=&quot;font-size: 25px&quot;&gt;&lt;b&gt;CONFIGURATIONS&lt;/b&gt;&lt;/font&gt;" style="text;html=1;strokeColor=none;fillColor=none;align=center;verticalAlign=middle;whiteSpace=wrap;rounded=0;" vertex="1" parent="8nkGI7kgPrW99Bi4NLpE-1">
          <mxGeometry x="410" y="80" width="80" height="20" as="geometry" />
        </mxCell>
        <mxCell id="lc53YEOOYpwnAg5EEax9-1" value="" style="shape=image;verticalLabelPosition=bottom;labelBackgroundColor=#ffffff;verticalAlign=top;aspect=fixed;imageAspect=0;image=data:image/png,iVBORw0KGgoAAAANSUhEUgAABHEAAAFZCAYAAAAfL7O9AAAgAElEQVR4Ae3dX4s02X0f8H4hutQ72KtnQOytnARirEROHideCKIjOYSQECEscJ5VbEmOAn4G7ETgm32wcWInFjKENMlNlgX7KoQYFATJLChLCJGyWrCToJs4nFBVXd3nVJ3qqj7dfaZ75vNAa3q66/ypT/12ZuqrU9Wr4B8BAgQIECBAgAABAgQIECBAgEA1gR/+6OOisVZFrTQiQIAAAQIECBAgQIAAAQIECBAoEhDiFLFpRIAAAQIECBAgQIAAAQIECBCoKyDEqettNAIECBAgQIAAAQIECBAgQIBAkYAQp4hNIwIECBAgQIAAAQIECBAgQIBAXQEhTl1voxEgQIAAAQIECBAgQIAAAQIEigSEOEVsGhEgQIAAAQIECBAgQIAAAQIE6goIcep6G40AAQIECBAgQIAAAQIECBAgUCRwthDnww8/DB4M1IAaUANqQA2oATWgBtSAGlADakANqAE1cFoNTCU8Zw1xpgbxOgECBAgQIECAAAECBAgQIECAwLxAE4BN/RPiTMl4nQABAgQIECBAgAABAgQIECBQWUCIUxnccAQIECBAgAABAgQIECBAgACBEgEhTomaNgQIECBAgAABAgQIECBAgACBygJCnMrghiNAgAABAgQIECBAgAABAgQIlAgIcUrUtCFAgAABAgQIECBAgAABAgQIVBYQ4lQGNxwBAgQIECBAgAABAgQIECBAoERAiFOipg0BAgQIECBAgAABAgQIECBAoLKAEKcyuOEIECBAgAABAgQIECBAgAABAiUCQpwSNW0IECBAgAABAgQIECBAgAABApUFhDiVwQ1HgAABAgQIECBAgAABAgQIECgREOKUqGlDgAABAgQIECBAgAABAgQIEKgsIMSpDG44AgQIECBAgAABAgQIECBAgECJgBCnRE0bAgQIECBAgAABAgQIECBAgEBlASFOZfBbGe6rX/1q8GCgBtSAGlADakANqAE1oAbUgBpQA2qgbg0cyg2EOId0nvF7zX+k/hEgQIAAAQIECBAgQIAAAQL1BObOxYU49Y7FTY00Vzg3tTMmS4AAAQIECBAgQIAAAQIEbkBg7lxciHMDB/ExpjhXOI8xJ2MSIECAAAECBAgQIECAAIGnLDB3Li7EecpH/4R9myucE7rWlAABAgQIECBAgAABAgQIEMgIzJ2LC3EyaF4K7U2NORAgQIAAAQIECBAgQIAAAQL1BIQ49ayf1EhzhfOkdtbOECBAgAABAgQIECBAgACBKxCYOxe3EucKDtI1TmGucK5xzuZEgAABAgQIECBAgAABAgRuWWDuXPxqQpyH+7uwWq1Gj7v7h5H/Zt1stw6b0TvHv9D0lRvj+J7GLbp53oXMLoR2f9fn2IPxuOd4Za5w2n2bmP85j8859kUfBAgQIECAAAECBAgQIEDgFgTmzsWvK8QZhQKbsG6DnfMENrkDdvkQZxVWd/dhGEU95RAn55x9bbPO2mS39SIBAgQIECBAgAABAgQIEHjiAjce4jRH5yHc363CahTwnOfIXTrEubu/b4Oo4WofIU4IQYhzniLWCwECBAgQIECAAAECBAg8CYEnEOJsT/ajy6dGwUsTBuwuxdpfvtRvl1yqNVgV02+zO9oP9+Fu11e6iqbZdhgmtX0P+uz72vXdzi9dTTQKcQ6M2/TX9bXpAq3t/NpcK2mXjtG0S/Z9tbcJbbvo+37S269zhZOz6LvY7ff+hdHxadvHzlFINznnbaC33myDvbb9eB/m219+hVe/674SIECAAAECBAgQIECAAIGlAnPn4ld+OdV2NweBQxISDN4Lm/vdPWj6oGC/Cma8qifpqw091rv2o1VAo5UjXX9R/pAcl7jvdi7RhsMQ5+H+wLjbEGcVhTC7oGIXII33rd1m9/4gDBu6JTOf/4jx4f7EzeP9HoVF0fHJrcQ5OOd+VVbk0M4j2scl7e/uYut45p4TIECAAAECBAgQIECAAIHHE3gaIU5oVk7sV1yMQ4LxCpSGPBs0DMKLpK/ccUqCm3QeXUCRH7sffxcgDcZtw4Yo1BkNnYyb25duNUnSRdJmMNd2gMOhUzyHucLJ2m47SEzb/Z4wSubbNJ6bczf/nWnTJOm/oH28054TIECAAAECBAgQIECAAIFHFJg7F7/9lTi71RmrkAQa2xAnOeFvD0R6op8EDtsD1QYs8aU+0UqPePu5ICbetuk6XiWSa7t03G6a6X50uxbdKLgJSOJ9iJ4Pnba7nXyZK5xm34aXlvUdpPu9XSG0Gh+f0Uqc2TlnQqg4HCtp30/aVwIECBAgQIAAAQIECBAg8MgCc+fitxHiDFZspCHBVrg9mU8/ejy73WC1R7pNE4yk98HJBg1tqJMJFAYHO+27ebPrvwmW0hBnftx8X/vVSe3QsVMbaEysgBnMM/ftXOE081kW4mx7zxyfrG1076PxvDLmoxDn0D5n2o8H8QoBAgQIECBAgAABAgQIEHgUgblz8RsIcbqAI149Mg40etvuJL1ffZMNGgbhRtJXGwikIUC8eqYbpZnPXbjfNDdATrftZ9F/TfrevxhWq3W4v7/bhyALxh33tZ1H/NnlcYgThxv92Ed8nSucrO22//Fc+4HT4zMKcWbnnAlh4jbx837I5GumffK+bwgQIECAAAECBAgQIECAwOMJzJ2LX3eI056Uj1d8JCHBZh1dRpWepLdBQ3IZTxcI9SFPc1iSvoYhQD9+dDnVrs1dFMJMHN+k72ibfl67lSwLxh33NRPibPetCYw2u7Efwv36PrS5z3DM3Tbdk7nCafchTtai9slcDxyfNsRJ5re990/yWjTn3adTRYMN9qOzndjnXPuoK08JECBAgAABAgQIECBAgMBjCsydi19XiBPdt6W7n0t8Mr5nTEKCPmjZth0HNOnHcu+Ck213SV/9fWv6eTThTby6pZ/CIDjoXx5+Hfa9e7+fcxSCJPfDyYw77ms+xGnGa9rF98bZ+czsw1zhDPttx9iGXclc+33NHJ/dp38170UWw753c86FMJn9OKr97qB4QoAAAQIECBAgQIAAAQIEHldg7lz8akKcSzAlYcI5B8gFO+fs/wr6miucK5iiKRAgQIAAAQIECBAgQIAAgSclMHcuLsQ5+nAP7utydPvbaDBXOLexF2ZJgAABAgQIECBAgAABAgRuR2DuXFyIc8Sx3F2mE136c0Tzm9p0rnBuamdMlgABAgQIECBAgAABAgQI3IDA3Ln4kw5xbuD4XO0U5wrnaiduYgQIECBAgAABAgQIECBA4EYF5s7FhTg3emAvPe25wrn0+PonQIAAAQIECBAgQIAAAQLPTWDuXFyI89wqYuH+zhXOwm5sRoAAAQIECBAgQIAAAQIECCwUmDsXF+IshHxumzWF48FADagBNaAG1IAaUANqQA2oATWgBtRA3Ro4lD8IcQ7peI8AAQIECBAgQIAAAQIECBAgcCUCQpwrORCmQYAAAQIECBAgQIAAAQIECBA4JCDEOaTjPQIECBAgQIAAAQIECBAgQIDAlQiUhjg/+clPJvdgNXzn0CDDbX1PgAABAgQIECBAgAABAgQIECAwFjiUr/zwRx+PGyx4RYizAMkmBAgQIECAAAECBAgQIECAAIFjBIQ4x2jZlgABAgQIECBAgAABAgQIECDwSALVQpxmIA8GakANqAE1oAbUgBpQA2pADagBNaAG1IAaKK+BqfzobJdTTQ3gdQIECBAgQIAAAQIECBAgQIAAgdMFzhLifPKpTwcPBmpADagBNaAG1IAaUANqQA2oATWgBtSAGrhsDZREQcmNjR2gyx4gvnzVgBpQA2pADagBNaAG1IAaUANqQA2ogaYGSv4Jcaw+svpKDagBNaAG1IAaUANqQA2oATWgBtSAGqhcA0KcyuDSU+mpGlADakANqAE1oAbUgBpQA2pADagBNVBSA0IcIY7kVA2oATWgBtSAGlADakANqAE1oAbUgBq4gRq4SIhT0qk2BAgQIECAAAECBAgQIECAAAECnUBupU6Jzew9cUo61YYAAQIECBAgQIAAAQIECBAgQKATEOKoBAIECBAgQIAAAQIECBAgQIDADQgIcW7gIJkiAQIECBAgQIAAAQIECBAgQECIowYIECBAgAABAgQIECBAgAABAjcg8OghzsPrF2G1WiWPF68fzkK3WTf9rsOmsLeufTS3dWlP0xM4dY7TPXuHAAECBAgQIECAAAECBAgQeEoC1xHixOHIw+vwYrUK8Uv1wR/C6xersBpMYvP6dVgcL23WYfVisH3utfo7Z0QCBAgQIECAAAECBAgQIEDgBgWuL8QJIbSrUwYBSlXbNkh6EU5aEJQLbHKvVd0xgxEgQIAAAQIECBAgQIAAAQK3KnC1IU5ySdV2dc7usqvcCpfdJVn78KUJg5J+QgjDy7fyWdEmrBesBkr7SsfdzbWZ13rTBVO7Oe5X+aRz7FYArTfblUDt9vt++yLrLsHaXub14nXYNJekxTvShEW7scbt+358JUCAAAECBAgQIECAAAECBG5H4PpCnDaASO9j8/B6Ha2KGVzqNFw1s3m92zYNSPoAJ+r74XV4PXGbmz6gGYZA/aFt34/DpOG8c6tuMq+lc+zDm33w0gY20TjD70M77j4UCgc8+rn7SoAAAQIECBAgQIAAAQIECNyeQLUQ58MPPwz9I2bqw5L9ypEF98OJw5A2tIiCmajzNCBZtromat6kPu39eZq5pWFO09c+aOna9Ktotj3Ec+w7zbyWzrHrIxkr2b/cuIPLz5Lt+4H3X/tj4Ou+HlmwUANqQA2oATWgBtSAGlADakANqIFrroH+rL5aiNMPOPzahjjxpUBhsNJm22AU9uxWp/SrV8bhTxKQtCtW8mHPcE6j79u20WqX/vvdJUv7T7Da7UomsGlXzezm3Y2SzHG777s+mk3aUGYbGE0ENKnhtMdov7xAgAABAgQIECBAgAABAgQIXLVAEy71/64wxBkEF6FbQZN80lMuIGkDjvQjxZOApA1eCkOcRisOU5b0lZtj5rVkjnMhzsS4aYizPbQZj/6g+0qAAAECBAgQIECAAAECBAjchsCNhDjbwCWz+qQNLQYrWjr69HKkJCCJQ5ii4xRdjrWkr0xgc56VOMPLuAaXUyX7lnokb/mGAAECBAgQIECAAAECBAgQuHqBKw9xtpcD9dcUDQOT9vtV2K3M2axDv2kYrGRJQpz+o8tX0WqcqRsbN2PsO20PaHc5175t0/cq7qsZe/06PPSHP7dqJvNaOsdu35Ohk/3f2sQBVttneqnXvn2mv35+vhIgQIAAAQIECBAgQIAAAQJXL3B9Ic7w3jL7FKLF7AKU/UdqP8SrXPpQZ9tHfFPgNCDpjksXvvT3sBmvatlu1X7EeHyz5TSwyfU1vPnxNnBp5rXbn/Fr6RwzoUsS4jTjRn1s+04upzrg0c3a/xIgQIAAAQIECBAgQIAAAQK3InBVIc6toF3zPNMg6Jpnam4ECBAgQIAAAQIECBAgQIDAMQJCnGO0rn3bzCVa1z5l8yNAgAABAgQIECBAgAABAgSWCQhxljld5Vbp5WDD+/Jc5ZRNigABAgQIECBAgAABAgQIECgUEOIUwmlGgAABAgQIECBAgAABAgQIEKgpIMSpqW0sAgQIECBAgAABAgQIECBAgEChgBCnEE4zAgQIECBAgAABAgQIECBAgEBNASFOTW1jESBAgAABAgQIECBAgAABAgQKBYQ4hXCaESBAgAABAgQIECBAgAABAgRqCghxamobiwABAgQIECBAgAABAgQIECBQKCDEKYTTjMCxAt/5zneCBwM1oAbUgBpQA2pADagBNaAG1EC+Bo49x3qO2wtxnuNRt8+PItD8oP7oo488GKgBNaAG1IAaUANqQA2oATWgBgY10Jwv+TcvIMSZN7IFgbMICHEEWEI8NaAG1IAaUANqQA2oATWgBvI1IMRZdtopxFnmZCsCJwsIcfI/rP0S46IG1IAaUANqQA2oATWgBtSAEGfZKacQZ5mTrQicLCDE8YvJHydqQA2oATWgBtSAGlADakAN5GtAiLPslFOIs8zJVgROFhDi5H9Y+yXGRQ2oATWgBtSAGlADakANqAEhzrJTTiHOMidbEThZQIjjF5M/TtSAGlADakANqAE1oAbUgBrI14AQZ9kppxBnmZOtCJwsIMTJ/7D2S4yLGlADakANqAE1oAbUgBpQA08txHn16u3w3jtvn3weOexAiDMU8T2BCwkIcfxi8seJGlADakANqAE1oAbUgBpQA/kaOGeI8+P//Un4W7/198NXfu8X28eXf+8Xw7c2v3ahM71xtz94rwtwVqvV+M0TX7nZEOfh/i40IPvHOmxOxNB8mcDevjPfrJvjcJ3+1zS3XIjzwau3wurlm5D7Qf7m5Sq89eqD9r3m+b7WB89fvglz7zf9j7d5K7z6IP8DNJ5P2+7AHFerl+HNR/P9xH0+x+ftsW5/ZnVe3fFg9xxrwT77eaEG1IAaUANqQA2ogXENnDPE+fh/fRJ+5btfDf/1v6/bxx8//M3wjT/4lWUnvJmtVqt3w5LH2++9H9oA59Xb4Z233w4/+MH7md5Oe+kGQ5yHcH+XCQ0267C+lRRnsw6ru/vwcNqxe5zWD/fhbnUX7q9x8lfuekqIE/+QPxSqNNtNvd+83odCzXZdqDAf5Ez1F89p9vmbl2H11qvwwXMNez54Fd5azVvPOj5XP/udDXrVy/iPPyZM1IAaUANqQA3cbg2cN8T5cfja738lCnHW4Ze/87Xic+i333kvvP3O+yH83z8Jq3ffbZ8337/9KnpUCHCaHbi5EKddBXKrAUhfMlceNvTTzH5tQ5zrXHUTrtz12kKcjz76ILx6Kw12cr/0hDhn+EXYhjhW3eTqy2tnqC8hl5BLDagBNaAG1IAaeAI1cM4Q53/+6Y/DL/2zv7MLcf7jf1mHd3/3l7KnuEtenFuFU2MFTj/PGwtxNmG9Wi1acbO/5Gd76UmyTKdbzbPe9Kt6mm3i1SVz73d86Rhx+9z73by7y3uiy2GieaX9rcIqei+Efk6dwaHLl4b9xN0M38uPkXeZatvs091gaU6yn3f3YdNc/rabSLMPA68kHJrY13abyC4K85LxmktWtmPl5ja1H9uj1q70mqyNE1YiPcUQZ7i656Nmxc3uMsdu5UkbAu1eWyWXj+0vMWqOa7xSpQuYXr7pvnZ9xu93J77z7d+El9ElTIcCg7SvVXj5Zn9yPXwvvQTu8Fyn2o7s+lVUvdVbr8KbA5fbHdoX7+2PHQsWakANqAE1oAbUgBqoWwOf/exnwwcfdLeFGNp///vfD5/73OeyodupIc7P/doXwpe+/Qu7xzf/xZd2Ic4fP6zDF7+9Dl/69hfbxxd+fR1+41//ep+LzH599913w/vvvz/5iC+heu+992b7O2WD2wpxmpUWC+690p2kx6tFtqHELkToQ4p9kNCGALtQYO79ENoxdtuH0K4CieY2msPDfbjvL/fKrBgZbb8Nbfowog9x7u7WBy9lGvUTjTt6b2KMONBKXUKz4+Eu2s+m+IZByahNe9z2wUoIy0Kc4b4+3Mf7Pjym22MQH5PM3E42eIIhThxWDH/INt8fWomTBBHDS4bevNrfcydzOVUbbsSXWLUBUL9apQ9v9sFNO49o+yXt33rr5X4OB/7fiS5o6cf+KHz0wavwahvijN7brmDaBznzc236e2tw76DErneO9m8XiE3cjyh3rLxW9w8U3rzVgBpQA2pADagBNTCugSbAyQU5fYDThBw5t1NDnK+897fDf/5vX1j0+Df//m+E19/91uIspQlxpv7FAU5zD5xD2071cczrTzDEyQQEjUgSPnQBQLJ65Kj3c2N0fXY5UfP+gRVDoxAn19+COY+O9KFxC8dIXIZz6iaQhjj5cdpgZxeiZbZJxskcn9G+ZkKbkeswYMqMe3Rt5Cay7LXJlTj9yovM1/geNv0PukOhSrPN1PvZ0GAQLPRjxF+n+uvH2s0xE1Ts+hmFOM0KmX1A023Xr2hpfhF0z3d9NwFM0n9B+8kQp1utkw+zcuMM5zI31+H23S+69Hjkxzlkv7Od3K/xL1RtmKgBNaAG1IAaUANqQA3UqIFhkDMX4DRzOjXE+bu/+cXwhx/+/KLHP/+jvxb+8e9/c9mJXAiTwUwc4DSdNSHOO++8s7jfkg2fXojTrvqIV+H0LPEJfBy4bN9vQ4R+Zc7M+/3KksxJd5tTTM5hO9YwbJjcfmbO/a71Xyf72QYegxU0XbOZMRKXBSFOEsb0E9uuXDoyxNltvu+mWwEVu8crb4auw5U4kz5HGkTzOebpZIgzsdIiPcnf/7KZO7Gfer99PbaLV30cCAKm+mt+0Dbv7YOWfkVKeilS+0tiGOK0q26iS+OieXVhShzobPc9XulT0n5qH9u+olU48XaT78Why8xcm/6SAKrbn8Qu837j1q4CmqiP1jWeq+fZ/0eH0/5nBwsWakANqAE1oAbUQM0a6IOczWbTXkI1tQKnn9OpIc4v/MYXwnf/088uevzTf/f58I3fXf5pVbnVNc3+NIFN8ylU/T8hTi/Rfx0GCv3r8deznKgvCXFyQdF2IpNziN4fhg8lAUu8383zQ+NOvndkgJEJaZKVOBPjtJcx7VKZeMztTiT9ZvzbS7BW6ad6NWMNHePvhTjJSW0SGhxxwr88xNn+UmwDiSagiYKRJgyJQ6PJcKT/xToTjJS0n9rnQ31NvnfmEGdiHCFOXw++9n/c+KoW1IAaUANqQA2ogWuvge9973u785AmyPnMZz4T4gAnfj/el1NDnL/wlc+Fz3/tZ3ePL/6TvxJ+8z/8dPv41X/7F3evN9v8zD/4fPjG75y2Eqe5b+d7r/YBTnNmK8QZhhSje7iMNtheNtWvqInenwsJkoAoEyLE78fPoyF2T+feH4YPU9u3r/dhUWZOuwG3T6b6ad6eem9ujGG7ZPtu3CTEGW6/ndrs5VRJ+JPZ18y4bTAUhzZD12GIMzG33KV2u7zpkN1235Z+uYaVOPtVM8t/+R0d4rRhSRfC7MZrQoo4xIlX1WTDlZkQp6R9dpx+lczw0q6tz9Q47et9SDUz12bcZPuu7yRUmxjnkH38C8/z5fXMipUaUANqQA2oATWgBq6zBk4NceLzsv/xyQ/Dz3/r58LX/+in2seX/+DPhV/+ra/Hmxz1PLcSJ9eBECenkluR0Wy3We8+taoNDJKVLV0osL8HzlRI0Ic/c+9391pJb7L8EO7X9+FhO+fRHKIbDOdWzIy23wZWB+ec8Rn1E407em/JGMPgIxOmNP0O5zlaIdNcLrNLRjrf/ffNypxm5caBwCo7j8zKnF0fHU46t4njdjee/26qTTfx2PHzjP+hl558iPPmZfSJToNgI7PSpA0o4tU6zX1wXr4KH0QhUHKfmkHQcXT7qRCnv49QPJfoxsbZcZKPZh/s6y60iYKhuRCnv1lyHHS1ZumnefmD4zr/4HBcHBc1oAbUgBpQA2pADZxeA+cOcf76P3oZ/uEffrZ9/L3v/pQQ58DJ6ip+75NPfToMH/H7Zc+3IUB0H40kNGjPu++ijzqOT9KbEedCmrn3u1l3ocj+vh77ICP3fh8Q7cdvPzY5Sgu6T06a6i8zp26Y0f+m84rH3d6bJnJL55wZYxhatN/3Yct+P3P97D5qer3p7mUT7Wv3CVX9vq7DJuk3M4/hMW1W4IxW3nTtYtdhiNPqNx93Xmow9BjpT79w0yFO5NXabcOGJuDYrbZpg4r+mEavR6FM2za6x0sXkOTaLAhGduHLwvYHQpzml246lyiA6e9NExns9jnat0OB0+xKnKifXW2+fOOeODPHzB9Lp/+xxJChGlADakANqAE1cC01cO0hzvvvvxeWPNzYePqc2Ds3JJALU25o+meZai7EuZYfmOZxnb+8k5BMoLG7tlq9Xme9Oi6OixpQA2pADagBNXBKDZw7xPnzX/7p8Fe/+Zfbx1/62s+Er//2rxaf1zWXU7U3MW5uZLzgUTzQgoa39elUC3bIJlcokNzv5grnV2lK1xviNDfp3a9m2a0EWWU+Zepmg4Qb3MfMJWin/FLU1h9VakANqAE1oAbUgBpQA9dcA+cMcf7s//1ZaO6LEz/+5P/8aaUzv8sOI8S5rO+z7D29nKsJB9LLr54lSgjhekMcv8yu4ZdZejlX899Nf+Nkx+cajo85qEM1oAbUgBpQA2pADVy2Bs4Z4jzlc04hzlM+uvbtqgSEOJf9oe+XKl81oAbUgBpQA2pADagBNXC7NSDEWXb6KsRZ5mQrAicLCHFu9xeKPwYcOzWgBtSAGlADakANqAE1cNkaEOIsO+UU4ixzshWBkwWEOJf9oe+XKl81oAbUgBpQA2pADagBNXC7NSDEWXbKKcRZ5mQrAicLCHFu9xeKPwYcOzWgBtSAGlADakANqAE1cNkaEOIsO+UU4ixzshWBkwWaH0oeDNSAGlADakANqAE1oAbUgBpQA/kaOPmk6xl0IMR5BgfZLhIgQIAAAQIECBAgQIAAAQK3LyDEuf1jaA8IECBAgAABAgQIECBAgACBZyAgxHkGB9kuEiBAgAABAgQIECBAgAABArcvIMS5/WNoDwgQIECAAAECBAgQIECAAIFnICDEeQYH2S4SIECAAAECBAgQIECAAAECty8gxLn9Y2gPCBAgQIAAAQIECBAgQIAAgWcg8CghTjOoBwM1oAbUgBpQA2pADagBNaAG1IAaUANqQA0cVwN9VvXJpz4dho/+vWO+ruKNhx023/tHgAABAgQIECBAgAABAgQIECBQLnCuvEWIU34MtCRAgAABAgQIECBAgAABAgQIzAoIcWaJbECAAAECBAgQIECAAAECBAgQeHwBIc7jHwMzIECAAAECBAgQIECAAAECBAjMClQLcXIDeW18QyImTNSAGlADakANqAE1oAbUgBpQA2pADaiBpTUwm/xkNr8P+K8AABnHSURBVJi9J87SwW2nUNWAGlADakANqAE1oAbUgBpQA2pADagBNbCsBjIZzexLQpzMx3wpuGUFx4mTGlADakANqAE1oAbUgBpQA2pADaiBshqYTWwyGwhxhDijz6r3H2DZf4DcuKkBNaAG1IAaUANqQA2oATWgBtTA0hrIZDSzLwlxhDhCHDWgBtSAGlADakANqAE1oAbUgBpQA2qgcg3MJjaZDZIQJ/O+lwgQIECAAAECBAgQIECAAAECBM4o8MMffVzUmxCniE0jAgQIECBAgAABAgQIECBAgECZwOOFOJt1WK1W6WO9KduLSq0261V48fqh0miGIUCAAAECBAgQIECAAAECBAjsBR4hxHkIr1804c06pJHNJqxfvA7XHJEIcfaF4xkBAgQIECBAgAABAgQIECBQV6B6iPPw+kVYXXlYM3UIhDhTMl4nQIAAAQIECBAgQIAAAQIELi1QOcTZhPVqFZZeNdUGPrtLrl6E/ZVM3Wqe9aZf1dOs7Inf79jm23fz2a0KengdXuzGW43CJiHOpctR/wQIECBAgAABAgQIECBAgMCUQN0Qp70PzvAyqvzURit2krZ9eLMPbpqAJV7hs6T9ixfrKBgK4eF1/P12jChxEuLkj5VXCRAgQIAAAQIECBAgQIAAgcsLnC3E+fDDD8PUY7cbSRDTvZqulukDnmaFzD6g2W7Z3kuny1S6gCW5yXC7iuaE9rtJRk+a+UaXfuVCnKl99vp0PbBhowbUgBpQA2pADagBNaAG1IAaUANqYLoGomQieXrWECfpOfdNJsTZbRaHMO12g0+u2l7mFIc40SKZZhlNeNEHPyXttxNJQ6V0dU8uxNnN3xMCBAgQIECAAAECBAgQIECAwIkCTbg19a9uiBMHLcMZjUKcflXNcMPm+24lzuEQ58j2YXt/nGjlTViwEic3O68RIECAAAECBAgQIECAAAECBEoErifECSG0965J0pftLsUhzqGwp918JsQpbp8GP8P76liJU1J+2hAgQIAAAQIECBAgQIAAAQJLBa4qxAm5FS/NnsQhTh/2rOJQ5SG8Xr8OD+1ez4Q4Z2jfzcflVEuLzHYECBAgQIAAAQIECBAgQIDA6QJXFuJ0O9SuyIk/zjvz0ePDbfY3Mp4PcZpRjmrf5kgvwqqfU3NZlcupTq8+PRAgQIAAAQIECBAgQIAAAQKLBa4yxFk8exsSIECAAAECBAgQIECAAAECBJ6JgBDnmRxou0mAAAECBAgQIECAAAECBAjctoAQ57aPn9kTIECAAAECBAgQIECAAAECz0RAiPNMDrTdJECAAAECBAgQIECAAAECBG5bQIhz28fP7AkQIECAAAECBAgQIECAAIFnIiDEeSYH2m4SIECAAAECBAgQIECAAAECty0gxLnt42f2BAgQIECAAAECBAgQIECAwDMREOI8kwNtNwkQIECAAAECBAgQIECAAIHbFhDi3PbxM3sCBAgQIECAAAECBAgQIEDgmQgIcS50oP/ld/5V8GCgBtSAGlADakANqAE1oAbUgBpQA2pADQxroDSKEOKUys20aw6QfwQIECBAgAABAgQIECBAgACBWOCUvECIE0ue8fkpB+WM09AVAQIECBAgQIAAAQIECBAgcEUCp+QFQpwLHchTDsqFpqRbAgQIECBAgAABAgQIECBA4JEFTskLhDgXOninHJQLTUm3BAgQIECAAAECBAgQIECAwCMLnJIXCHEudPBOOSgXmpJuCRAgQIAAAQIECBAgQIAAgUcWOCUvEOJc6OCdclAuNCXdEiBAgAABAgQIECBAgAABAo8scEpeIMS50ME75aBcaEq6JUCAAAECBAgQIECAAAECBB5Z4JS8QIhzoYN3ykG50JR0S4AAAQIECBAgQIAAAQIECDyywCl5wc2FOJv1KqxW8eMu3D+UHoGHcH+3CutNafvpdrMHZbMOq7v7UDz1wdCdyzpkd2Uw1sP9XbgrRxuM7FsCBAgQIECAAAECBAgQIEBgqcBsXnCgo5sMceIAogkkVquFQc4gzAjhsUKcy407PtaZsTbriwRX47G9QoAAAQIECBAgQIAAAQIECMQCzzrE6YOYONiJcZLn1xLiPNyHu9XEqplkwmf4Jh6r2f9m3DbE2YT16jKrkM4wa10QIECAAAECBAgQIECAAIEnKSDEuVt1lwe1gUV0qVV0udLoMqz2Gqp+lUr3tbtMK1rV0/YXfX9E+Rw6KO3qofgargPzboZs5t6EVN2qo+3+RfsWbzOc4mis0IU3bZgz3Nj3BAgQIECAAAECBAgQIECAwEUFDuUFcwPf/OVU/UqcJhN5uF9H98fZBjNxWDKxEie+HKsNe/qA5CIhThOipMHQ3Lz7AGq/2mi8b33Qkx7w8VihMVhv2mAopknb+Y4AAQIECBAgQIAAAQIECBC4hMCzDnG6gGPi0qRhaDP8fntPnH04Epok6CyXOk0elNEcMiUx2Kbdx2HiMgiYsiHOoJ8u8NoGSE37PqzKTMFLBAgQIECAAAECBAgQIECAwPkFJvOCBUPd5Eqc5NOpBkFEcslR8ylW8fvZUGNwX5hBOLLAMLvJ1EHJhi1tdtTcoHn6UrAkaGpHTFfZ5PrNvZadrBcJECBAgAABAgQIECBAgACBKgJTecGSwW8yxBkHGs2ubu/1cii0efQQp5njcNXQ/LzzYcxciJMba0lJ2IYAAQIECBAgQIAAAQIECBC4lIAQp5HNXAbVrso5FOrkPmL8gitxxjcZXjbvJsRp7mOT/GsCqSgQGgY92bGSDnxDgAABAgQIECBAgAABAgQI1BYQ4jTiw/Cl/T5zOVUUfMQ3Rd4dtLif+Plug2VPxgel/ySsQfvhGJl5tyFO8nHg3eqdeEVSGuJMjDUY2rcECBAgQIAAAQIECBAgQIBAXYFxXrB8/Cd0OVWT40T3lWlW4ExcPtXee6Zd2ZIJO+JQJX6+3LTdcnRQmr7iVUFRf3Pz7gKaTbi/i+6ZM1iZk4Q4B8aKhvWUAAECBAgQIECAAAECBAgQqCwwyguOGP/mQpwj9u1RNx0elCRkOXJmx7Y9dvsjp2NzAgQIECBAgAABAgQIECBAoFBgmBcc040Q5xitI7YdHpT1avvR3kf00W96XCiT3vC478NXAgQIECBAgAABAgQIECBA4PEFhnnBMTMS4hyjdcS2pxyU4TDHhTjD1r4nQIAAAQIECBAgQIAAAQIErkXglLxAiHOho3jKQbnQlHRLgAABAgQIECBAgAABAgQIPLLAKXmBEOdCB++Ug3KhKemWAAECBAgQIECAAAECBAgQeGSBU/ICIc6FDt4pB+VCU9ItAQIECBAgQIAAAQIECBAg8MgCp+QFQpwLHbxTDsqFpqRbAgQIECBAgAABAgQIECBA4JEFTskLhDgXOnjNQfFgoAbUgBpQA2pADagBNaAG1IAaUANqQA0Ma6A0ihDilMppR4AAAQIECBAgQIAAAQIECBCoKCDEqYhtKAIECBAgQIAAAQIECBAgQIBAqYAQp1ROOwIECBAgQIAAAQIECBAgQIBARQEhTkVsQxEgQIAAAQIECBAgQIAAAQIESgWEOKVy2hEgQIAAAQIECBAgQIAAAQIEKgoIcSpiG4oAAQIECBAgQIAAAQIECBAgUCogxCmV044AAQIECBAgQIAAAQIECBAgUFFAiFMR21AECBAgQIAAAQIECBAgQIAAgVIBIU6pnHYECBAgQIAAAQIECBAgQIAAgYoCQpyK2IYiQIAAAQIECBAgQIAAAQIECJQKCHFK5bQjQIAAAQIECBAgQIAAAQIECFQUEOJUxDYUAQIECBAgQIAAAQIECBAgQKBUQIhTKqcdAQIECBAgQIAAAQIECBAgQKCigBCnIrahCBAgQIAAAQIECBAgQIAAAQKlAkKcUjntCBAgQIAAAQIECBAgQIAAAQIVBYQ4FbENRYAAAQIECBAgQIAAAQIECBAoFRDilMppR4AAAQIECBAgQIAAAQIECBCoKCDEqYhtKAIECBAgQIAAAQIECBAgQIBAqYAQp1ROOwIECBAgQIAAAQIECBAgQIBARQEhTkVsQxEgQIAAAQIECBAgQIAAAQIESgWEOKVy2hEgQIAAAQIECBAgQIAAAQIEKgoIcSpiG4oAAQIECBAgQIAAAQIECBAgUCogxCmV044AAQIECBAgQIAAAQIECBAgUFFAiFMR21AECBAgQIAAAQIECBAgQIAAgVIBIU6pnHYECBAgQIAAAQIECBAgQIAAgYoCQpyK2IYiQIAAAQIECBAgQIAAAQIECJQKCHFK5bQjQIAAAQIECBAgQIAAAQIECFQUEOJUxDYUAQIECBAgQIAAAQIECBAgQKBUQIhTKqcdAQIECBAgQIAAAQIECBAgQKCigBCnIrahCBAgQIAAAQIECBAgQIAAAQKlAkKcUjntCBAgQIAAAQIECBAgQIAAAQIVBYQ4FbENRYAAAQIECBAgQIAAAQIECBAoFRDilMppR4AAAQIECBAgQIAAAQIECBCoKCDEqYhtKAIECBAgQIAAAQIECBAgQIBAqYAQp1ROOwIECBAgQIAAAQIECBAgQIBARQEhTkVsQxEgQIAAAQIECBAgQIAAAQIESgWEOKVy2hEgQIAAAQIECBAgQIAAAQIEKgoIcSpiG4oAAQIECBAgQIAAAQIECBAgUCogxCmV044AAQIECBAgQIAAAQIECBAgUFFAiFMR21AECBAgQIAAAQIECBAgQIAAgVIBIU6pnHYECBAgQIAAAQIECBAgQIAAgYoCQpyK2IYiQIAAAQIECBAgQIAAAQIECJQKCHFK5bQjQIAAAQIECBAgQIAAAQIECFQUEOJUxDYUAQIECBAgQIAAAQIECBAgQKBUQIhTKqcdAQIECBAgQIAAAQIECBAgQKCigBCnIrahCBAgQIAAAQIECBAgQIAAAQKlAkKcUjntCBAgQIAAAQIECBAgQIAAAQIVBYQ4FbENRYAAAQIECBAgQIAAAQIECBAoFRDilMppR4AAAQIECBAgQIAAAQIECBCoKCDEqYhtKAIECBAgQIAAAQIECBAgQIBAqYAQp1ROOwIECBAgQIAAAQIECBAgQIBARQEhTkVsQxEgQIAAAQIECBAgQIAAAQIESgWEOKVy2hEgQIAAAQIECBAgQIAAAQIEKgoIcSpiG4oAAQIECBAgQIAAAQIECBAgUCogxCmV044AAQIECBAgQIAAAQIECBAgUFFAiFMR21AECBAgQIAAAQIECBAgQIAAgVIBIU6pnHYECBAgQIAAAQIECBAgQIAAgYoCQpyK2IYiQIAAAQIECBAgQIAAAQIECJQKCHFK5bQjQIAAAQIECBAgQIAAAQIECFQUEOJUxDYUAQIECBAgQIAAAQIECBAgQKBUQIhTKqcdAQIECBAgQIAAAQIECBAgQKCigBCnIrahCBAgQIAAAQIECBAgQIAAAQKlAkKcUjntCBAgQIAAAQIECBAgQIAAAQIVBYQ4FbENRYAAAQIECBAgQIAAAQIECBAoFRDilMppR4AAAQIECBAgQIAAAQIECBCoKCDEqYhtKAIECBAgQIAAAQIECBAgQIBAqYAQp1ROOwIECBAgQIAAAQIECBAgQIBARQEhTkVsQxEgQIAAAQIECBAgQIAAAQIESgWEOKVy2hEgQIAAAQIECBAgQIAAAQIEKgoIcSpiG4oAAQIECBAgQIAAAQIECBAgUCogxCmV044AAQIECBAgQIAAAQIECBAgUFFAiFMR21AECBAgQIAAAQIECBAgQIAAgVIBIU6pnHYECBAgQIAAAQIECBAgQIAAgYoCQpyK2IYiQIAAAQIECBAgQIAAAQIECJQKCHFK5bQjQIAAAQIECBAgQIAAAQIECFQUEOJUxDYUAQIECBAgQIAAAQIECBAgQKBUQIhTKqcdAQIECBAgQIAAAQIECBAgQKCigBCnIrahCBAgQIAAAQIECBAgQIAAAQKlAkKcUjntCBAgQIAAAQIECBAgQIAAAQIVBYQ4FbENRYAAAQIECBAgQIAAAQIECBAoFRDilMppR4AAAQIECBAgQIAAAQIECBCoKCDEqYhtKAIECBAgQIAAAQIECBAgQIBAqYAQp1ROOwIECBAgQIAAAQIECBAgQIBARQEhTkVsQxEgQIAAAQIECBAgQIAAAQIESgWEOKVy2hEgQIAAAQIECBAgQIAAAQIEKgoIcSpiG4oAAQIECBAgQIAAAQIECBAgUCogxCmV044AAQIECBAgQIAAAQIECBAgUFFAiFMR21AECBAgQIAAAQIECBAgQIAAgVIBIU6pnHYECBAgQIAAAQIECBAgQIAAgYoCQpyK2IYiQIAAAQIECBAgQIAAAQIECJQKCHFK5bQjQIAAAQIECBAgQIAAAQIECFQUEOJUxDYUAQIECBAgQIAAAQIECBAgQKBUQIhTKqcdAQIECBAgQIAAAQIECBAgQKCigBCnIrahCBAgQIAAAQIECBAgQIAAAQKlAkKcUjntCBAgQIAAAQIECBAgQIAAAQIVBYQ4FbENRYAAAQIECBAgQIAAAQIECBAoFRDilMppR4AAAQIECBAgQIAAAQIECBCoKCDEqYhtKAIECBAgQIAAAQIECBAgQIBAqYAQp1ROOwIECBAgQIAAAQIECBAgQIBARQEhTkVsQxEgQIAAAQIECBAgQIAAAQIESgWEOKVy2hEgQIAAAQIECBAgQIAAAQIEKgoIcSpiG4oAAQIECBAgQIAAAQIECBAgUCogxCmV044AAQIECBAgQIAAAQIECBAgUFFAiFMR21AECBAgQIAAAQIECBAgQIAAgVIBIU6pnHYECBAgQIAAAQIECBAgQIAAgYoCQpyK2IYiQIAAAQIECBAgQIAAAQIECJQKCHFK5bQjQIAAAQIECBAgQIAAAQIECFQUEOJUxDYUAQIECBAgQIAAAQIECBAgQKBUQIhTKqcdAQIECBAgQIAAAQIECBAgQKCigBCnIrahCBAgQIAAAQIECBAgQIAAAQKlAkKcUjntCBAgQIAAAQIECBAgQIAAAQIVBYQ4FbENRYAAAQIECBAgQIAAAQIECBAoFRDilMppR4AAAQIECBAgQIAAAQIECBCoKCDEqYhtKAIECBAgQIAAAQIECBAgQIBAqYAQp1ROOwIECBAgQIAAAQIECBAgQIBARQEhTkVsQxEgQIAAAQIECBAgQIAAAQIESgWEOKVy2hEgQIAAAQIECBAgQIAAAQIEKgoIcSpiG4oAAQIECBAgQIAAAQIECBAgUCogxCmV044AAQIECBAgQIAAAQIECBAgUFFAiFMR21AECBAgQIAAAQIECBAgQIAAgVIBIU6pnHYECBAgQIAAAQIECBAgQIAAgYoCQpyK2IYiQIAAAQIECBAgQIAAAQIECJQKCHFK5bQjQIAAAQIECBAgQIAAAQIECFQUEOJUxDYUAQIECBAgQIAAAQIECBAgQKBUQIhTKqcdAQIECBAgQIAAAQIECBAgQKCigBCnIrahCBAgQIAAAQIECBAgQIAAAQKlAkKcUjntCBAgQIAAAQIECBAgQIAAAQIVBYQ4FbENRYAAAQIECBAgQIAAAQIECBAoFTgU4vzoRx+HHx54TI25Gr5xaJDhtr4nQIAAAQIECBAgQIAAAQIECBAYC1wiXxHijJ29QoAAAQIECBAgQIAAAQIECBA4SUCIcxKfxgQIECBAgAABAgQIECBAgACBOgJCnDrORiFAgAABAgQIECBAgAABAgQInCQgxDmJT2MCBAgQIECAAAECBAgQIECAQB0BIU4dZ6MQIECAAAECBAgQIECAAAECBE4SEOKcxKcxAQIECBAgQIAAAQIECBAgQKCOgBCnjrNRCBAgQIAAAQIECBAgQIAAAQInCQhxTuLTmAABAgQIECBAgAABAgQIECBQR0CIU8fZKAQIECBAgAABAgQIECBAgACBkwSEOCfxaUyAAAECBAgQIECAAAECBAgQqCMgxKnjbBQCBAgQIECAAAECBAgQIECAwEkCQpyT+DQmQIAAAQIECBAgQIAAAQIECNQRqBbiNAN5MFADakANqAE1oAbUgBpQA2pADagBNaAG1EB5DZw7Llqdu0P9ESBAgAABAgQIECBAgAABAgQInF9AiHN+Uz0SIECAAAECBAgQIECAAAECBM4uIMQ5O6kOCRAgQIAAAQIECBAgQIAAAQLnFxDinN9UjwQIECBAgAABAgQIECBAgACBswsIcc5OqkMCBAgQIECAAAECBAgQIECAwPkFhDjnN9UjAQIECBAgQIAAAQIECBAgQODsAkKcs5PqkAABAgQIECBAgAABAgQIECBwfgEhzvlN9UiAAAECBAgQIECAAAECBAgQOLuAEOfspDokQIAAAQIECBAgQIAAAQIECJxfQIhzflM9EiBAgAABAgQIECBAgAABAgTOLiDEOTupDgkQIECAAAECBAgQIECAAAEC5xcQ4pzfVI8ECBAgQIAAAQIECBAgQIAAgbMLCHHOTqpDAgQIECBAgAABAgQIECBAgMD5BYQ45zfVIwECBAgQIECAAAECBAgQIEDg7AJCnLOT6pAAAQIECBAgQIAAAQIECBAgcH4BIc75TfVIgAABAgQIECBAgAABAgQIEDi7gBDn7KQ6JECAAAECBAgQIECAAAECBAicX0CIc35TPRIgQIAAAQIECBAgQIAAAQIEzi4gxDk7qQ4JECBAgAABAgQIECBAgAABAucXEOKc31SPBAgQIECAAAECBAgQIECAAIGzCwhxzk6qQwIECBAgQIAAAQIECBAgQIDA+QWEOOc31SMBAgQIECBAgAABAgQIECBA4OwC/x+9pm4cNOhNogAAAABJRU5ErkJggg==;" vertex="1" parent="8nkGI7kgPrW99Bi4NLpE-1">
          <mxGeometry x="21.5" y="170" width="790.96" height="240" as="geometry" />
        </mxCell>
        <mxCell id="lc53YEOOYpwnAg5EEax9-2" value="" style="shape=image;verticalLabelPosition=bottom;labelBackgroundColor=#ffffff;verticalAlign=top;aspect=fixed;imageAspect=0;image=data:image/png,iVBORw0KGgoAAAANSUhEUgAAAjoAAAHNCAYAAAAXN9H8AAAgAElEQVR4Ae2dzc8kx33f+w/x0f+BThrAsAiSiyeAbs7FPOU0gESZMok9GUF4ySGHgDuyaMkEFjCvgSNuJBETE2aw4CUnipEiWw7zrIElggRLr3a5z75wX55dVlBVXdW/qq7q15l5uns+BB5OT3e9/OpT3+n6TlX1bKH4DwIQgAAEIAABCCyUQLHQdtEsCEAAAhCAAAQgoDA6iAACEIAABCAAgcUSwOgstmtpGAQgAAEIQAACGB00AAEIQAACEIDAYglgdBbbtTQMAhCAAAQgAAGMDhqAAAQgAAEIQGCxBDA6i+1aGgYBCEAAAhA4bgLPzl/w1NVxS4DWQwACEIAABJZH4MU3Sj168lw9+Po5Rmd53UuLIAABCEAAAsdLQM/iPHz8wpgcjM7x6oCWQwACEIAABBZF4MWLb9TXTyqDo03O0Rmd7bpQRVGoYr1dVOdOqTGnm5VlrDkXa6VJw31KPUQsEIAABJZH4Pz5N8EsjjM5gdHxg1E5OIUYtmptBq7KJFTpS/PgrsvX9bYa5OT5+Lg0Hvky7YAZxhS+qwbYldqchtfsO9GGZBtTefQ5m2+VLjSX6SjPV33gNKH7bSj3o0RIoyEAAQhAoAeBb775Rj159kI9eGxnb6TBccf+qavKZKRMhRisWk2JG+SsKarKFed7Gx2dN2dgLJFqkM2n87F0ntGp2o3RaVPeqdqsyj5ebZT0mv25t9XFdQhAAAIQOHYCeqlKbzh+qE3OPoxOAHi79ssVjR6iJZ0fEMVAWRmYQjWZjSpd3ugEMXd6g9HphMkkqlixNNidGikhAAEIQKA/gWfPv1GPHluTM3ujo043auVmgBpcVLvRycw4yPLLenQ1VXnhTFRgtuK8wqC5JS+/J0iYvOTsVGNZYexbtw8mqC8lFGE+yrY1xl8UKkQs8usLuTYE5wUvU1gYu5zpCfq20EZ2m50VSrWOcxCAAAQgcHwE9FKVNjfyb9YzOsFgGI7CQe9WxiQ3o5MYcDMDtK6mKk8M3GYwtkN17rrbgBsYHWfU5KswKe1lidgzZQQw9JtM25zRydcpZ86E0ZH1umPXhkxddmZHxO7SN8RnjKEuX6atNY4TEIAABCBwbAS++Uapr5/WTc6AGZ1wYPcDjxvcUmZDDHSpy74zWtLtd+mqPuBWg73Yl3S6URv/UFY10DuDYNuSOh+fq95XMzgiBr/nqEpX1RGfk/mkEfFko4Mqf2W8dJKt2uhN1XL2SBgKzz8RW3MbbNnxhnUblIjd1yXOyY3hQh8YnahLeQsBCEDgiAmY/TjRLM6IGZ0JGB1nquSrHyTTPV2Zlu4zOlUe2+a6SasMQ2VC8rMl3hSagqq8cs9KVWcZpxzcZXvdsSkrYwzSKILZnHqbwviD68IA2fMd22DiSKdVSsTu+lDUE3BNpc21kfMQgAAEIHAUBPSj43I/jjQ47nh+S1dukC9fw8Ew3a81A1FLlhhw5cDq65RGqRq8ZQxVXRlTaFxClbfJ6HQrKxV7rYHVCW+eZFuqy1Wd0fWaAenWBltyOm3S6Pj44j1BPdtZNYkjCEAAAhBYIIGn5/r3ccL9OKn38zM67pt/j07LDt6+jKZBVFzThsfXXw3e0ujI/S/BjIivSx9UeZuMTreyRHw+tqCy8E3WSJTJctdr5zu2wRSbTps0OjVD5cLv2U6XjVcIQAACEFgcgdSm45TJ0ecwOqb764Po6WYtflywfj1nVnJ7XMygvna/IZMe+GuGTAz6lcHSAZ+qjS8rFVuTpkXdcg/M6Uat4z06wqk17tER6WptMKGIOkXapNGRJlDEV5UrzWZTO7kGAQhAAAJLI6A3HT9+8rx1uUqanpzROXsk/lHPapATG3M9vdwgViaozQT4jOFBSzofQ5dZi7Dk7FNSet+MnY2pm4VgYPVLVy69rkDkiZbRfKwin9mj42NPM6vqrJaN2ssScfjyIwDR26qecHnNzUzlrle8dIHd25BLGzAUsTfVH3KMGsZbCEAAAhBYLAHzZFVpctr25XQyOg8xOv6HDs3gWvsdGa0lMdh702Q1lhqsnZEI8okZjipPZXR0adX5yphUZfU3OiZCYSyT7Wu7Ltve2gbBSaTNGZ1Um9fbge203cH/IQABCEBgxgRe6MfHn7wwMzna5Iw1OmePztWZNDozZkPoiyGQM0uLaSANgQAEIACBBAFjcp5qk7Mbo6OXrO4/eo7RSbDm1IEI6BmsYOInWiYMrx0oKKqBAAQgAIGDE3jxwv4Q4CMzm7Mjo/PwHKNz8J6kwoBAaqnOLa9VS3ZBFt5AAAIQgMDCCAQmZ0dG5/7Xz9X9h8/VvYfn6vf3zpX/18sXxo7mTJ1AYn9Q9evLUw+e+CAAAQhAYCwBbXLMLI42OO5v5NLVw8cv1L0H5+ru2XP1+7Nz9S8YnbHdRH4IQAACEIAABPoSeP7im8rcOJOzgxmdu/eeqdvm7xyj07dTSA8BCEAAAhCAwHgCfuOxNDjueMCMzoPH52aZ6s6ZXqp6itEZ30WUAAEIQAACEIDAEALa5DzWT1c5YxO/9jA6+kcC7z14pu6cPVN37j8zJgejM6RXyAMBCEAAAhCAwGgC5hePn76wv5UTGxz3vqPRuf/oXN198EzdvV/+GcPDjM7oTqIACEAAAhCAAAT6E5Amx/wooDM28WuL0dFPVH314Nz8eZOjZ3Pu65kdjE7/niEHBCAAAQhAAAKjCTx99o2ZydEmZ5jReWH24Xx1/1nd6Dw4t8tXGJ3R/UQBEIAABCAAAQj0JPDsPDQ5fYzOA/2bOF/bzcZfPXimkkbnPkanZ5eQHAIQgAAEIACBXRA4f143OV2NzoNH1uDoH/7Tv42TMjp6E/JXGJ1ddBVlQAACEIAABCDQh8Bz/U87lEtV8WvbU1fG5Dx4Zp6qajI6ep8ORqdPr5AWAhCAAAQgAIHRBPTm46/LJ6xik9M2o3P/4bk6e/BMnT3E6IzuCAqAAAQgAAEIQGD3BJ7ofTk9jY7+XZwzZ3I6GZ1z83g5Mzq77z9KhAAEIAABCEAgQ+CZ3pejTU5Xo/P0G/Mvjd9/ZP8xTjOb08no2N/QwehkOoLTEIAABCAAAQjsloD75x26Gh39VJV5surRuTU7D5/bZasWo3NX/8Od958yo7Pb7qM0CEAAAhCAAARyBPS+nCf693LcbE7LjM7Dx/rR8edK/8qx/esxo/MQo5PrB85DAAIQgAAEILAHAs/Oy+WqDkZHL1OFszn9ZnT0o+bM6OyhEykSAhCAAAQgAIE6AfePdQazOYkZnUePX6iHj194k1MtW3U3Ovce2n8GYq9G53SzUkVRiL+12tbbPepMVYcte7vW9e2+nlFBlpmnEJuOYbU53UVzLryMuO8vKiATxzqt7H3yNnpqqHeqn4OL6ifqhQAELp7Ak6cvzL9K3mR0tMnRxuZhuS9n+IyO/Wcg9mR0TtVmlTAc27XK3JeH0T/dqFWxUpMct7drVaw2amqWYp8D77BOTOTqwm5Cfd/L6KTaljqXwBKfajI6cdrs+4F1Z8vjAgQgAIEMAb1k9bjF6NiZnOdmNme80XH/qOceNiObG/8hBnkz2E1z9kZNdABZltGZRt9jdDJ3NU5DAAIQKAm4f5W8yeg8eqINznPllq3GGh39S8n6XzDfw4zOVq2LotPMjRkg5NJWMN1jZ4XWWzc7pGeIqtmbXN7UQG6++bp6Vhu11Utqvi4db1Wu6ZPAQLk4bLv8coBJI5blhLEL6tP1lnWlYsu1w2rD1Z1mkPsEhWWGbWuPIZV+W87Q2faa5gTtrxuOfAzNbcqxk20Ny6746jRN15RydUd9KQu3haiV04t+FX0bJ/V1ej2FKSTvVNtS53QJLl/QnigOk7dDvSYibbx9m2wf5+r2bYrS25Y5hs2aDOIOPl8uf0sf2Mr4PwQgsBACT8VsjjY78dLVo6+1wdmd0dH/5tX+jI65odYHvriv7I1QpitvnP7G7W6k1cBrbszyZh8YEluDGyBcfbU87obv6+lmdFardbBEdrqR7+PYzUhVGyDj2HbCwDW0fDVlSkZRfyRjaEmfNJg+T73tzTF06Fcdsy8/aqB7m+j7rjzjvnRFutfWvnUJy1dTr9dTeDHmnZzpS7TX6LaQ+6nqnE2aLvUaVtXnSG03lZYTdY/tvy752/ogpMg7CEBgzgTi2ZzY6OhZHDuT417tRuQxMzoTMDoJc6F7MRi87I092DgbXI/TWxmEA0u6nnCASKQJ6knEkVJcPGDE78W39DLS+kzSEAZBLIm2+FmMstZgM3K39G5Gqoo7mrEL2tpWZoJnwDttEoNm6jdxHpWqN06XqLtWcOJE0L76dWuwxOyenwmx5wINp8pKnAs1WtZp2lwZlmSaMmnwOaixEm2o1Z3iaLlZT5VgGJQ/IL8Ih0MIQGB5BJ6df+P35silK7NU9eS5qpasdmN07j7Q/4Dnswue0dE31+STUfImKW+uZcdHN/r6YFdN+ZscwQ24Ek/4DVzWKetxs02JOHyy6KkyOQtRG0Ci2HbFoGqWrkAsT4QDr/viHwyAfdObuhK8ZFtby0zwjPtVlifbJ4/jvjX1uj6TCWW8ibplUnFcMy+yb0U6fRjqKbwY8NaXUm1LnKvlM8XKtlg9hSa0qjvMb9utl66cDnzKuG7DMdSOW/KSRicoR/bfkPw+GA4gAIGlEUjN5rgZHfMvkz/dvdG593DfRkfe9HI9Zm6GAwaluOx4sItnTTL1hANTOHiYkINyU4OjzhPt3dB1ycEwft8xNhXMTCTqjhlIxpn2hknEckjf9KagBC/Z1tYyO7RJlieDl8dBH5UGYoh5lmX69rX0bZQn1FN4MTQcF2V0ypgMM21ixGcvZj22/4bkD5HxDgIQWBCB8+f12RxjdPRMjjY5ezE653ue0SmXSnLfNE3/5QbrYPDqMCAG6a0ygoElU49OU8WXGbj9YJCLQwwW7lt9H6OTiS2cpcrVXS1fBJ+HXJkiURc+IrnfFFudy/BybW+NoUOb4sG3qrw6MvWIPsjVG6RL1F2VaI+C9O7UKjSxUZ59GZ1Ko2WFkYkIdRwGFfRzcMky8MtpMescR19GgqHMI499HnmQyC8vcwwBCCyKgPvdHLdkZV6lydmD0fnq/tN9Gx3dR4kZD3O6+h0dc5P2ZkJfjG7A0d4S0/PxTdS8F4NdPGviTJcbhMsYzFS8n3u39VaDShm7jy1xY07GkZgF8GWY6GumYScMbNH+/8ky19Xv+cQDYN/04YxTWW00WDaX2YFnNKD7xsmDTN8HsxVdNCXL1Mdd+jbK09voRLqwS451HYdLTVaX3qCUWq90GwYV9HPw+1UR/wTrsf03Nn/YEt5BAAJzJfD8RX0258kz/cSVmM3Zh9HRj5XvdY+O75HSQMiNmdJwuFkQcV3exJ3x8X5El5schOoDRKoct89ADwz1gcmZm3JaPxhEo4GhbJ8pw8Wu2xUN9i5+aaqCwSdVTvCUjWmweay7kUFZjnyxA021z0LySMXQL71mFc0o1dpe7h9xfIJ2JXjG/eoMqs4fNF60Muij6nzQL0G9Ok2i7iqrPwrKSPatT2oO6nqqrtd5i8+Fb1v9nM0XPtYfs4j7zWit/IwF9RpWaT04JlKnOvq47EpDCYa1/hufvyLIEQQgMFcCqU3Idn/Ofo2Oeaz8MEZnul0TDALTDZPIjpgAGj3izqfpEFgIAbls9fUT+avI+zM6Zw/L3885aqOTmKpfiKZoxoIIYHQW1Jk0BQJHSMD94516BufJM72EVS1j7Xvp6uhmdOIp+HAPxxGqjybPggBGZxbdRJAQgECGQO5pK5auMsA4DQEIQAACEIDAfAiE/+TD8+AHA/c7o1P+UOBRL13NRydECgEIQAACEJglAf10lXmU/Kk2OQc0Os7guFf3j3qaX0s+V3fOnqk7Z+fq9/eeqtv3nqnb987V78/O1b/cO1fFLEkTNAQgAAEIQAACBydgl6i02Tmw0XH/mCdG5+B9ToUQgAAEIACBoyHwWM/omE3IGJ2j6XQaCgEIQAACEIDAdAmwdDXdviEyCEAAAhCAAARGEsDojARIdghAAAIQgAAEpksAozPdviEyCEAAAhCAAARGEsDojARIdghAAAIQgAAEpksAozPdviEyCEAAAhCAAARGEsDojARIdghAAAIQgAAEpksAozPdviEyCEAAAhCAAARGEsDojARIdghAAAIQgAAEpksAozPdviEyCEAAAhCAAARGEsDojARIdghAAAIQgAAEpksAozPdviEyCEAAAhCAAARGEsDojARIdghAAAIQgAAEpksAozPdviEyCEAAAhCAAARGEsDojARIdghAAAIQgAAEpksAozPdviEyCEAAAhCAAARGEsDojARIdghAAAIQgAAEpkugeP/99xV/MEADaAANoAE0gAaWqAFmdKZrQokMAhCAAAQgAIGRBIp79+4p/mCABtAAGkADaAANLFEDGB2MHkYXDaABNIAG0MBiNYDRQdyLFfcSv5nQJr5xowE0gAb6aQCjg9HB6KABNIAG0AAaWKwGMDqIe7Hi5ltPv2898IIXGkADS9RAcevL24o/GKABNIAG0AAaQANL1EDxvb+7qfgLGSyxo2kTNzA0gAbQABo4Rg1gdBJG7xiFQJu5AaIBNIAG0MASNYDRweiwdMnyLRpAA2gADSxWA/wycuIXF5foaGkT39TQABpAA2jgGDWA0cHoLNbFH+MHmjYzkKEBNIAGQg1gdDA6GB2mrNEAGkADaGCxGsDoYHQWK26+1YTfauABDzSABo5RAxgdjA5Gh29yaAANoAE0sFgNYHQwOosV9zF+c6HNfGNHA2gADYQawOhgdDA6fJNDA2gADaCBxWoAo4PRWay4+VYTfquBBzzQABo4Rg1gdDA6GB2+yaEBNIAG0MBiNYDRwegsVtzH+M2FNvONHQ2gATQQagCjg9HB6PBNDg2gATSABharAYwORmex4uZbTfitBh7wQANo4Bg10MPo3FRXTwpVFOHf5esJpzCVU9cvq6K4rPqG2FsIv7qivqO5vHRFfVr7VvCZeuelQn3v2sI+YKbNL6l3flVv16dXXsqwqKc1rK+9roridfVBjV0mPekwp2gADaABNNBRA92Mzs2r6qQo1MnVm6GFuX65fi5McbHvDmV0fv0Tdak0gK/XDM1v1LuXCvXnH/YZtGdgjkybL6l3f11v12d/dUkVl36iPusowlsfvqmK4k31Ydf0pOMGhwbQABpAAx010MHoXFeXi0JNeuYmZ6cOanRO1NWregYpnpkYYnSG5Kkbjt4zUx1FY8rF6HCT6aMX0qIXNIAGLkgDrUbn5tUTVZxcVdFcTtpalDM/bnkrmAFypiNIEy0rBdeiGSSX37wWqiid1/XLcintRAWTTi5POtrs2d4GwQ36vzu1y3vfvyYEnTIt19T3giVAYY7cMpi/LpaHomvfufKZqMfOAjn26WW0HZoh1+auMzpNscczOm4pK8qzuOW/C/rQ99Y3cYrP2Q4/Q3CFKxo4iAZajY42EoFhydkDY1Kk0YhmgpxB8aap3PPjpoq65nfpTRzX1WXxvmbKDm10fn1XPbihl/leFntXIqNTDt6vCkd28+qr1UzQnUfqXFk2tmnn6sGd2+qWyfeKes87zuvqraLa+/PB9wtVvFXtRrr+Xo+loyEftj5GpyX22tKVMT56z9NP1A2nN9OXwvQNiZk8B7mpYKQwQ2gADUxJAy1Gxw64odGJNiWXRiNliIzxcEbEDFTSCCml9LnS+AzK7wZB92rMkpglOrjRua1u3Xmkbly9JDbjhkbngx/Y2ajzh3f9oHP74Q0zE/Syn6EJ82jB6HyXrt6wpscM2Gfqcz3b9oadPfrwzUKd/PQffJn3Hj5St/c5sBujI2fTomOxR6ct9rTROVFXb4g2nNnZslc2chaLm8mUbibEgh7RABqYogYGGB3nKpSqjExkfvyyS+GNjDE18RNQ3ogMzK9DiZa7gqesfPlVzF2OendUNLtx++HHZl/TS8a4SNPymfrLV0NDYuu6q7ZvFar44S9LoyLz6A+OzeeXpSTfV39snvS695HeH6TNhlgG27vRiYxrCdfowhud9tjTRucttdUzWb4NMSN5jeOKEyxggQbQABqQGmgxOqWZ8ctNoU2IjU448xOm7WJ0+uY39RdisJ3CjE452/LYmKwfqA++lKbFHl/6q9+IAdwKUs/IFG9+mDE6Nl+Sz3k563H21AC3y2C5R913KP7I3ElRhU9ddYg93qMTvy/NTjxrJevkeId9680lZaIrNIAG5q+BVqPjZkzcCpS0L5XR0atQ1QZhmcYfp2ZXxLn++RPLapMxOrfVrbOnlsn3fyQeL8/NSthZj8sfnWWMTi5fXYC3H57rNUF1uXhFXUn8xs3OPrSdjU6H2GNjE783A69l9NZ/rZb8dtYWBvaa8YZt/bMFE5iggXlqoN3omNWhE7MsEpsdaXSShuj65eqxdGFqkuanXIIK6mjJH5ojt/x1wXt0xKB573P7+0N6Scn9jo47J58g+vTKy6q4dFV9fuZEZGdBXv1xtR8lle/WtdfLHyL8TL3zffFjhb/6sXq1SP/Gzc4+qJ2Nzm3VHPttlV66KlQhnl4zjIrL6iPPyLHidWd9KrRLmegKDaCBpWigk9ExxqS2F0bvBxHLRjqRMTNiU6pc8mozOkPym5kLV9+JunpdG4vpGB27MdmaRGd09Lnzm1fVq3KfzSvvqZtuCcoMNnfVg4/dnpvySSOdL+b78l+X5uiu2uqlL1HmW9fLp7X2NXj1MDqmzdnYc0bnsrr+0RuiTW+p6+qpurev9lAuszpoAA2ggUVqoLvR8dMwyz/o7WLNI+FpY2GXkpR6LGciTHrBMTA55beIcs+NUqJcf67MK/LdeyLKU1F9+/jwtrVZxGZ4NsSul/mUNDFu6SrIg8nprct99DtlLnIgQFvM3ixZAxid0B+Yd0vu8Fm0zRkdBlUGVTSABtAAGhipAYwORmd6HyKMzvT6ZOSNZhYGmzaiOzSwSA1gdDA60xN2vJTFzWd6fUSf0CdoAA3MRAMYHYwOH9aZfFiZFWEfBRpAA2igvwYwOhgdjA5GBw2gATSABharAYwORmex4uabT/9vPjCDGRpAA0vTAEYHo4PR4ZscGkADaAANLFYDGB2MzmLFvbRvJbSHb9poAA2ggf4awOhgdDA6fJNDA2gADaCBxWoAo4PRWay4+ebT/5sPzGCGBtDA0jSA0cHoYHT4JocG0AAaQAOL1QBGB6OzWHEv7VsJ7eGbNhpAA2igvwYwOhgdjA7f5NAAGkADaGCxGsDoYHQWK26++fT/5gMzmKEBNLA0DWB0EkaHUxCAAAQgAAEILIMARmcZ/UgrIAABCEAAAhBIEMDoJKBwCgIQgAAEIACBZRDA6CyjH2kFBCAAAQhAAAIJAhidBBROQQACEIAABCCwDAJHa3T+9me/VPzBAA2gATSABtDAMjXgbNpRGx0HgVcIQAACEIAABJZDQJtX9x9Gx5HgFQIQgAAEIACBRRDA6Chllq0W0Zs0AgIQgAAEIACBgABGB6MTCII3EIAABCAAgSURwOhgdJakZ9oCAQhAAAIQCAhgdDA6gSB4AwEIQAACEFgSAYwORmdJeqYtEIAABCAAgYAARgejEwiCNxCAAAQgAIElEehldLbrQhXFSm1O6whONytVrLf1CzM4IyG4cJvaozmsSgiWieaS+FtvVdt1XV89TZqxi829mnwZ5rbMtZpnj7gWHubV9LXpP8sLdofhTi0QgAAEDkFAjvGtv6PjB+TVRsVep8kYHKIhY+qQEFw5Te3RHJzRcen1q+GTMR5N1+Py7MDbbnba6pOxZY+3a1Uk+jObfmkXTjdqlTHvS2sq7YEABCBwjATkGN/J6Kw2G7Uu6gN9kzGYOlgJwcXa1J7YmLg8bcYjd71e3qnarOqMXT3uNVeeu97pFaOjVgUzX520QiIIQAACMyQgx/iORudUT12oIhocasbAfFMWyznRrIEd3LdmQHfLPmYyJMhXH4DsbIcrV8x6jPhmLiG4Pqy1x10oZ272OaOj1HijUzNPps9CbsYoySU3MRuV5VzGtt7aGG3fiX4oObXn3xrDHOtIYPaHYVmFEmGq+Fq4fGpjzMWay1tj52brHKvVRm1nvFTrwXIAAQhA4AgIyDG+u9FxN34x4phBI3i/Fnt5ykFRXLeDbDVA+kHHG6J6HpPGXzdBVIZrgUZH4EpK0TDMJAoG65jNdlP1TWJGp5FzaXTkXi0Th+iXLvlXK6mPZPPMSasLYXhPN2pTbjyqXXOxeSbOjFU6i2NVho0oP2Fka3mcafT15OPnCgQgAAEIXCyBwUbHDhDVAGIGnaYbfzSgmsEjSG+/4Yen5P4Rfb2qz2Jz39jHQZQQXEl2EHUzIPXXfc7oGDbRjJmLS77WGVZX9TUfY2Iw9ymjflGqjbNl7svWBQXlD8jvg4kPEprwSVL1xLG0xRqnt4UH7JI82vdj+TA5gAAEIACBCyUgx/heMzo6amMGym/yKaNTMwviW384mOjSEgOXHITdt2i3fCBeA3M0AKeE4LKn2uOu1WO3V/T5cOnE5Wi+bvKJ9nTdHNxUXxijm9kIl31MVJKxPtHKOWEu5YzRkPwhpuqdKSucbfEXs9ekjlpi1YUFJs2WHrBLXLfZ5vuUoWfIAQQgAIEjICDH+N5Gx5oTO3MQGgP7TTwYsPXANNroZAa9kR0lIbiiwva4s/Y1GAjFpSbjoZPlrufKE0UnD3PlubqCWRd90gzaenZKcIz6JbX/Kqy8xTxkDYgrJZHfXYpfm8rKXtux0cnU06SPuBm8hwAEIACBiyMgx/gBRsfNAKzVRm7OTHwLNgPDGKNjyoyXrnYDTkJwJTYNZDlj0mQ8dLm567nyXCy511x5rq6a0TEFWaPhr+mBXPRLvCRZrzthVGTfyON6Zu22zAb0TrNwTWXlrpnzzoVnD1cAACAASURBVMgl6orzBeltwEF/xOnLNjWxTzabkxCAAAQgcCEE5Bg/zOi4AVwvvbjRKx4czPsiGFCDwcQ0XX4TL1lEg7AZXORshB401+Vv+sR19sApIbhsizI627V4Uika/BMzFo2cU0YlYt87v4OeeK2VJTYj166VsXkT1yHW1qWrsozADBpmQu+JuDkFAQhAAALTICDH+MFGxy+JOKPj9u+4fSd6xiBhWqoBScNoNzomlfl15mpzsC8jGmz74JUQXL7ZGB3H2L2WszPaBIRsEsxMY63xMY+Ji/6zJiKVJzJKuowE+175HfTMa1hWOKtn+sm1vfb7Th1iNbG7GSAbQMDOnBKMdF3rrd2fJnhlQuc0BCAAAQhcMAE5xrcanQuOdW/VSwh7q4SCF0WgboYW1TwaAwEIQGAxBOQYj9GZXLeWm7rFjEXw44qTi3dIQDNsY2K5b0jLyQMBCEAAAvsngNHhXy/fv8pmXkO4dBY9tTbzthE+BCAAgaUTwOhgdJaucdoHAQhAAAJHTACjg9E5YvnTdAhAAAIQWDoBjA5GZ+kap30QgAAEIHDEBDA6GJ0jlj9NhwAEIACBpRPA6JRGR4PgDwZoAA2gATSABpanAWfmjvbxcgeAVwhAAAIQgAAElksAo7PcvqVlEIAABCAAgaMngNE5egkAAAIQgAAEILBcAhid5fYtLYMABCAAAQgcPQGMztFLAAAQgAAEIACB5RLA6Cy3b2kZBCAAAQhA4OgJYHSOXgIAgAAEIAABCCyXAEZnuX1LyyAAAQhAAAJHTwCjc/QSAAAEIAABCEBguQQwOsvtW1oGAQhAAAIQOHoCGJ2jlwAAIAABCEAAAsslgNFZbt/SMghAAAIQgMDRE8DoHL0EAAABCEAAAhBYLgGMznL7lpZBAAIQgAAEjp5Ao9E53axUURTib622M0a2Xeu2zLsNM8ZP6BCAAAQgAIGDE8gYnVO1WSVMwXat1nNxOtu1KlYbdXpwpFQIAQhAAAIQgMBUCCSNjpnJmbtJwOhMRWPEAQEIQAACELgwAgmjs1Xroug0c1Nb2gqme+ys0HrrZof0DNFKbfwUS9t1yySsQ+ZPXbdx2yUqseRWxqXPr6oATAFh+YUqerXhwvqNiiEAAQhAAAIQ6ECgbnT0TEiHfSzWIMj9LqWh8UbBGZzKnBgD4meK2q4rZerw6ZVSUWy1GE43auOW1hIzOrHRqeVXfdvQgTBJIAABCEAAAhC4MAIDjY6e9akMjI/+dKNW3iRZ0xDMoPS6nqrDlmm9VMvMU6vRSZWvtLvq0Qbfcg4gAAEIQAACEJgggWFGJ5pZqdolzYM0JWUKYyKcQWq5buoQy0/i6S9jdLIxlHW1GZ1s/j5tqFrOEQQgAAEIQAAC0yNQNzqBGckEvBOT0MXoyKWxKJZsDGU6jE4EjLcQgAAEIACB4yNQNzq1fSoJKDkzlFj28Vt2dDFBvhajE6TtEYNL2mZ0cuX3aoOrjFcIQAACEIAABKZIIGF0dJh2/0vtd2jE7+jYJ5vkjIs1LtWenBYjUxqqvBHSe4/j3/I5VZt19ds4tevxZmS/X8iijzcj1/KXMXVvwxS7lJggAAEIQAACEHAEMkZHX7ZGJfhlZPkElJmgCX85uTIIVf68kWkzQjZEa0aqvTphHc4Muetu/09Vv4m/DCI2OiZV9OvPYfndYrSR8n8IQAACEIAABKZGoMHoTC1U4oEABCAAAQhAAAL9CGB0+vEiNQQgAAEIQAACMyKA0ZlRZxEqBCAAAQhAAAL9CGB0+vEiNQQgAAEIQAACMyKA0ZlRZxEqBCAAAQhAAAL9CGB0+vEiNQQgAAEIQAACMyKA0ZlRZxEqBCAAAQhAAAL9CGB0+vEiNQQgAAEIQAACMyKA0ZlRZxEqBCAAAQhAAAL9CGB0+vEiNQQgAAEIQAACMyKA0ZlRZxEqBCAAAQhAAAL9CGB0+vEiNQQgAAEIQAACMyKA0ZlRZxEqBCAAAQhAAAL9CGB0+vEiNQQgAAEIQAACMyKA0ZlRZxEqBCAAAQhAAAL9CGB0+vEiNQQgAAEIQAACMyKA0ZlRZxEqBCAAAQhAAAL9CGB0+vEiNQQgAAEIQAACMyKA0ZlRZxEqBCAAAQhAAAL9CGB0+vEiNQQgAAEIQAACMyKA0ZlRZxEqBCAAAQhAAAL9CGB0+vEiNQQgAAEIQAACMyKA0ZlRZxEqBCAAAQhAAAL9CNSMzo0bNxR/MEADaAANoAE0gAbmrAFnh5JGx13kFQIQgAAEIAABCMyNgDZo7j+MjiPBKwQgAAEIQAACiyCA0VlEN9IICEAAAhCAAARSBDA6KSqcgwAEIAABCEBgEQQwOovoRhoBAQhAAAIQgECKAEYnRYVzEIAABCAAAQgsggBGZxHdSCMgAAEIQAACEEgRwOikqHAOAhCAAAQgAIFFEMDoLKIbaQQEIAABCEAAAikCo4zOb25+qW59eZs/GKABNIAG0AAaQAMXooE7d75K+Rt/bpTR0Sbne393k78EAwwgBhgNoAE0gAbQwGE04F1N4gCjkzApuzBviPsw4oYznNEAGkADaCDhb/wpjA5G50KmGrkxcWNCA2gADaCBXWnAu5rEwWijkyiTU0phHlirRgNoAA2gATRwIA00GQ+MThOdEdd25VIph288aAANoAE0gAaaNdA0XGN0muiMuIYom0UJH/igATSABtDArjTQNFxjdJrojLi2q86jHG4EaAANoAE0gAaaNdA0XGN0muiMuIYom0UJH/igATSABtDArjTQNFxjdJrojLi2q86jHG4EaAANoAE0gAaaNdA0XGN0muiMuIYom0UJH/igATSABtDArjTQNFxjdJrojLi2q86jHG4EaAANoAE0gAaaNdA0XGN0muiMuIYom0UJH/igATSABtDArjTQNFxjdJrojLi2q86jHG4EaAANoAE0gAaaNdA0XGN0muiMuIYom0UJH/igATSABtDArjTQNFxjdJrojLi2q86jHG4EaAANoAE0gAaaNdA0XB/Y6NxUV08KVRTh3+XrTSFe8LXrl1VRXFZ9Q+wlyl9dUd+JmFSMXlcf6H8rxKR5Sb3zq0xn18poSLuHf3vk0ysvqaLoUaeJt2zbHuLpxb9v/XOOvW9bSc+/VYQG0MAMNNDkFA5ndG5eVSdFoU6u3gzjuX65fi5McbHvDmF07jxS566VhpM0Vk/VPS2yX/9EXSouqXd/nTA6115XRfGKek+ivfmeevfnibR7Eexn6sorl9TJSaFe2XzW7aZg2vOm+nAv8ey53XOOfY68ibnbZwpOcDpiDbghNPV6IKNzXV0uCjXpmZsUHX3uEEZHijM3iDYYnQ/eKFRx+WP14I4Y4O88Ug/OxHtZx66Pf/Uj9cql99SNjy+r4pUfqU+7lJ9rZ5e8F51mzrFfNDvqZzBGA2hgDxrIDeH6/EGMzs2rJ6o4uarkhEM2qHLmxy3dBDNAznQEaeTsh1IquBbNILn85lWbA7sgdf2yXEo7UcGkk8uTDTh9YfDSSW4QbTA6v/3piSpe/XE3g7EHgX26eUVdeu+f1O2zvzeG9vVrCYMVLK29pN75uZ6hKmd0zLV42esz9c5LhfrOFTtD9MH3ZR9Fac2M1uvqg6COeFnsmvqeXB586UrFK8hX1en7MLgexb4Hnr5eymZAQANoAA100kB6JLZnD2J0tJEIDEsuImNSpNGIZoKcQfGmqdzz46aKuuZ36U0c19Vl8b5mymZgdG4//NgYjKKIB/eE4dj5h+aaer24pN773V1168sz9ZE2jW9cC4VZGoW3/EanG+rdl7VxKY3OnX9S78XLXnqWqLisPn6oy72m/uxNn1ndvHpJFdKofPim3ff10k/UDdOnpS6+7+KwJudV4WCvv/cT9ZlmYWKTy37X1VtFob7nzFpb7DvneYg+ow7MJBpAA8vSQM5W6PMHMDp20AmNTrQpWcyshOn0BM2Jn3mxy0jSCJVLS6XxSRmq1vwxHWOWxCzRDIyONhiPDQo363FAw3PtDVWcvKf+sVw2u/eR3rz9ht1AXZqAD35gZ88e+6W0u+rBDb1ny+3Ruav+8b2TYNlLzxIVl//e7k/S7Xty5s3T7d+9p06KH6przmQYo3Oirt54pG6bc3fVA72MVs5yfXrlZaOhc2Oa7If73kObVsd26eoNsex3pj7XmivNWnvsy7pZcPOnP9EAGpijBuKhXL6/IKNThVAZkcj8yGUGN4OTMh3+3MD8OpRouSt4ysqXX8Xc5WiwUAYsXbm67j0xjSmfbIuWd5wp2PGr3h90opetXLnl8tWfuRmRLz9Tf/lqoU5++g/eqJh4o3Za8/KKumKeKtObmwt1+aPK3NiZF2fkxGyQrtcYnbfUVu5RMue0GbJl1eo38drY3DJp8GpMUrfYHX9eGSDQABpAAxejgaZx+QBGp5yVcWYliiY2OvGMTpA8ZTr8udTMUZA7ubHY1F+IWaJZzuhIYd1VD851UwtV/MAt3cjruzy+pv5MGlJ57JevfqPevVSoS3/1m0ajc6tcvnpDPylWLlt9VM4A2UfXxfKS6SM3G+SMjnjvzY8+l6nfGB17Lam5cz3jk8kbmTRubLvUFGWhJzSABvprIBrtg7cHMTpuxkRshfFBVEanHJxTiVxqb2rcifCpKDO498qfMEezNzpWIAfZoGyWrRKbzA3Dl8vf/Lmrtm8VqvjhL0Oj8/MfVnt0jOkol6/euKbM5uarp+WyVTkjI5eXYqNhZm9yRidTf1lnMjZzTXPM5K3F3v9DyY0MZmgADaCB3WlAuILa4WGMjlkdOjEbRmMfIo1O0hBdv1w9lt5idIbkD82RW/6a1x6dD74fL1PpDcLRkpIfvHclrM/UOy9n6og2F9t9O2KD75fuCajQnNhN1S+rl15xm5t1rLHZsE9j+Y3Mul2NRue2uve5/Q0n9wSXvrl8cMU+deWu+c3Hurxrr/vNyF1j54a1K11RDlpCA2igvwZq7kacOJjRMXWab/pyn4U+FstGOpExMyKNXPJqMzpD8iv7ZJfdn3Girl7Xg+JUjY7gUi4T6QH6tz+9VPu16T+/rpTcfLvzD45ZXjopn7aKRRltLj57GvXrG+qjePnJGLHyqa1L1eZmHfe9J7KPXlbvfiw3MrcbnVv6BxlvXlWX5NLaD//O7ivS12LNvfzX6nO3cbpz7DED3u9cczs36/QRfYQGlqIB4Wtqh4c1OrXql3tisHjMrySXv4Ysb+zy15MFNv0k0+2H/neV/ZXqCac9fZBNPOfiaaWwHhOT2edSnteGwf/3VN3LtNNsqJb5SgOknyqz/52rB2f6l6QFI1O2eK/zxOdifuIpLpvWla+UiuvvGPvgPpf9zHG4xAkPeKABNNBBA+IOXjvE6NSQ7OYEg15ofOABDzSABtAAGtiXBppGboxOE50R1/bVmZTLjQINoAE0gAbQQKiBpuEao9NEZ8Q1RBiKEB7wQANoAA2ggX1poGm4xug00RlxbV+dSbncKNAAGkADaAANhBpoGq4xOk10RlxDhKEI4QEPNIAG0AAa2JcGmoZrjE4TnRHX9tWZlMuNAg2gATSABtBAqIGm4Rqj00RnxDVEGIoQHvBAA2gADaCBfWmgabjG6DTRGXFtX51Judwo0AAaQANoAA2EGmgarjE6TXRGXEOEoQjhAQ80gAbQABrYlwaahmuMThOdEdf21ZmUy40CDaABNIAG0ECogabhGqPTRGfENUQYihAe8EADaAANoIF9aaBpuMboNNEZcW1fnUm53CjQABpAA2gADYQaaBquMTpNdEZcQ4ShCOEBDzSABtAAGtiXBpqGa4xOE50R1/bVmZTLjQINoAE0gAbQQKiBpuF6J0bnzh/8oeIPBmgADaABNIAG0MBFaACjgxHDiKIBNIAG0AAaWKwGMDqIe7HivohvDtTJN1Y0gAbQwLQ0gNHB6GB00AAaQANoAA0sVgMYHcS9WHHzrWpa36roD/oDDaCBi9DAhRidpkq5BgEIQAACEIAABIYQSBmppnL29tRVU6VcgwAEIAABCEAAAkMIYHSGUCMPBCAAAQhAAAKzIIDRmUU3ESQEIAABCEAAAkMIYHSGUCMPBCAAAQhAAAKzIDBLo3N65duqKArxt1bbWeBOB7ld67bMuw3plnEWAhCAAAQgcLEEZmZ0TtWVbydMwXat1nNxOtu1Kr59RZ1ebL9TOwQgAAEIQOAoCMzK6JiZnLmbBIzOUXywaCQEIAABCEyDwIyMzlati6LTzE1taSuY7rGzQuutmx3SM0TfVlf8FEvbddtxYR0yf+q6jdsuUYkltzIuff7bVQCmgLD8QhW92jANcREFBCAAAQhA4KIJzMfo6JmQDvtYrEGQ+11KQ+ONgjM4lTkxBsTPFLVdV8rU4dMrpaLYajGcXlFX3NJaYkYnNjq1/KpvGy5aVtQPAQhAAAIQmAaByRgd/UuEqT+PKTIT/nxwoGd9KgPjL51eUd/2JsmahmAGpdf1VB22TOulWmaeWo1Oqnyl3VWPNtiWp3hyLq0zuMAFDaABNLA8DejRcDJGx5uS3EEXo5NNI82DNCVlZcZEOIPUct3UIZafxNNfxuhkYyjr0tflbJCZEBJLV9n8fdqQg8h5CEAAAhCAwHEQ0MZV/zcfoxOYkUwn7cQkdDE6cmksiiUbQ5kOoxMB4y0EIAABCEBg9wTmZ3Rq+1QSUHJmKLHs47fs6GKCfC1GJ0jbIwaXtM3o5Mrv1QZXGa8QgAAEIACB4yQwQ6OjO8ruf4mXfvRmYGdc7JNNcsbFGpdqT06LkSkNlSvPyCMyH8k61tVv49Sux5uR/X4hK754M3ItfxlT9zYcp6hpNQQgAAEIQMARmKnR0eFboxL8MnK058U+tVTto6kMQpU/b2TajJBFaM1Irg79IFZ1LfX4uom/DCI2OibK6Nef+7XBxsj/IQABCEAAAsdKYMZG51i7jHZDAAIQgAAEINCVAEanKynSQQACEIAABCAwOwIYndl1GQFDAAIQgAAEINCVAEanKynSQQACEIAABCAwOwIYndl1GQFDAAIQgAAEINCVAEanKynSQQACEIAABCAwOwIYndl1GQFDAAIQgAAEINCVAEanKynSQQACEIAABCAwOwIYndl1GQFDAAIQgAAEINCVAEanK6mFpPvZz36m+IMBGkADaAANzE0DQ4dhjM5QcjPNp4X9xRdf8AcDNIAG0AAamI0G9Ng19D+MzlByM82H0cHkYXTRABpAA3PTAEZnpqbjIsLG6HCDm9sNjnjRLBpAAxidi3AMM60To8MNg0EDDaABNDA3DWB0Zmo6LiJsjA43uLnd4IgXzaIBNIDRuQjHMNM6MTrcMBg00AAaQANz0wBGZ6am4yLCxuhwg5vbDY540SwaQAMYnYtwDDOtE6PDDYNBAw2gATQwNw1gdBKmY7suVFHIv5XanCYSzuSUbs9qBw1IGZ1P3v6WKl57P/l7Cu+/Vqhvvf2JuaaPQ6bi/Wvvq7br+oNVT/Mt9fYn7Tcdk6+M0cQb9K2Nw8XZ9wNclfeaen8Hv6uhY22KpYl339hJ364dGMEIDcxfAxidhFmJjcHpZqWKYgdmZ7tWxWqjDu2Z4vYkmtzp1BijI28W0njI8+44dz02AdZktJid918LjFjaKLyvXjPmp6dZ+eRt9a2ipf6e5idu4xc6/m+9rT4R5eg2NJkhx5HX+d+g6UP6EA2M1wBGJzHE143BqdqsdjArgtGpZncys0D6Q93V6HzxxSfq7W81zYDo66ERSRsd/UGyZeVmp5I3G2N0epojYVhSZXYxOl98oY3ZbutNxcK58TdYGMIQDVy8BjA6vY2ONT3r7VatzSzAWm3LMuzMj1iSWbsrSmnzFCzdiGtN+Vx4cRqRXcXXCnlR2br90tXpRq0Gzk5NbUbHmZPs7EY0m6NvOHmj84UysyeRgTDp/VJXZZrC80U1a2TMj+jrYDZGG5SqDHMDjMySNDrG8Pm6RR1lO7LtbjFT3Hgv/sZLH9AHaKC/Bk5OTtQnn9jtEDG/3/3ud+pP/uRPktsoMDrOSYjX3IyO9Q/l7M5qHezbsWajMj1K2XSB6UjM6HTJV0tzulGb0kPVriXqDdqzQKPz2vvpD4w2I7EZaDQ60VKUSSuNijZO0ghFJkV/8D55+zWxbyieJepndMwHObF05c83zIrFNwHepzUCF7iggfloQJuclNlxJudv/uZvMDrCyzQeBsagnBEpCmdiUstYenYnsYfHmAqXzxQU7dHpks/OHEWTNGX8XfJHMzqNLW++mJ3RkbMO0XFsNPRNJbc05W44uetytsOXI41HNJOh08cmqNHomCUhN+OSMCXl8pYvM2F0XBv8a2BUEmVGZcRtTO3RMWXrfNKERW339XM+eeODz3wGN/qKvpIaiM1Om8nReZnRSYzttWWmYAOxW7oSGfVMjTdC4ryKjEg8o9MlXzZNaZw61BsbNxlhn+Os0cnMLNQG7XLQ1eeb9sLkrpvz0kg1DvT1/Tla8I1Gx5iO0uiY2RuxBCXqbTM6pg6RvtpMvEOjwz4dDAwmFg0cqQac2dlut2a5KjeT4wwSRicx0jcbA4yOE0+bcdiH0UnNEMl45LGu35uS8obQaHTk7IsxOi0bfqPZGLtJuAifkpJlBjNG5be0qIwasyC/+GbHjA6D3JEOcvIzzrG4JxyBHn7729/6z702O3/0R3+kpMmR16U2MDq7MDq5fS9tS1dd8uXS6Lhz16J6m41bAkDm1BRmdPoanTh93ujo2RZhjOTsTu4GEpmUL+L3bgbJzzwlZnQiQ9XZ6Oh8mZk0+QHn+LgGAvqb/kYDdQ1gdBKDerMxSMzo1PbxGBdSfyQ9sQyl6wqXvep7gGppxGbk2rVyM7J/yqqMzb/PmaMEh/jU3IyO2d8SmYGk0TEGpb6cpk1HsPlY79F5TfymTWxszHu3x+cLZY2PnOFJbU4O60gancQ+JN2O2MRxg6vf4GACEzSABjA68WgeG4Pa9bTR0cnsE1DVvg5vLnwZNq95zFzsLm7PFz+eHm58bssfGLdjMjqJpSJjdOT+GXOcX6KyZqfq08BcxEbHzeC48vVMTm3pyc4c2Z8aeE29H5VRMzru9310md606TLyMXNj58aOBtAAGqg0gNHxJoSDT/7n/1HrH32k/tW//c/+742f/jf1P/75SwMnNaMz+Q/TApd4mM2pbmCT119u2ZPzfq8FfYie960BjA7+xhN47T98aAzOd//dz9R/+uR/BWZHJ5ql0enwOPu+P2S7LD+59MagyaCJBtAAGshqAKPjh3kO5ExOfDxno7NLo0FZfPtEA2gADcxLAxgd/I0n4MzNra8eqX/+f1/5GR19HqMzrw82N2L6Cw2gATRgNYDR8cM8B87o/Jv/uFXa7Lj3GB1umNww0QAaQANz1QBGB3/jCThjg9HhhjbXGxpxo100gAZiDWB0/DDPwb/+9z83szj/984DA+PT/33LvNdPYun/tFhiAfGemwoaQANoAA1MWQMYHfyNJ/Bf/vupcmbHze7oJ7H0Y+fO6GjB8AcDNIAG0AAamJMG/EDX8+DGjRsmx50/+EMV/zUV5fLpNEWcUF6Mr+n3t768bU7HFer3/AcBCEAAAhCAAAR2RcB5kr6ew+XTcWB0dtUblAMBCEAAAhCAwE4JOMOC0dkpVgqDAAQgAAEIQGAKBDA6U+gFYoAABCAAAQhAYC8EMDp7wUqhEIAABCAAAQhMgQBGZwq9cMAY/uIv/kLxBwM0gAbQABqYmwaGDpUYnaHkZppPC5v/IAABCEAAAnMiMGbswujMqad3EOsYseygeoqAAAQgAAEI9CYwZuzC6PTGPe8MY8Qy75YTPQQgAAEIzJXAmLELozPXXh8Y9xixDKySbBCAAAQgAIFRBMaMXRidUejnl3mMWObXWiKGAAQgAIElEBgzdmF0lqCAHm0YI5Ye1ZAUAhCAAAQgsDMCY8YujM7OumEeBY0RyzxaSJQQgAAEILA0AmPGLozO0tTQ0p7uYjlVm1WhitVGnSbK3K4LtdpUV+L3cRZ9vVhv49MHeX+6WamiKFRRrNXFRJBo5nZdxlQoicVwMrHm2bvSDp42E7OLJ35t63PTL7LxcQGJ97vuSx2j1HFc5ZAY4zJ4DwEIjCfQfeyq17VYo9N0g2q7udUxLedMZ7GcbtRqtVKrYqWEn/EgYobxe5+wPNDXexkdPahmTFZcduN73Y5MGxrz7fuibl80yBvN+jaXRjNK48K6yLS6LzNhufCUSrSvumiPmj6jcVrzfg99WdNtQnc6ziYzlIyVkxCAwE4JdB67ErVidBJQep1K3Bh75T9w4q5icQNAzqC46y78+L07715z5bjrtdddcTWD44RmclxDa0Zgq9ZFZCCyA/vFptV92Wx0tElLG2TXfP06zOjsti9ruk3qTvPebb2SA8cQgEA7ga5jV6okjE6KSp9zyRtjnwIOm7abWPSNvRyoMkYhHiDi93Gr9PVqBsPOVqy35ayFWaqpBkaT1i3f6FcxqprB0V+r8ijlyrQmQC9TbfySlV62EuWYNpXn9Hk/i1JFHdYTDuzhNRmDsjMZyfiqss1RbHSSnBOGRme+4LS6f0SXRA0rGSQSBP262qit7p8oXY5teL5rXwoduygjdjomN1sTxCf1Upoyl84VxSsEIHA4At3GrnQ8GJ2SS/ZG6rjpgSkawJI3RnMjjQY/V8YEXjuJJTBvzkCEwcsBQl+J34ep7fVqUHMGp+JkWErDEcRgSzN9FKfx37RtmavVOlxqiwY2XdLpRqYpYxEDrtWC+AZ/ulGbcnNPYwxx3283YSwSSmx0Eu2tzJvMWBoJycFcTveTWULacVrdVwJXFJydqYlNQbJ/E2YiMJ2aie/ftMFr7st+Rsc0JNkPefNWazwnIACBRgLf/e531eeff55Mc//+ffWnf/qnyWudxq5kTqUwOuW3teCGWs4O+IG5aQCLb4xx2gz4zUs3zQAADuJJREFUizrdRSyxaTGDezSyxWni93H7zEDnyyhNidz8ExuSmKtKDFp+FkfXlijTnNZ7dIRpiQPT74O6MrMoJl9LDHEbUnW5c7pOzyOOwSXKtCmI9/BpdV/K0F0E7rV+PcUtNr+pNJF568I3YJMoMyqjptsgv2tRabJqhlFc5xACEOhEQJuclNlxJucXv/hFspwuY1cyo1q60fEzMGKZojxXfeNM3Aw1LXlDlMcxydyNMU43kfetYjFtrWZaTNiJc/EAEb+Pm6uvVwN7NIDpxHEdMVf9PtOfdtBNlOnLrRsdO2sjdOEGMVNPPb1pT8cYdJxNRsCXJRPF7TWJMm264LS6L2XoJlT/Px1zSj91poGBbmXrNJIpR2rD9WXKHEef5Zpuk2x14/R9ol63bzYHEIBAZwKx2WkzObrg1rGroXZmdMwNNnUDkwbIDjjJASx7Y2ygfoGX2sRSMwBiAKnMYX2pqjZgRG3cjdFJ9ZOrKGMKooHNDljRvhzZh1k9lLMuXQY7U6c2UQ3x6nqkW0jWqzWYMBUXnLbZ6FhtyKaZGbMEi7rRaeClu7lvX+7S6Oi6vYFymuMVAhAYSsCZnU8//dQsV+Vmclz5bWOXS5d6xegkBw2NShqdEl1qANP5Z3QDbBaLNQvS0DjRmEFJtDM2NvF7l8+9jjY6hn00U+AKN68djU5tsLR7SnwfNtXTdC2IRb/JszRJtW5CN1BtAHdlJWK1l3LaTBmF3aftYnQCDWW4BZrIpHEozGvMI35vvNBKfB4TbY8+7zXd5j7Ptf4KIuMNBCDQkcBXX33lU2qz88d//MdKmhx53SdkRkeiqI6Db4vVaXMU3NxyN9jETdQWEw1guRtjVOdU3jYanRwLHby5Vs0uBAzNZEf19EqqrcGgFuytKVPHdUcDkk5lyghmBk7VZu1+0LCP0RGGqWyXNzqpesRm5MYYtmuxpJOJx8FJDJymbG8mI51FfC4kbRm7rjvwaK5N7rW1bQZy+CRcirvWie9fp0Fh5iImTqNVX1qGlaHUxiecadNtCUxZQne6Wfp+EqRzbeUVAhA4CIHGsaslAmZ0cjfYlbgBNg1g8Y0xvvm2dMChLzeJJRw848jCQSMeIOL3cW5Tth8dEyagxq2sTw9MPp8zO9XemmrwSZSpgzDlisGxHLT8fh9tLHQfeoNhIzfx+mU7YYy8XhIxmLoS52MY+n3CDNjTVX7ZbtuOhjgEo72lLduh2cjq6s1LzKSU5tZzX2+Tv6MTchefQV3JoL505kZzXattVIaur9KQqcT+InigO11GqKF6mzkDAQjsk0DT2NVWL0anJGRmgPzAFt38GgewaEA2acMBqa0TDnl9jFgOGefi68oYnTm0u93o5I3cHNoXx8hsTkyE9xA4PIExY9dijc7hu2EeNY4RyzxaOJMozUygnb1pnh2ZUHt6xmxmZ2bTuDTnpiXwdA7OQgAC+yAwZuzC6OyjRyZc5hixTLhZhAYBCEAAAgsmMGbswugsWBippo0RS6o8zkEAAhCAAAT2TWDM2IXR2XfvTKz8MWKZWFMIBwIQgAAEjoTAmLELo3MkInHNHCMWVwavEIAABCAAgUMSGDN2YXQO2VMTqGuMWCYQPiFAAAIQgMAREhgzdmF0jkwwY8RyZKhoLgQgAAEITITAmLELozORTjxUGFos/MEADaABNIAG5qaBoeMkRmcoOfJBAAIQgAAEIDB5AhidyXcRAUIAAhCAAAQgMJQARmcoOfJBAAIQgAAEIDB5AhidyXcRAUIAAhCAAAQgMJQARmcoOfJBAAIQgAAEIDB5AhidyXfRbgP825/9UvEHAzSABtAAGpibBoaOhhidoeRmmk8Lm/8gAAEIQAACcyIwZuzC6Mypp3cQ6xix7KB6ioAABCAAAQj0JjBm7MLo9MY97wxjxDLvlhM9BCAAAQjMlcCYsQujM9deHxj3GLEMrJJsEIAABCAAgVEExoxdGJ1R6OeXeYxY5tdaIoYABCAAgSUQGDN2YXSWoIAebRgjlh7VkBQCEIAABCCwMwJjxi6Mzs66YR4FjRHLPFpIlBCAAAQgsDQCY8YujM7S1NDSnjFiaSmayxCAAAQgAIG9EBgzdi3W6GzXhSoK+bdSm9O98J9VoTmxBLxWGxWjGnvdQjpVm1Wh1ttZISNYCEAAAhC4YAK5satLWIs2OivhbE43K1UUI83Odq2KhAnoAnoqaVJisWzWyvkPY2qEGzHXfbutWSni60U+v267NEoi61SwEAcEIAABCEyYQGrs6hru0RgdpewALc1PV0g+3SKNTmKW5XSjVt64bNW6iGZhzHVnGtvyG5ejClNeoiwPlwMIQAACEIBAmgBGJ8FFzyCEpiY0OnYWQyxtBdMMbvC2A7MepNfxUphOHwz4iSAmeKouFtdWEaw0OvLYJ5GGpSW/z6MPZL7gAm8gAAEIQAACWQL1sSubtHbh6GZ0rD/Ry1jVUoub7amWY0pTtFqH+3riGZ1FGB0542L1ESxdxW02SSJzo9MInkH+QHIYnQAHbyAAAQhAoBMBjE4CUzyjYwZfv3zill1ExmDmojQ6Yo+PSZkc9EUZMzjMiSWY4ZKzW8k21/lk8wdMMDoBDt5AAAIQgEAnArmxq0vmRc/oBE9duc200exDBUkPws4ARTMWLlFy0HcX5/FaF4ttazWbpVfkxIxXss2ST0v+AAtGJ8DBGwhAAAIQ6ESgPnZ1ymYSLdrohHt0SigYnVAdSR7WvBh+yevCsCSvi/xBbSJfcJ43EIAABCAAgTwBjE6CTbx05ZPk9tUklq7kCo7Jrwd1NzPkC5zXQU0srUZFznSVbZWsWvNLPhgdSYNjCEAAAhDoRqA2dnXLZlId34yO/02X+mbkagZILs0ImvGgnjNNIsvUDutiseajvnTllvHK38DxBi+erWnPXzHA6FQsOIIABCAAga4E6mNX15xKHaXR0XiCzbNF+lH02oxO+Vs8Zu+PfXxLrfy+nu7QLzJlWiylWfG/JF2ZHBer3cxdPo5fA9Oe35aD0XE8eYUABCAAge4E0mNXt/yLNTrdmn98qcaI5fho0WIIQAACEJgCgTFjF0ZnCj14wBjGiOWAYVIVBCAAAQhAwBMYM3ZhdDzG4zgYI5bjIEQrIQABCEBgagTGjF0Ynan15p7jGSOWPYdG8RCAAAQgAIEkgTFjF0YniXS5J8eIZblUaBkEIAABCEyZwJixC6Mz5Z7dQ2xjxLKHcCgSAhCAAAQg0EpgzNiF0WnFu6wEY8SyLBK0BgIQgAAE5kJgzNiF0ZlLL+8oTi0W/mCABtAAGkADc9PA0GEQozOUHPkgAAEIQAACEJg8AYzO5LuIACEAAQhAAAIQGEoAozOUHPkgAAEIQAACEJg8AYzO5LuIACEAAQhAAAIQGEoAozOUHPkgAAEIQAACEJg8AYzO5LuIACEAAQhAAAIQGEoAozOUHPkgAAEIQAACEJg8AYzO5LuIACEAAQhAAAIQGEoAozOUHPkgAAEIQAACEJg8AYzO5LuIACEAAQhAAAIQGEoAozOUHPkgAAEIQAACEJg8AYzO5LuIACEAAQhAAAIQGEoAozOUHPkgAAEIQAACEJg8AYzO5LuIACEAAQhAAAIQGEoAozOUHPkgAAEIQAACEJg8AYzO5LuIACEAAQhAAAIQGEoAozOUHPkgAAEIQAACEJg8AYzO5LuIACEAAQhAAAIQGEoAozOUHPkgAAEIQAACEJg8AYzO5LuIACEAAQhAAAIQGEoAozOUHPkgAAEIQAACEJg8AYzO5LuIACEAAQhAAAIQGEoAozOUHPkgAAEIQAACEJg8AYzO5LuIACEAAQhAAAIQGEoAozOUHPkgAAEIQAACEJg8AYzO5LuIACEAAQhAAAIQGEoAozOUHPkgAAEIQAACEJg8AYzO5LuIACEAAQhAAAIQGEoAozOUHPkgAAEIQAACEJg8AYzO5LuIACEAAQhAAAIQGEoAozOUHPkgAAEIQAACEJg8AYzO5LuIACEAAQhAAAIQGEoAozOUHPkgAAEIQAACEJg8AYzO5LuIACEAAQhAAAIQGEoAozOUHPkgAAEIQAACEJg8AYzO5LuIACEAAQhAAAIQGEoAozOUHPkgAAEIQAACEJg8AYzO5LuIACEAAQhAAAIQGEoAozOUHPkgAAEIQAACEJg8AYzO5LuIACEAAQhAAAIQGEoAozOUHPkgAAEIQAACEJg8AYzO5LuIACEAAQhAAAIQGEoAozOUHPkgAAEIQAACEJg8AYzO5LuIACEAAQhAAAIQGEoAozOUHPkgAAEIQAACEJg8AYzO5LuIACEAAQhAAAIQGEoAozOUHPkgAAEIQAACEJg8AYzO5LuIACEAAQhAAAIQGEoAozOUHPkgAAEIQAACEJg8AYzO5LuIACEAAQhAAAIQGEoAozOUHPkgAAEIQAACEJg8AYzO5LuIACEAAQhAAAIQGEoAozOUHPkgAAEIQAACEJg8AYzO5LuIACEAAQhAAAIQGEoAozOUHPkgAAEIQAACEJg8AYzO5LuIACEAAQhAAAIQGEoAozOUHPkgAAEIQAACEJg8AYzO5LuIACEAAQhAAAIQGEoAozOUHPkgAAEIQAACEJg8AYzO5LuIACEAAQhAAAIQGEoAozOUHPkgAAEIQAACEJg8AYzO5LuIACEAAQhAAAIQGEoAozOUHPkgAAEIQAACEJg8AYzO5LuIACEAAQhAAAIQGEpgckbnzh/8oeIPBmgADaABNIAG0MC+NdBknpxB0mmKOKG8GF/T7299educ3ncDKJ8PCRpAA2gADaABNJDTQMqjuHPSy2B0mIViFg4NoAE0gAbQwOw04ExN6hWjg6BnJ+ico+c83/bQABpAA8epgZTBcecwOhgdjA4aQANoAA2ggVlrwJma1OtOjE5csCw0vsZ7CEAAAhCAAAQg0JdAzlu4/cK58mS+wXt04sJlofE13kMAAhCAAAQgAIG+BHLeAqPTlyTpIQABCEAAAhCYHAGMzuS6hIAgAAEIQAACENgVAYzOrkhSDgQgAAEIQAACkyOA0ZlclxAQBCAAAQhAAAK7IoDR2RVJyoEABCAAAQhAYHIEdmF0/j9bbiKqy+aWwAAAAABJRU5ErkJggg==;" vertex="1" parent="8nkGI7kgPrW99Bi4NLpE-1">
          <mxGeometry x="30" y="460" width="570" height="461" as="geometry" />
        </mxCell>
      </root>
    </mxGraphModel>
  </diagram>
  <diagram id="UOWeDNGwEkdEsY5co4FQ" name="Parameters">
    <mxGraphModel dx="1490" dy="580" grid="1" gridSize="10" guides="1" tooltips="1" connect="1" arrows="1" fold="1" page="1" pageScale="1" pageWidth="850" pageHeight="1100" math="0" shadow="0">
      <root>
        <mxCell id="beViUweJll60y015WwgA-0" />
        <mxCell id="beViUweJll60y015WwgA-1" parent="beViUweJll60y015WwgA-0" />
        <mxCell id="fq3pBKyK362KWPUe7OCp-0" value="&lt;font style=&quot;font-size: 25px&quot;&gt;&lt;b&gt;PARAMETERS&lt;/b&gt;&lt;/font&gt;" style="text;html=1;strokeColor=none;fillColor=none;align=center;verticalAlign=middle;whiteSpace=wrap;rounded=0;" vertex="1" parent="beViUweJll60y015WwgA-1">
          <mxGeometry x="410" y="50" width="80" height="20" as="geometry" />
        </mxCell>
        <mxCell id="fq3pBKyK362KWPUe7OCp-2" value="" style="shape=image;verticalLabelPosition=bottom;labelBackgroundColor=#ffffff;verticalAlign=top;aspect=fixed;imageAspect=0;image=data:image/png,iVBORw0KGgoAAAANSUhEUgAABNMAAAFYCAYAAAB53rr0AAAgAElEQVR4Ae3de7BsWV0n+LTnv/ljZmL+mJiJmH+mw5iYmIh5VrQz5070ICHUVHfPRPsYbS17pO2xDxSiNEwpSrdTINqIIuciUAVaQCmIiAK2wpFS2rIUHyiPwkIUzgWqVKDKkqIAi0fVZdbE2jtX5to7914782Sec9c553Mjkp2Pvdde67N+Wffml7UzZw88+FBwY6AG1IAaUANqQA2oATWgBtSAGlADakANqAE1oAama2B20zvuC271GSje6eJlxEgNqAE1oAbUgBpQA2pADagBNaAG1IAaOO0aEKZVGiaediE4n//4qAE1oAbUgBpQA2pADagBNaAG1IAaUANqYLoGhGnCNJf5utRZDagBNaAG1IAaUANqQA2oATWgBtSAGlADa9bALPhTpYAkeDoJZsRIDagBNaAG1IAaUANqQA2oATWgBtSAGjjtGhCmVRmlBWnwmmnwab9hnM9/pNWAGlADakANqAE1oAbUgBpQA2pADVzsGhCmCdMEd4I7NaAG1IAaUANqQA2oATWgBtSAGlADakANrFkDwjRhmjfLmm8W/8/Dxf5/Hsy/+VcDakANqAE1oAbUgBpQA2pADaiBWAPCNGGaME2YpgbUgBpQA2pADagBNaAG1IAaUANqQA2ogTVrQJgmTPNmWfPN4v+B8P9AqAE1oAbUgBpQA2pADagBNaAG1IAaUAPCNGGaME2YpgbUgBpQA2pADagBNaAG1IAaUANqQA2ogTVrQJgmTPNmWfPN4v998P8+qAE1oAbUgBpQA2pADagBNaAG1IAaUAPCNGGaME2YpgbUgBpQA2pADagBNaAG1IAaUANqQA2ogTVrYOMw7ROfDOENb/pKeO7zHw9PfWZ7i/fjc/E1f3YjsGnS/frb/0W46/DHwm+9/UXhzl99cXjbWy+Ht/7yy8Kb3nRreMMvvCr87OtfHW7/2TvCba95XfjZN/5q+POjj3uTrPkm2XQu7O//pVADakANqAE1oAbUgBpQA2pADagBNXB+a2DtMO3q1RBe9wtfCd950+PhKU99bPAWX4v7xH392U5g0zfdHa/8Z+HeR74YPve5T4dPP/JweOjhh8MnP/1w+Mu//kz4+F8/HI4e+Ex4y933hQ/+1cPh7g9cCa+441fCPR+8IlATqKkBNaAG1IAaUANqQA2oATWgBtSAGlADamCDGlgrTIvh2IsOrg4GaEPBWtxXoHYNwrTPfil8+bGr4XOfeihc+aEXhPdftxfu/eZvD3/xp1fCX332sfDGd34sfPThL4cP/82Xwjvf97Hw+rf8jjfLBm+WTQNO+5/f/xfC3JpbNaAG1IAaUANqQA2oATWgBtTAxa2BtcK0uNosD82+/4ceCz/3hqvh7XdeDXe+82r4+TddDf/q+d3VavGYlT/33R5umN0Qbr9v5ZUQ7ro5zGazcPNdA69dwKc2fVM2K9PmYdrRM28O9/2PXxO+9KQnh0/8vf853PuPv2UlTHvvX342HNx+OBymvfcgfO1s1sxHnJPm9sSD8J5tg6e3fneYzb47vKXUzjr7lI732vCccuGiBtSAGlADakANqAE1oAbUgBpQA2pgJzUwGabF70HLL+38yZc9Hv7t26+G1//i1fAzdzze3OL9Xz28Gi7furwENB6z8h1qpTBt7cDsvnD7Dec/dNsmTPvjr/6vw9886X8LD19/Q3P74//yvwl/cd+DnZVp7/rzT4VX/NxvDBfRPbeG63uh513PnoXZtoHa254VZrNnhbeV3rzr7FM63mvDc8qFixpQA2pADagBNaAG1IAaUANqQA2ogZ3UwGSYFn9YIK1KiyvSYpD21O99rFmN9tznPxbi7XW/cDU89ZmPhRe95PHwz562XKEWj+38EaZ1OEoPNg3TXnvbd4Z75yvT/uwp/yK897//mnDP//rk8L7r9sL7nnjDysq0t/3+n4Y3H/7hcBE1Ydr14eX3LJdsPvKlu8LNs1n47rcun9u0jw+sE5Sts483//C8ceGiBtSAGlADakANqAE1oAbUgBpQA2rgxGtgMkyLv9SZwrR4aefzXtg+fts7roabnvVY+K5nPBae9QNtgPYH7/7K4n48Jh7b+VMK05rLPG8Oy6s82xVoi8sMb7g93Nccn19+mF0y2nvthvxa0tR2Z5/8XCGEzmuzMHj8/FLU2cC1qF/5SvzhheFfXii91vHJHmwaVL3i8v4iTHv4Ix8NH7j+/wh/9F/8V+ED3/Ct4S/+6E9WwrTX/NJvhPfdezRcYANh2gMPvi38y9ks/Mu3PRQeSJdiNttZmD39rfN23hpuSpeFNtveJZ0pKOtdRnpTHtClffI3f2//rz1437Lf/b7E887785anL2ulc8yD7wsveeLyta1X3OV9dX85NyxYqAE1oAbUgBpQA2pADagBNaAG1MA5rIHJMO2pz1yGafE70l7+04+Hg5c/Hv7d3VfDS299PHz3sx/LIqAQHv3C/xduu709Jh7b+dMEVlkAlr+YAq/5c3fdPAt5aHXX7beH9qvWBi7zXGm3XUW1yLxSCBYDuab9eVCXdlj3+LR/3u8QQgzLjo6Owp/92Z+tBGql13rNdB5uGqb9xIue0VzGGX9kYHG788ryfv78Oz8WXn94b/jkp/56+E09FKa992XhybMbwm0ffCi0K8xmYfa9v9n2+UufDQ/MA68nZyHmfbc/ufsdaU1QFi8XvTVcSaNt5uaJ4SXvna9464dpTbtPCq9afM/eXeHZs1lYBHCpzdSX0M791z7xieF77pyfpDnHMxbf1daEbM9exrZ3verW8L5z+ObetIbsv8WqS/Uz/N8SLlzUgBpQA2pADagBNaAG1IAaOIc1UHWY1lkdlsKXsBqmxeCtv+99t9+wDOOaMKUX4sXn5uHasY5f9CeEL3/5y+Hee+8N733vezuBWgrS4vP33HNPePTRR7Ojync3DTae/8PPWqxMe/TLV8Pnvng1PPyFx8NDf/t4+NTnH+usTHv7774v/MZv/9H4G3olTJuv5Lr5neHzn05h2g3h9g9/dtHGW57Rhp+P/+3Di+ce+tsrzffbfV1aSdYEXzeE2688Gh5Kb6bPHjX7POnyfLVZL0yL7V5/+5X2vM0xnw0fjnP7vfPVcM3+N4e7YqA3f/3OGMRe/6rw4c/Ow5HP/mZzier3zFfAve1Zs3DDbR9c9PORv836k/plu/DZtBbtL5RTA2pADagBNaAG1IAaUANqQA2ogfNcA5Nh2tRlnukS0Ljd6WWeTQAWL8XrXY65Eqb1LgfNLzNMK9GatnrtLJ475vG9LKwfqD322GPNarXjBGmx6U2L7vuf+5xOmPbpD/5aePC3XxQe/IsPrYRpd7zp7eGeD354/BxNmJZdBhlN40quFFg1Adazw2EM1prQ6X3hp57cDaja5x8Oh/GHC575a+1+K8fF44f2ST9S0La7uNQ3n9snv6z9ddFe+BbPe+9tN4TZs9+xDOwe/GC47Yb5JaoPPhQeubP95djJXxYVqI3XCBs2akANqAE1oAbUgBpQA2pADagBNXBBa2AyTJv6AYJ/9fzHwitf/XjzowT/+gXLHx+I4dpGP0CwCLe6KVWzwiyGKCkYGwnT+ivTOq0Mtb14rg3TNj6+c4L2QR6ovf/9729Wqm26Ii01u2mY9oz/518vwrTP/Pmd4RM//T+Fz//O94S/euXXhE996i87K9Nuf8Nbw8fu+6vxN30TpvVW8qUgLb5RVgKsD4SXXz8L17/iAyttxlVgs2e9rX1+5bg2jOusFOvs07Y7ODePz1eTdfZv23vfK65fnrN5Y7ftNN/3Fh9/9ssNc3sZ6g5+pfSC/sdj0xq1fwqfbdWCGlADakANqAE1oAbUgBpQA2rgLNfAZJj2iU+G8J03Lb837Sdf9njzi54//4tXw8/c8Xhze/0vXg2/eng1HLxiuV88Jh7b+bPy3WTZq4twK3tucTd+D1YKd4Yv88y/X21xWLoz1Hb2XP/72dJhi2227+K5kTtf/OIXQwrS4qq0z33ucyN7lp/etKj++TN+eBGmffI1TwyPvfefh3D0zPD5d35D+OTbntUJ0375138nvOeeD60EX4tzrlzm2XuTrwRYvdVli3CpXVl2853zSzBXjovttvs8+9fnl4d29hlrN+tPZ//2+ckwbd6/eAlsaL5j7UnhIH1n26Lv2Tk8N14rbNioATWgBtSAGlADakANqAE1oAbUwAWrgckwLUY+r/uFryx+0TOuOPv+H3osxF/2jD9IcOc7r4aff9PV8Nznd1elxWNW/qwdpt0Xbr85/VhA+qXNbpjWWa3UtDsLnd8HuOvm5eOhMCx/7jjHrwxu+UMEMURLt6EfJRg4dOWpRbC1ZkH+06f9yDJMu/3vhfCe65rb4+/6H8Jfvfp/6YRpd99zJdz+hreHv/zEA8Nv+I3DtIfCIx++PdyQ/zDAgw+F9xx8XZhdf/vyu8ua4Gv5a5txjM0+s5vDnen7zXrh2FC78ddEuz9AkC4LXSdMe194ydMP2ktEo23zwwrXh5ffIzzbtObsr2bUgBpQA2pADagBNaAG1IAaUANq4CLWwFph2tWrIbzo4GonUMu/K61/P+4bj1n5Mw+t+t+B1YRgebgV1wvFL5HPviOrH5S1r6WArTmgs//ystD02th3ps172Zw/O+fistKR43uD6//YwGc+85nBHyXoHTb6cNNijGHaPZ9+NDz6hS+Hv/jJv9u5/eWrLoX7P/3F8IbfuBI+8tdfCB968NHwul/9nfC6t/zOzsK0Bz79aHj8vtvDk7M5mz3pVeG+dDlmDK6aoOzmcNed35vN1bPDXeHL4ZEUGvbCtKbd/tx83St7Ad0mYdrD4TBeepr189l3PZ79wIH/EG5ae/ZXM2pADagBNaAG1IAaUANqQA2oATVwkWpgrTAtJj4xHIurzfJLPvshWnwt7jMYpI3GRmf/hX6Qln61M/8OtU1XqG1ahDFMS7dnfM9zQro97bv/1eL59Hq+fcdvv3c1UIvBWCgETM13jmUBWArCmuOy+cyDtLhPOm7+nWXtnr120j6pzcVxI+0O7N9cvpl/x9uDD4fPPx7CF+er3x75UtZWWD6/qbn9/WWhBtSAGlADakANqAE1oAbUgBpQA2rg4tXA2mFaih/i96DFHxaIv/L51Ge2t3g/PrfyHWnpoHO+TaHZ0I8NlF4rsWz6ZrznA38SPv7xK83tYx/7aIi3j37so+HKRz/W3I4++vFwdOXj4SNXPh4+fHRfc/vzj9wfPn7/J1bDtDzIcp+PGlADakANqAE1oAbUgBpQA2pADagBNaAGFjWwcZhWCoAu8msxNEsr0voOpdf6+6bHm4Zp9r94Sbg5N+dqQA2oATWgBtSAGlADakANqAE1oAZOvwaEaSm9qmzrzXD6bwbmzNWAGlADakANqAE1oAbUgBpQA2pADaiBqRoQplUWoqXuTE2c17251YAaUANqQA2oATWgBtSAGlADakANqAE1cPo1IExL6VVlW2+G038zMGeuBtSAGlADakANqAE1oAbUgBpQA2pADUzVgDCtshAtdWdq4rzuza0G1IAaUANqQA2oATWgBtSAGlADakANqIHTrwFhWkqvKtt6M5z+m4E5czWgBtSAGlADakANqAE1oAbUgBpQA2pgqgaEaZWFaKk7UxPndW9uNaAG1IAaUANqQA2oATWgBtSAGlADakANnH4NCNNSelXZ1pvh9N8MzJmrATWgBtSAGlADakANqAE1oAbUgBpQA1M1IEyrLERL3ZmaOK97c6sBNaAG1IAaUANqQA2oATWgBtSAGlADauD0a0CYltKryrbeDKf/ZmDOXA2oATWgBtSAGlADakANqAE1oAbUgBqYqgFhWmUhWurO1MR53ZtbDagBNaAG1IAaUANqQA2oATWgBtSAGlADp18DwrSUXlW29WY4/TcDc+ZqQA2oATWgBtSAGlADakANqAE1oAbUwFQNCNMqC9FSd6Ymzuve3GpADagBNaAG1IAaUANqQA2oATWgBtSAGjj9GhCmpfTKlgABAgQIECBAgAABAgQIECBAgMCEgDBtAsjLBAgQIECAAAECBAgQIECAAAECBJKAMC1JVLaNyzT9IUCAAAECBAgQIECAAAECBAgQOF2BD9z3YChdPitMO935WPtswrS1qexIgAABAgQIECBAgAABAgQIENiZQMxkbnrHfaM3YdrOqHfbkDBtt55aI0CAAAECBAgQIECAAAECBAisIyBMW0epwn2EaRVOii4RIECAAAECBAgQIECAAAEC515AmHZGp1iYdkYnTrcJECBAgAABAgQIECBAgACBMy0wlcm4zLPS6Z2auEq7rVsECBAgQIAAAQIECBAgQIAAgTMtMJXJCNMqnd6piet3++iB94TnvPFJ4UkvnIWve+Gs2V7/oll47pueFOJr/hAgQIAAAQIECBAgQIAAAQIECEwLTGUywrRpw2uyx9TE5Z16+W8+PXzbrf9BOPzTm8P9f3tHuPKZl4f3fPJfh7d/6DvCC9/+34ZvfOm/F37sV785P8R9AgQIECBAgAABAgQIECBAgACBAYGpTEaYNoBWw1NTE5f6+KP/9pvD/337fxa+GN4Z3v1X3xF++vdm4dbfnYXb3jVr7v/cH/3dcOvd/1345pf9nXDrO5+eDhvcHu7Pwmw2cts/DCEchcuXZqG5O9iCJwkQIECAAAECBAgQIECAAAECZ1tgKpMRplU6v1MTF7sdL9/81pf/++HBL705/MI9/2l4xbtm4bbfn4VXxtsftLf4+Nbfm4Uffft/HL7+YLb2JZ9NsLaSmgnTKi0X3SJAgAABAgQIECBAgAABAgR2JDCVyQjTdgS962amJi6e7/ve8MTw+nd/W3jnx/5BePkfzMJtfzgLr3z3LLzq3e02PveS322n+Mf/3Sw89Y5Z+IE3fu1aXRWmrcVkJwIECBAgQIAAAQIECBAgQOCcCUxlMsK0Sid8auJit6//sVn4/fu+P7zyj2fh8u/Nwkt/fxZe8YezcNu7Z+HlfzgLL54HaXHfn/qDWfi+X5qFf/Ti9aa8HKa1K9TaS0IvhctHXcSjy5eyy0Xz19PKtsOw31xOuh/ixaPxz/gx8x3yzdHlcCm/HPXS5bDswi7OkdrYZJyzMFtZyZd3ur0/Ps50ztxm6LmhdvrnHjnucH9kXlb76RkCBAgQIECAAAECBAgQIHBRBaYymfWSlYuqdw3HPTVxsWtP/rFZ+K2PPi289N3LaXzx78/CS/9wFn7i95bPxX1vfc8s/MCbZ+Ef/kT3+bEhlsK02WwZkDX7ZWFWExZlj0MT4KTQrA15Ll3a7wRw5WNWe3h0OT++bXMZZO3iHPM2p8Y5S+OKfez3Y6jfl8JsI5vCWIrnHjiuCSCX8xYOL3fmYLW3niFAgAABAgQIECBAgAABAhdTYCqTWS9ZuZh213TUUxMXO3f9i2bhV/7kG8NPvac7jT/yru7jn/zDWfjpe2bhB3cUpl3Kl6I1IU0KleKqqiywaQTbYKddtDUPefLjw9Qxa0xDDOwWIdUuzjHQxuQ4m+V14VIn5Mr7PjXOgXPOA7qO96BX/9wDbXX6n/fLfQIECBAgQIAAAQIECBAgQCAXmMpkuqlLfqT711RgauJi52748Vl49bv2wis/MAsv/uPhqXzxH83Cre+fhZ/5k1n4/l/6qh1d5pnR5CueOpcRdn8VNA/TOldDTh6TnSu7271ccrYSpm13jjaM6rSxMs4UIGadGgu64i6T4xw459CvpzbtTJ17vK14aW5nXHn33SdAgAABAgQIECBAgAABAgTCVCYznMCAu+YCUxMXO/iMV39N+IFf+k/Cre/+j8Jt987Ci9/bnc4Xv2cWXvGBWfiZP52FF9/9VeGmn/2q8L2v+Zq1xla6zLMTxqwVMqVTDoQ8o+FQOqa/nX+n2GIl2jyoWjzexTkG2lhrnEOrz+b9nxznwDl3GqbN+9GMIwadQ4Fc39pjAgQIECBAgAABAgQIECBw8QSmMplu+nLxfKod8dTExY7/1h+9JXzD5Vl4wdv+w/DKP5mFV/7pLPzUB2bh8vtn4aX3zMKt987Cz3xo1qxci6vSvv7yLPzWH79lrTEfK0zLA6fBswwERpPH9Bpq9u8GQd3vXNvBOYZCrLyf+f28ewN9W7w8dsxyh3D5Un/V2AZj6Zx74LjFeeKd9vXu5aOdHTwgQIAAAQIECBAgQIAAAQIXVmAqkxGmVVoaUxMXu/3oo4+GH37jN4dvfOksPOeX/07z650/82ezcPtH5rc/i7/o+VXN5Z3f9FOzZt94zDp/jhWmNYvE+quejsLl/fRrm8MhT3Ouzkqp/Jheb/uhVPN44jLPyX71zjEVpo21d2kWSgFVeZxDNkPPxStGB4w75x447nA/u7wze73v2afwmAABAgQIECBAgAABAgQIXDCBqUxGmFZpQUxNXOr2/fffH57zc09qVp3FyzjjCrQf/OX2Fu/H5+KKtBi6xX3X/XPcMC2234Y9y+9MWwZMWYjT68j4Mb0dm+/avxTid381t3h5Z7yEsnSZ57yJ9c8x0M+B0Kn/vW3Lca72OT0z3oeBcw6FevOGyuceaCuFjnO3RV8HxpX6akuAAAECBAgQIECAAAECBC6iwFQmI0yrtCqmJi7v9kc/+tHwa7/9uvC9r/6a5gcG/uFPzEK8/aMXz5rn4mubBGl52+4TIECAAAECBAgQIECAAAECBC6SwFQm04RpN73jvpBuFwmn5rFOTVy/7/HyzY985CPhPe95T+cWn1v30s5+mx4TIECAAAECBAgQIECAAAECBC6awFQmI0yrtCKmJq7SbusWAQIECBAgQIAAAQIECBAgQOBMC0xlMsK0Sqd3auIq7bZuESBAgAABAgQIECBAgAABAgTOtMBUJiNMq3R6pyau0m7rFgECBAgQIECAAAECBAgQIEDgTAtMZTLCtEqnd2riKu22bhEgQIAAAQIECBAgQIAAAQIEzrTAVCYjTKt0eqcmrtJu6xYBAgQIECBAgAABAgQIECBA4EwLTGUywrRKp3dq4irttm4RIECAAAECBAgQIECAAAECBM60wFQmI0yrdHqnJq7SbusWAQIECBAgQIAAAQIECBAgQOBMC0xlMsK0Sqd3auIq7bZuESBAgAABAgQIECBAgAABAgTOtMBUJiNMq3R6pyau0m7rFgECBAgQIECAAAECBAgQIEDgTAtMZTLCtEqnd2riKu22bhEgQIAAAQIECBAgQIAAAQIEzrTAVCazmzDt84+EF7zjvnBT7/aCK4/Vj7fo+yfCr3++nu5OTVw9PdUTAgQIECBAgAABAgQIECBAgMD5EZjKZLYO0+65ZzVES6GaMO34hTQ1ccdv2ZEECBAgQIAAAQIECBAgQIAAAQJjAlOZzFZh2qeufGK5Gu2eR7t9+Pwj4TVWpnVNNng0NXEbNGVXAgQIECBAgAABAgQIECBAgACBNQWmMpktwrRHw2vSZZ39IG2kc/1VbK95IO24bOs1DzwWfv1dy9Vuy33afddrY97eux4Jnwrd9tpVc9klnS7zTJNgS4AAAQIECBAgQIAAAQIECBC48AInF6Y98NB8VVoWTBW4+yFYuhS0DcuWYVp6frl9KNwzb3fjNkbDtBjWzdsVphVmzUsECBAgQIAAAQIECBAgQIAAgYslcKphWueyz2bV2nhgtQjGmlVtWZiWVrn1w7qB0Gu0jSZEG5vo5bmaIG+g3bEjT/P5qYk7zb44FwECBAgQIECAAAECBAgQIEDgoghMZTLHv8yzH3aFEMbCtNXnl5dx3tQL0xaXdfZCrmO1MZ/lsWOFaRflbWCcBAgQIECAAAECBAgQIECAAIH1BE4uTFuEXfeFlV/tXARt7cq0ZZi1vGSz2/3earH44qL99jLSY7UR21n0JfWzd67eebr9unaPpibu2vXMmQkQIECAAAECBAgQIECAAAEC51dgKpM5/sq0EMLiMst3pKBqDrkIsObh2eJxd79PXXlk/n1ovYArNtMPuY7TRr5aLl0+umj3vmBl2vktfCMjQIAAAQIECBAgQIAAAQIECBxH4ETDtBCWIdjyBwOySzjTl/wP/qJm9iMAWTtjl3mG47SRh2npl0ezrTDtOCXlGAIECBAgQIAAAQIECBAgQIDA+RU44TCthVtegpkHafOVXwvbx8Kvv6v7evt9aXGHZSg3HqbF/TZsozl3fky8ZLR3rsVKtfV+lXQxnBO+MzZxV65cCW4M1IAaUANqQA2oATWgBtSAGlADakANqAE1sF0NjEU7Y5lM2n+ryzxTI7a7FxibuPhG8YcAAQIECBAgQIAAAQIECBAgQOD4AqV8ZSyTSWcTpiWJyrZjE1ea7MqGoDsECBAgQIAAAQIECBAgQIAAgSoFSvnKWCaTBiJMSxKVbccmrjTZlQ1BdwgQIECAAAECBAgQIECAAAECVQqU8pWxTCYNRJiWJCrbjk1cabIrG4LuECBAgAABAgQIECBAgAABAgSqFCjlK2OZTBqIMC1JVLYdm7jSZFc2BN0hQIAAAQIECBAgQIAAAQIECFQpUMpXxjKZNBBhWpKobDs2caXJrmwIukOAAAECBAgQIECAAAECBAgQqFKglK+MZTJpIMK0JFHZdmziSpNd2RB0hwABAgQIECBAgAABAgQIECBQpUApXxnLZNJAhGlJorLt2MSVJruyIegOAQIECBAgQIAAAQIECBAgQKBKgVK+MpbJpIEI05JEZduxiStNdmVD0B0CBAgQIECAAAECBAgQIECAQJUCpXxlLJNJAxGmJYnKtmMTV5rsyoagOwQIECBAgAABAgQIECBAgACBKgVK+cpYJpMG0oRp6YFtPQJjE1ea7Hp6rycECBAgQIAAAQIECBAgQIAAgXoFSvnKWCaTRiNMSxKVbccmrjTZlQ1BdwgQIECAAAECBAgQIECAAAECVQqU8pWxTCYNRJiWJCrbjk1cabIrG4LuECBAgAABAk9x5DUAACAASURBVAQIECBAgAABAgSqFCjlK2OZTBqIMC1JVLYdm7jSZFc2BN0hQIAAAQIECBAgQIAAAQIECFQpUMpXxjKZNBBhWpKobDs2caXJrmwIujMXeO5znxvcGKgBNaAG1IAaUANqQA2oATWgBtSAGjjdGigFE6V8ZSyTSe0J05JEZduxiStNdmVD0J25QPyPpT8ECBAgQIAAAQIECBAgQIDA6QlMfRYv5StjmUzqvTAtSVS2HZu40mRXNgTdmQtMvYFBESBAgAABAgQIECBAgAABArsVmPosXspXxjKZ1ENhWpKobDs2caXJrmwIujMXmHoDgyJAgAABAgQIECBAgAABAgR2KzD1WbyUr4xlMqmHwrQkUdl2bOJKk13ZEHRnLjD1BgZFgAABAgQIECBAgAABAgQI7FZg6rN4KV8Zy2RSD4VpSaKy7djElSa7siHozlxg6g0MigABAgQIECBAgAABAgQIENitwNRn8VK+MpbJpB4K05JEZduxiStNdmVD0J25wNQbGBQBAgQIECBAgAABAgQIECCwW4Gpz+KlfGUsk0k9FKYlicq2YxNXmuzKhqA7c4GpNzAoAgQIECBAgAABAgQIECBAYLcCU5/FS/nKWCaTerhVmHa4Pwuz2V44OErN9beHYX82C7P9w8ULzTH9xxu2cXSwF2ax3c5tuB9tH/v7zh9n/Vh0sJI7YxNXmuzU9aPLl3o27XgvXV6dqNZnPyxnKLWy+Ta2NXSOzVtaPaLt56UwMITQjLfiuZx6AzdjG+n/LudnVdUzBAgQIECAAAECBAgQIEDgfApMfRYv5StjmUyS2kGYNgt7I2laDL329vbWCNM2a6MJ00bChzSwoW0ptBja/1o+NzZxpclO/R0Ol+bB5mw3wVk6V76Nvicbps3C7NLl0I8Eh8eb9+za3p96A++kLg/3B22u7cidnQABAgQIECBAgAABAgQIXBuBqc/ipXxlLJNJI9k6TGvCssGA5igc7M3WCtM2bUOYlqZveDseLh2Fy5e6KwWHWzjesycdpl26fLlZ6dgP7MbHe7xx7PqoqTewMG3X4tojQIAAAQIECBAgQIAAgYsuMPVZ/NqGaQeHTWi2slAsrpTZOwiH8ZLM7MV+cBAf723Yxq7CtH5fYqE1be8dNKuf2r4dtc+lS0rnr+VF2RyTXi9espofVb4/loKWJju1WAyX4rxk4WccYyecal5Pl8UuL6tM+zVtp7H2VomlfVI/wtHlcCntG7fZ/nHfvC7iMU3b2T6LdkIIi7Z7/V8cl9VY6bxx/7atwzZYnPevObzT39UVfJ2xz5Y27fmyx3nHQwhTb+Ahi9TEYtzLJ7JLeNtzNsfnzpnFaJ9DG6zuH84D1ub41TFMH3/yKx7T0G0JECBAgAABAgQIECBAgMC6AlOfxUv5ylgmk869/cq0g3nY1AuZ4gf8ePlnP/jqBwed/dZso99mGszUtn/uMA/8lpcNtqvpUhbR7D/LL0FtX89DoDx8a84/EPZM9Wvo9bGJK012aqcJQNIg0pNp2wRGy9AkjnERpvVeC4eXF99RliwW+87DmNyi01YTju0vjg/9/aNTJzhL4U7qaHebt930JRtff7xHlwvnnYdpsywMWwRGi/6sruBr9lm83jSyDCX7bt2u7y5M658nm5+mlvP+DYWTndpMIVq3FvI5KY55Pp+XLuXWvYF7SIAAAQIECBAgQIAAAQIErpFA9WFaCHF1SvYDAEcHYW+++qkffPWDkPi4/c619dto2sxX4sT7vSBuaK765y71Ox6/un+zdC3sLcba63Nz0m4gN9SPdZ47sTCtmatugLIIyJqwZnVF1rhFXHk20tbQIDsBWrRbHtuu7ho+dzp/t5/LY/th2sqpO+cdmtfYl1nI8rm4Uxb29franKAc/uV9mHoDD9bZvIH4WnfcI0ad/saDp/rc9n/RdjykM//HOD4ftPsECBAgQIAAAQIECBAgQOAaCkx9Fi8tVhrLZNJwdrIyLTYWP/SnHyLIA7T8ftqvv5opHbduG/0202CmtkOhxdg5U19T35Ztx5BhHhzGAKMf6s0fd4KZ5cFr3xubuNJkp8aL4VJvdVMc/zJQSauVesHSfH6X+6UzdQOXblvtPk1fcqNs9VS+f7HPA+dv9p+3NXTsuudte9kdR/NcHk5tOc9Tb+DokL8nkm7c5kaL1X394K/dMQv/mgMnanMgDMxrY3LMA8fnHXefAAECBAgQIECAAAECBAhcQ4Gpz+KlfGUsk0nD2VmYFhar0eLKrOUqtX7w1Q8O4uNFYLVmG/0202Cmtv1zN/vH0KBZ1ba6oqzTt0Xj/TBtZKXQYv/j3RmbuNJkpzMNhUvpte6Kq35YM9+rCVXi96YtxxYtNgvTolP3e9L6514+ng5mVs/fth/71B3v9HmH21qudGsUVsK0pcXCcs07U2/g2J/1wrTx+VlazvdpwrBSnwfMV8K0DY9f08NuBAgQIECAAAECBAgQIEDgpAWmPouX8pWxTCb1eXdhWpiHUfspnGpP0Q+++sFBfLwI09Zso99mGszUtn/udv95OHa4vDQ1tTO4fx5SNOHfMjhMx+1iOzZxpclO5+2GS+nZuG2DpnzVXBzjakgW923DlvTapEV/FVUTzHTDmKZf2cq0xaWIh/Fy0e6+ea+bng/1cz4Xly9fWoZRa5x3dczRpRCm5SFTv2NrPJ56Aw/azttd7Ws6YXd+VsK0yT5PhGnHOT51zZYAAQIECBAgQIAAAQIECFxjganP4qV8ZSyTSUPaYZi2vLRsGY7Nfx0zS2/6wUF8nO/fhAKdL/1fbWO3Ydr8EtW97q+ORqCmr51L6towKu9vu08eBB2Fg/3210AT8nG2YxNXmux0nsEwrQlHVldAxf6nwCzaL6eqG7aMWSyOHQzTsoAqnb8Tps1Xxl3KwrA0iN6208/stdSvxcqufgg0cN7VtibCtEUtdOf58v7l5ldfT+3XPAvz075v8v6l+s2fOwqLPs/D0uV8p+9MW85Za7vB8dm8uEuAAAECBAgQIECAAAECBK6lwNkJ05qVT/mH79UgrPmAnn2Cj4/zcKpdrVRuownT8u/hWvN7yvrnXkzqyAqztm+H4WAvXvI4v2V9T8c37abXe0Fg2mfT7dZhWtaftu9d09Sf2PdFIJaCp/mxi+cXQdlhuHxp3KLTVpPNXFq6xRAtv3QydaAffqXne9t+24uXU5+zeWnCxDT+gfOutjUdpsXzxeMWdTDruy1DqEXf5nem3sD9dptzzEPHTl/TWAfmJ60kbI7NLPptL+e0G5Y2XR2Yi42O7w/cYwIECBAgQIAAAQIECBAgcI0Epj6LlxYrjWUyaShbrUxLjZz5bQx5Bn4NNAYJ3aDv9EY6NnGlyT7J3nVCnV2eaChg22X7FbQ19QauoIu6QIAAAQIECBAgQIAAAQIEzpXA1GfxUr4ylskkIGHa/HvahkIzYVoqk/nlmJePlk/s5F7ve7920mZ9jUy9gevrsR4RIECAAAECBAgQIECAAIGzLTD1WVyYdsz5XVzCll0WlzclTFtq7Hpl2pT98sxn/97UG/jsj9AICBAgQIAAAQIECBAgQIBAXQJTn8WFaXXN1056M7aksDTZOzmxRnYuMPUG3vkJNUiAAAECBAgQIECAAAECBC64wNRn8VK+MpbJJFKXeSaJyrZjE1ea7MqGoDtzgak3MCgCBAgQIECAAAECBAgQIEBgtwJTn8VL+cpYJpN6KExLEpVtxyauNNmVDUF35gJTb2BQBAgQIECAAAECBAgQIECAwG4Fpj6Ll/KVsUwm9VCYliQq245NXGmyKxuC7swF4hvYjYEaUANqQA2oATWgBtSAGlADakANqIHTrYFSMFHKV8YymdSeMC1JVLYdm7jSZFc2BN0hQIAAAQIECBAgQIAAAQIECFQpUMpXxjKZNBBhWpKobDs2caXJrmwIukOAAAECBAgQIECAAAECBAgQqFKglK+MZTJpIMK0JFHZdmziSpNd2RB0hwABAgQIECBAgAABAgQIECBQpUApXxnLZOJAvvCFLwRhWpVTGsLYxJUmu9Kh6BYBAgQIECBAgAABAgQIECBAoCqBUr4ylsmkAQjTkkRl27GJK012ZUPQHQIECBAgQIAAAQIECBAgQIBAlQKlfGUsk0kDEaYlicq2YxNXmuzKhqA7BAgQIECAAAECBAgQIECAAIEqBUr5ylgmkwYiTEsSlW3HJi5OthsDNaAG1IAaUANqQA2oATWgBtSAGlADakANbFcDY1HQWCaT9hemJYnKtlMTV1l3dYcAAQIECBAgQIAAAQIECBAgcC4EpjIZYVql0zw1cZV2W7cIECBAgAABAgQIECBAgAABAmdaYCqTEaZVOr1TE1dpt3WLAAECBAgQIECAAAECBAgQIHCmBaYyGWFapdM7NXGVdlu3CBAgQIAAAQIECBAgQIAAAQJnWmAqkxGmVTq9UxNXabd1iwABAgQIECBAgAABAgQIECBwpgWmMhlhWqXTOzVxlXZbtwgQIECAAAECBAgQIECAAAECZ1pgKpMRplU6vVMTV2m3dYsAAQIECBAgQIAAAQIECBAgcKYFpjIZYVql0zs1cZV2W7cIECBAgAABAgQIECBAgAABAmdaYCqT2SpMO9yfhdmsd9s/3Brs6GAvzDZoJ/Zj7+Bocd62X/th+54smjz1O1MTd+odckICBAgQIECAAAECBAgQIECAwAUQmMpktg/TOqHXYdifdYOt4xhvG6Yd55y1HTM1cbX1V38IECBAgAABAgQIECBAgAABAudBYCqT2XGYFkIThO0dhOU6sc0ZhWkhTE3c5qqOIECAAAECBAgQIECAAAECBAgQmBKYymROJkzrrFabB2yLy0H3QnZFZtP/zuWiewfhcOAyzyZgG2lj6DLPdNln0/ZQf7LAb7zto3CwNwv7h+2Ku9lsP+zHS1sn2pualHVen5q4qTa6Y2ovxU0mU8dOvb7tZbSd+Y5z2vOcOv86r2/bx3XOYR8CBAgQIECAAAECBAgQIEDg/AlMZTK7DdOODsLerBuWNaFOFlyFw/0QQ6n0fWZN6LHyejdgWaeNPCiKbS4ex/Pl7YcUkLWTXW673Xdvb38ZAE60t6sSmpq4qfM048pDqmZuYjA4deRJvt569sOzw4MNVjKu+IfQ1FRnjk9yDNomQIAAAQIECBAgQIAAAQIEzrPAVCazfZi2WC0264VWkTWu6OqGa6ETZg29HrORPEwb2qcbiHXCsyZbycK0fh+aUCmFeVNtz8O0zlK63jGd9nZXSlMTN3WmlTBt7tIPsqba2enrA2Hrxu0L0zYmcwABAgQIECBAgAABAgQIECCwvsBUJrN9mLZY6hRDpt7Kpxh85GFbdr85bCSI6gRBU22shGdtGLdYmdZ7fbO2u6FdYs/Du057aYcdbKcmbuoUQ/3K+90c3/hnv8baX93VsV+GoivthP6lvL06WHR2oEYWry3vNH1f1Er3vJ162j9sg9fFvssQttvHNI/ttm1j2W46czxm0f7Q5cYjHul4WwIECBAgQIAAAQIECBAgQODsC0xlMjsM05rUqnMJZ/+SzhXOJpxIq8SWr3aCoJF9lnuXw7Nmv9hGExSlUGV+9GTbvf3TScfaS6/vYDs1cVOn6BjGnQfGenSQXb46XzG4WLnWX0V2eLC41LUbVKUgLZvHo4NwMHI5aQrK8rAzH0vzeh7q9fu9sM+OGniu28cUoi0DtCY4y87Tf9x6LcO5UPDIeuIuAQIECBAgQIAAAQIECBAgcMYFpjKZ3YZp80BmEZT0A4g+5sjrTbCRVryN7JM31Q1OVsO1xeWmh/E73bqhT/873vJ2u5ek5q/ML/Xst5fvsuX9sYm7cuVKGLvlp0yh1WKlVX/VYL5zup+HUo17ZpX26a30a23HVqJlB+V3m7aHfhShdwltc0wv0Mz7mNoceK5bE20bi7qMx3XGN3Teto664eKwR2xubE48P16vbNioATWgBtSAGlADakANqAE1oAbUwLWsgRQr9LdjmUzab8dhWloB1VsBlAdYMXDbX37h/OSKoHl4k/9oQRNy9drIg5JukNIOtXlub2/5wwRzgeb8o/3rBTlJLQVKe3sn8kuU8TRjExeLbJ0/KyvT+ivP5o2shG6L1VppNddqUNbxjUFWx2+d3s33aY7NVn+lx/llm/P7KVsd/LGBNcO0RRvx9HlI2wnWlv3vGo57LI9wjwABAgQIECBAgAABAgQIEDgLAqV8ZSyTSePafZiWQptFKDNf4ZMFJHnwlVZ/LVZQ7R+GbojRdrUNvZbfaZW30Ql3UtDV+dGA1ZAvAcTteNvjYVonjMkb29H9sYkrTXZ+6iHDbp/b7y/r/NLpQCjVHhPdl6uyOt5NALZ8Le/DWvfzUGudtob6OPBcp4/zmhwN00bOO27Y9VhrnHYiQIAAAQIECBAgQIAAAQIEqhEo5StjmUzq/FZhWmrkQm4HApxdOoxNXGmy8/OPB0Hz4GtgNVZzTBaCLttrQ8UUYHaCqjwMWx6wwb021GuCrnXaGnIfeK7Tx6kwbeS8sY3FZZ6dEXU9Oi95QIAAAQIECBAgQIAAAQIECFQvUMpXxjKZNChhWpLYaHvyYcrYxJUmOx/CapjW9nkRDvUDpObxbP5DDe1KvuVKrvbY9LgbVKWVfdnqtLEfIIjnSI3MO9v0s7fqLV8F17+kd+iHFIae6/ax2//m1J3xz23yILFZrZaFaYf7Ydn1gfZyfPcJECBAgAABAgQIECBAgACBqgVK+cpYJpMGJExLEmtum9VK8ZLVZbKy5pGb7TY2caXJzs/QhlTLy2Kby2h7fe7sE4OkfIVXCtfml+emVWnxHN2gqj3rwqXZf/mdeXmf0o8VLC7pbfbNQrj5zt22Zr3vuZsHX505WH2u28eB8KsTpsUTZ23M2+4EkgWP7hg9IkCAAAECBAgQIECAAAECBGoXKOUrY5lMGpMwLUlUth2buNJkVzaEM9+dbiB35odjAAQIECBAgAABAgQIECBAgMBcoJSvjGUyCU+YliQq245NXGmyKxvC2e5Oc5nn6qq5sz0ovSdAgAABAgQIECBAgAABAgSiQClfGctkkpwwLUlUth2buNJkVzaEM9Wd/qWl3e9tO1ND0VkCBAgQIECAAAECBAgQIEBgQqCUr4xlMqlJYVqSqGw7NnGlya5sCLpDgAABAgQIECBAgAABAgQIEKhSoJSvjGUyaSDCtCRR2XZs4kqTXdkQdIcAAQIECBAgQIAAAQIECBAgUKVAKV8Zy2TSQIRpSaKy7djElSa7siHoDgECBAgQIECAAAECBAgQIECgSoFSvjKWyaSBCNOSRGXbsYkrTXZlQ9AdAgQIECBAgAABAgQIECBAgECVAqV8ZSyTSQMRpiWJyrZjE1ea7MqGoDsECBAgQIAAAQIECBAgQIAAgSoFSvnKWCaTBiJMSxKVbccmrjTZlQ1BdwgQIECAAAECBAgQIECAAAECVQqU8pWxTCYNRJiWJCrbjk1cabIrG4LuEDgxgTe/+c3BjYEaUANqQA2oATWgBtSAGlADamC4Bk7sw9g5ariUr4xlMmn4wrQkUdl2bOJKk13ZEHSHwIkJxL8w77//fjcGakANqAE1oAbUgBpQA2pADaiBXg3Ez0v+TAuU8pWxTCa1KkxLEpVtxyauNNmVDUF3CJyYgDBNkChMVQNqQA2oATWgBtSAGlADamC4BoRp630ULeUrY5lMalmYliQq245NXGmyKxuC7hA4MQFh2vBfmv4xwUUNqAE1oAbUgBpQA2pADagBYdp6H0VL+cpYJpNaFqYlicq2YxNXmuzKhqA7BE5MQJjmHwj+kagG1IAaUANqQA2oATWgBtTAcA0I09b7KFrKV8YymdSyMC1JVLYdm7jSZFc2BN0hcGICwrThvzT9Y4KLGlADakANqAE1oAbUgBpQA8K09T6KlvKVsUwmtSxMSxKVbccmrjTZlQ1BdwicmIAwzT8Q/CNRDagBNaAG1IAaUANqQA2ogeEaEKat91G0lK+MZTKpZWFakqhsOzZxpcmubAi6Q+DEBIRpw39p+scEFzWgBtSAGlADakANqAE1oAbOW5h2yy1PCK99yhN2/vmylK+MZTKpE8K0JFHZdmziSpNd2RB0h8CJCQjT/APBPxLVgBpQA2pADagBNaAG1IAaGK6BXYZpf/P5T4fv/rmbw3N+8Qeb2/f94g+GHz98yYl91us3/PHXtkHabLb7+KqUr4xlMql/u+9Natl2K4GxiStN9nFPeHT5UoiFubzth8PjNua4jQSW9q354X6chzr9a+rbUJh29y3XhdmNd4Shv1DvuHEWrrvl7ua1eH9Z6737N94Rpl6P7a/uc1245e7hv8jy/jTHFfo4m90Y7rh/up28zYt4v5nr5r9ZrVc7H+wuYi0Ys/9eqAE1oAbUgBpQA2pgtQZ2GaY99LlPhx9563PDfZ/Yb273HD01/Jtf+ZGNPvfmO89mzwvr3J7w2rtCE6Td8oTwlCc8IXz843flzezkfilfGctk0om3CtPaD9e9D6P7YpiEu812bOJKk735+Y7C5UsD4c3hfjgz03i4H2aXLoejzQd/7Y84uhwuzS6FyzV2vnLXbcK0/C/bUrgV9xt7PT6fwrm4XxvuTAdqY+3lfZq8f8eNYXbdLeHuixq63X1LuG42bT3peFH9jHswcFcvq/8IZ8JEDagBNaAG1MDZrYHdhml/E57/y8/JwrT98II3P//Yn6ef8JTXhic85a4QHn8kzJ73vOZ+fPyEW7LbKQRpcQClfGUsk0kD3z5M66Quh2F/Ngt7BzWmA2nIZ2M7NnGlyd50ZM2qqLMaRKXBVh76pG4Obpswrc5VaKFy19rCtPvvvzvccl03YBv6x4cwbQf/IGnCNKvQhurLczuoL2GjsFENqAE1oAbUgBo4BzWwyzDtrz/7N+GH3vDMRZj2/o/sh+e98YcGP+Ku8+TUqrTTWJGW+lnKV8YymXTsjsO0EI4O9sJs7+BsrhRKKhVsxyauNNmbdbsNPjtZ6EgDy0sR56sQOwe1q9v2D9Mqt7hPvtpq6vX2pN1z5McPvT5rVs6trIzM+tVtbxZm2WshpD61BqXLKvvt5M30Xxs+x7DL2LFxTJd6S9U647x0ORzGy3IXHYlj6Hl1QrqRsTb7ZKtKs1C1c754Kd38XEN9GxvHfNaalY+jtbHFyrzzGKb1V7vdH1egLS6/bldiNWHc4rlZ57LW5aWPcV7zlVtt0HfjHe22bTN/vQ0gpo+/I9yYXVpZCm66bc3CjXcsQ47+a91Lc8t9HTt2xS6tKkxW190S7ihcBlwai9eWc8eChRpQA2pADagBNaAGTrcGbrjhhnD33e3X1fTtP/ShD4Vv+qZvGgw/tw3Tvv0l3xVuuu3pi9sL33TTIky752g/PO22/XDTbU9rbt/1sv3w8re/bCRNWH36ec97XrjrrrtGb/mlna997WtXG9jhM6V8ZSyTSac/mTBt8UG/PU0TsKUPNbO90Fm4FlfADLwWP7jHFW6dYwdCus7rsZ3OuY/CwV4MXtpte571zh973m17/eMS7jbbsYkrTfZG52vcp1dFtWFJvt88HFo4p7BoGeg0YcwinJl6PYTmHIv9Q2hWRWXfG7bSh6PL4XK6mnhgBdXK/vPwbFkbbZ8uXdovXmK50k523pXXRs6RB4tdl1hg8TLP3DYOvRumrRyT3i8L//XCtP5Yjy7nY+/P6XwO8jlpnur2bWuDcxim5aFR/y+7+Li0Mq0TCPUvZbzjluV3sg1c5tmETPmln00Ql1ZvpRBtGaA1/cj2X+f46667cdmHwv9b1wZe6dz3h/vvviXcMg/TVl6br+hbBmrTfY3tXdf7brmOXXLOxrcIJke+r25orjx3uv9Q5M1bDagBNaAG1IAaUAOrNRCDtKFALQVpMWwacts2THvOa78nfPgvv2ut2zv++J+Hg7f++NpxRAzTxv7kQVr8jrTSvmNtbPJ8KV8Zy2RS+7sN044Owl4vLGsCqTwEy0Oc/v6HB4ugrQkROpeMzgOxRYiQwq48jOjvk0K0ZRDWtJv6Uzj/cfudYLfdjk1cabI3Omc+D6MHDgQ1cd9OCDQPpvLVVBu9PnSOts12quPr7Uq0wW6uhGlD7a3R55XGS+c95jk6Lv0+tR3ohmnD52lqePE+GNinc56B+VkZ60B4tuLaD/oGzhvbnTp35/Whjqz33OjKtEUwn626mz+Xf8dZ+gunFG7FfcZeHwxvegFPOke+HWsvnWvRx4HAaNHOSpgWV4wtg7J2v7TCK/6F3N5ftB2DsE77xzh+NExrV68Nh4pD5+n3Zaqv/f3bf3B052P4PCX7he3ouFb/YeMYJmpADagBNaAG1IAaUAOnUQP9QG0qSIt92jZMe9ZPPy2868p3rHX7hd/7p+EnfvmF632QC2E0IMuDtNhYDNOe8pSnrN3ucXYs5StjmUw6z/ZhWv7hNYVUqfUQP3Avg6z26TbgarKAJszKw7DFgc0KneVKovnznfBrqO34YT4GeqnN9lyd73DLX8/vL08dk4Vj97vTzBYPxiauNNkbnW6dMG10nzxIyYOveQ+awCStVJt4vTnHavARVxE2NTLah/m54uv5CqrR/Sf63McbbWcePC1qLD9w4hwdl37w1LbTCdNGgqdmRdiGYdpi96y77cqyzL7vmD/ur0wb9dnQIOvPJndHw7SRlUfdsGX5l/5UwDL2evN8/t++fBVUIZAZay/+hRdfWwZeaYVW9xLJ5i/rfpjWrELL5jHrVxtq5cHafOz5yrfjHD82xqatbFVavt/oa3n4NdHX2F4nCGzH07EbeD26NaviRuqjcc376v7g/8PJafnfDhYs1IAaUANqQA2ogdOsgRSoHR4eNpd2jq1IS33aNkx7+su/K7z1g/9krdutv/Ut4d+8cf1f9xxabRbHE4Oz+Kud6c/5D9MWn9Ljh+jeCqLm7ftfOwAAIABJREFUA/fwh7z2sLRyrHfc/IN7JwRrROM55uFc8cN8CvCy4C7NSCeQGzn/Fv1Op9l2e+JhWj/YGepw0XjNsGzx/WTZCfJzj55jvv86r+ehz+j+EyFP1r3m7mg7pximjfRh+zCtfa+uhJB9x/yxMK0TLnTCmw2Cl/XDtPk/TppgKP43NAuoYiiVh3ejIVX6B85EQHWc48fGXGpr9LUdh2kj5xGmpXqwTf/ItFULakANqAE1oAbUQO01cO+99y4+h8RA7e///b8f8iAtfz0fy7Zh2v/+nG8K3/L8f7K4Pe0V3xp++r1f39x+7M5/vHg+7vON/++3hH/z89utTIuLaV57yzJIi5/JL1CYNhAyjIQB/dyiXU0WPzCmFWXtJWUnH6bNe9IEbNn5t+j3ytiO+cSJh2kr3/E10NE89Mpf7qyYmlh5NhWmjZ0jnW/q9ThXeegztv9Un9P50nasnfj62GtT5+gf19m/PfHqyrQUWqaOte+N5arNPCSc79Op37H5Wb7X2iFd6jr2XfthWn8sqXudMY2de3VM6fB1tzWsTFuuIlv/HyEbh2lNaNWGYYvzxbAoD9PyVWaDIddEmHac4wfPk1aN9S85nfuMnad5PoWFE32N5+3s37bdCTdHzlOyz//h4f769cyKlRpQA2pADagBNaAG6qyBbcO0/HPZpz79QPiOH//28KO/9w+a2/f9yj8ML/i5H8132ej+0Mq0oQYuVpgWepdVdlaBDfHkz3WP7X4v1Hy/PCQYa7t5PgUFUyvTRs4/1na+++J+t9+Lp7e8c/JhWuzgwAql5un99hLLeYCSh5zplzCXvzg5FZhMvT4Ph7IgtTnH/uXFL8I2tZC/nv0QQP/HCtruZ8FoMw9tH4p9bvbr/k/pvCuvzUPD4jn6AVQneGrPHdvtt9EJC5v3QP5DG+3YuuFaPv5p/zYcnK2Gabl5P0zbRW30Pbr8xUfnPky748bsFzB7AdPAyqsmKMpXr8XvSbvxlnB3FsZ1vsesFzhtfPxYmJa+Zy7vS/YDBIPnuW718tZSXyfDtPSjBnng2Jh1f/3UP/zq/IefeTEvakANqAE1oAbUgBrYvgZ2Hab9Xy+6Mfzwu25obs9+6z8QpoUQtv/OtMVlnvPPvs2H/XSZ5XBQcrB/0AYlh8vQJgYo7S9vLkOFxfdmNU+1wU++Wm0o0IhtLPfpttk0kwdlk+dPoVw88iis0++299v/7+mEae24Ll+K4Ut2y1d6NQuxLnVeX4Y9y+M7ZdAJSdYIcxbBzLIP3XOkOkqv5yub5mFS7H/Wif73gXXbG+jTyJS1NTZ03rhAbRuXtMItr7F2nEN9XczP/mF73mysi1C0mcP9cNgJ6YbH2ul7nO+VlWirrt2grwXrtDPLg8A1aqNTJyMTMPL0mQ7T8vdavD8PfWLQtFh91oRdqe6y57NwrKmJ7DvA2qBq6JheGLdY3dVdQbbR8YUwLf7jp9tW9zztL3oO9TP+o2GNvk6tTOsbReMb7/CdaRNz5h+t2/+jlSFDNaAG1IAaUANqoJYaqD1Mu+uu14Z1buf7Bwg6H+rbD9Ax0JplP0bQDSSysKsJtpYfqpYhWBsq7B0cNgFbHiT0P1s3v7qZfTjN2+gHdM2xeZhWOH/c9zj97vfvuI9PL0w7bg8dd60EhkKta9WXa3XeoTCtlr+49KPOf0R1wkrB0uK7N9RrnfVqXsyLGlADakANqAE1sE0N7DpM+0ff9/Xh2174zc3t/3z+N4Yffd2PHfujYLzMs/mxgfiDA2vcjn2iNQ4s/cDjWCaTmt1qZVpq5CS2MTDoBmMncZZ62xybuNJk1zsaPduZQH6p884aPXsN1RumxS/TX/4fBIv/I2A28KucZzbQOYNjHLg0dpt/nDjWP27VgBpQA2pADagBNaAGaq6BXYZpV79yNcTvTctvj/ztZ8/eh8iBHpfylbFMJjUjTEsSlW3HJq402ZUNQXd2INBfHdn9/rodnOCMNlFvmOYfFTX8o6J7mWkMN9MPHJifGuZHH9ShGlADakANqAE1oAZOtgZ2Gaad0Y+Ma3W7lK+MZTKpYWFakqhsOzZxpcmubAi6Q+DEBIRpJ/uXr3/c8FUDakANqAE1oAbUgBpQA2e3BoRp630ULeUrY5lMarnaMC118KJuxyauNNkX1cq4L56AMO3s/sXuH2XmTg2oATWgBtSAGlADakANnGwNCNPW+4xcylfGMpnUsjAtSVS2HZu40mRXNgTdIXBiAsK0k/3L1z9u+KoBNaAG1IAaUANqQA2ogbNbA8K09T6KlvKVsUwmtSxMSxKVbccmrjTZlQ1BdwicmIAw7ez+xe4fZeZODagBNaAG1IAaUANqQA2cbA0I09b7KFrKV8YymdSyMC1JVLYdm7jSZFc2BN0hcGIC8S8HNwZqQA2oATWgBtSAGlADakANqIHhGjixD2PnqOFSvjKWyaThC9OSRGXbsYkrTXZlQ9AdAgQIECBAgAABAgQIECBAgECVAqV8ZSyTSQMRpiWJyrZjE1ea7MqGoDsECBAgQIAAAQIECBAgQIAAgSoFSvnKWCaTBiJMSxKVbccmrjTZlQ1BdwgQIECAAAECBAgQIECAAAECVQqU8pWxTCYNRJiWJCrbjk1cabIrG4LuECBAgAABAgQIECBAgAABAgSqFCjlK2OZTBqIMC1JVLYdm7jSZFc2BN0hQIAAAQIECBAgQIAAAQIECFQpUMpXxjKZNBBhWpKobDs2caXJrmwIukOAAAECBAgQIECAAAECBAgQqFKglK+MZTJpIMK0JFHZdmzi4mS7MVADakANqAE1oAbUgBpQA2pADagBNaAG1MB2NTAWBY1lMml/YVqSqGw7NXGVdVd3CBAgQIAAAQIECBAgQIAAAQLnQmAqkxGmVTrNUxNXabd1iwABAgQIECBAgAABAgQIECBwpgWmMhlhWoXT++n//KuDGwM1oAbUgBpQA2pADagBNaAG1IAaUANqQA3UUQN5fCRMyzUque+NUscbxTyYBzWgBtSAGlADakANqAE1oAbUgBpQA2og1kD+R5iWa1Ry3xvVG1UNqAE1oAbUgBpQA2pADagBNaAG1IAaUAP11EAeGQnTco1K7nuz1PNmMRfmQg2oATWgBtSAGlADakANqAE1oAbUgBrIIyNhWq5RyX1vUm9SNaAG1IAaUANqQA2oATWgBtSAGlADakAN1FMDeWQkTMs1Krk/9GappGu6QYAAAQIECBAgQIAAAQIECBA41wJTucyOwrSjcLA3C7O9g3C0JufRwV6Y7R+uuXddu51036cmrS4NvSFAgAABAgQIECBAgAABAgQInB+BqVxmN2Ha0UHY29sLe7O9cLBmmnbSgdRJTuFJ931q0k5ybNomQIAAAQIECBAgQIAAAQIECFxkgalcZidh2uH+LOwdHIW4XXe12UkHUic56Sfd96lJO8mxaZsAAQIECBAgQIAAAQIECBAgcJEFpnKZHYRph2E/rUiLK9Rm+2Ho4s0maJvNwize9g7CYXaZ51AI1wRW6bLRpt35sfPjlwvg2ktM9w/nl5o251hdIde0l84/m4X8CtPua6vHlvp+EsU1NWkbnfNwvzXPxr5u4LnReXa4c/SO4aw/BAgQIECAAAECBAgQIECAAIHTFpjKZbYP02JYk0KvkIKt7jCbMGqxTwghBTwp0eq0EY/ttnN0sJ9dPjoPzdKx831nKdBrmu9+f1sblmUh39FBOJgnfp3QLp666dty38m+d4e6k0dTk7beSVK4uBxLe9xh2M/nYr3GTnUvYdqpcjsZAQIECBAgQIAAAQIECBAgkAlM5TJbh2n94KMJpxZBV+xJtnIt61gTUi326+1TWOHWNNEJ39rQqLOSqXN8bLu7Em3Zjd55mxfyIG/o9Zi3rX856/Jc69+bmrR1WloJCdc5qJJ9+jVVSbd0gwABAgQIECBAgAABAgQIELgAAlO5zHZhWhNa9S6L7D/XCbaW4v3QLQ9Q+q/Fo5rn8ksVF6ur8vBr3n7eh95Ks2UP0iq07PLRrP0m51uz7502d/BgatKmT1EKEFeP7trm85ls221ziW62AjC1NH18259ZugS4cc3cF3PZtpjXQjqHLQECBAgQIECAAAECBAgQIEDgNASmcpmtwrRuiJKFI7PsO69Gwqzm2MXKtHmw1YQqKcBJPPMgJg9cBlam5U2FjcK0/mWQ6bwpbFt9faXv2SG7uDs1aZPnGDEfOq4ZS982hV7rXkI7cfzeXn6ZbgxG88fzoC6bQGHa0Ex5jgABAgQIECBAgAABAgQIEDgNgalcZoswrQ1BOpdXzkfUCWjyYCsbcQxMul+EP7+k8rD3IwYDq8M67fe+X605RX7O/H52/pX9+q/FxyPHrvZ96ODjP1eatCtXroSx2+KMA2FaY7ZYeZcCwrl557v+8zBzYI4783GM4xedzO50wtH2Mtp+XY2N2fPj9cCGjRpQA2pADagBNaAG1IAaUANqQA2ogfEayJKJzt1SLhN3PH6YNhI0NWdvXlt+T1kTPq2sXuqHafMQZW+v+0uO/fPM2y7+6EHvmOb8i9VWbUiWfoBg5bUYzu0fhJQvrdv3jvqWD0qTFt8Ek38GwrTFMY3NPExr9uuuKGwv5Uxzlwdr8xZy2+Mcv2hmr/sro1l9RPN+mLbovzsECBAgQIAAAQIECBAgQIAAgS0FSvlKKZeJpz12mLYSMnUG0YYwy5Vn88dpZdT+YfsdaNmlfc3hTTiTf2dX22hnVVUMXeJ+i/BlIvCZ96sNzVJw1D1H97V+kLNm3zvj3+5BadJKk704ax54LZ6c31kJ09Iqtf6O8fGEbTNfGx7f/CBF99dWm19QXczn8Mq0od55jgABAgQIECBAgAABAgQIECBwHIFSvlLKZeK5jh2mHaejjllPoDRppcnOW28Cwn5YGXfIw7RS6NY0NhGmHfv4bgDXvWxXmJbPo/sECBAgQIAAAQIECBAgQIDA7gVK+Uopl4k9Eabtfj62brE0aaXJ7p544Icb4g55mNb8xkJcrZeHW/llrhNh2g6Ob/vTXakWg0CXeXZn0yMCBAgQIECAAAECBAgQIEBgdwKlfKWUy8QeCNN2Nw87a6k0aaXJHupA/xLW+J1o/QVr/X2WQdZ0mBbPudHxTZ6XfV/aymW7VqYNzaPnCBAgQIAAAQIECBAgQIAAgd0JlPKVUi4TeyBM29087Kyl0qSVJntnHdAQAQIECBAgQIAAAQIECBAgQOAcC5TylVIuE0mEaRUWRmnSSpNd4VB0iQABAgQIECBAgAABAgQIECBQnUApXynlMnEgwrTqpjOE0qSVJrvCoegSAQIECBAgQIAAAQIECBAgQKA6gVK+Uspl4kCEadVNpzCtwinRJQIECBAgQIAAAQIECBAgQOAcCQjTztFkxqGUEtDSZJ8zBsMhQIAAAQIECBAgQIAAAQIECJyIQClfKeUysTNWpp3IlGzXaGnSSpO93VkdTYAAAQIECBAgQIAAAQIECBC4GAKlfKWUy0QdYVqFNVKatNJkVzgUXSJAgAABAgQIECBAgAABAgQIVCdQyldKuUwciDCtuul0mWeFU6JLBAgQIECAAAECBAgQIECAwDkSEKado8mMQykloKXJPmcMhkOAAAECBAgQIECAAAECBAgQOBGBUr5SymViZ6xMO5Ep2a7R0qSVJnu7s9Z79C+9+deCGwM1oAbUgBpQA2pADagBNaAG1IAaUANqoF8Dx00zSvlKKZeJ5xOmHVf9BI8rTVppsk+wS9e06fhG8YcAAQIECBAgQIAAAQIECBAgkAtskxeU8pVSLhPPL0zLZ6GS+6VJK012Jd3feTe2eXPsvDMaJECAAAECBAgQIECAAAECBKoQ2CYvKOUrpVwmDlyYVsX0dztRmrTSZHdbOT+PtnlznB8FIyFAgAABAgQIECBAgAABAgRygW3yglK+Uspl4vmFafksVHK/NGmlya6k+zvvxjZvjp13RoMECBAgQIAAAQIECBAgQIBAFQLb5AWlfKWUy8SBC9OqmP5uJ0qTVprsbivn59E2b47zo2AkBAgQIECAAAECBAgQIECAQC6wTV5QyldKuUw8vzAtn4VK7pcmrTTZlXR/593Y5s2x885okAABAgQIECBAgAABAgQIEKhCYJu8oJSvlHKZOHBhWhXT3+1EadJKk91t5fw82ubNcX4UjIQAAQIECBAgQIAAAQIECBDIBbbJC0r5SimXiecXpuWzUMn90qSVJruS7u+8G9u8OXbeGQ0SIECAAAECBAgQIECAAAECVQhskxeU8pVSLhMHLkyrYvq7nShNWmmyu61MPzrcn4XZLL9dCpePpo8b3uMoXL40C/uHw69u8+zkm+NwP8wuXQ7H7nqvc63LfhgcSu9cR5cvhUvHR+ud2UMCBAgQIECAAAECBAgQIEBgXYHJvKDQUClfKeUyscmtwrQ2dNgLB6MpxmHYj2HNSSQsBZD40tHB3jU570S31nq5NGmlyV6r8WynOH95EBSDodlszUCtFyqFcK3CtJM7b0Y1vztwrsP9EwkQV8/tGQIECBAgQIAAAQIECBAgQCAXOMNh2izsjaRpMdDa29sw1Iohzd7B1quMNg7TdnTefFKPe/9ahWkpEMsDttEx1BKmHV0Ol2Yjq8hGO3/MF/JzxfHH8zZhWhsaX4PM+JgDcRgBAgQIECBAgAABAgQIEDj7Amc2TGvCssEw4ygc7M2EaceozSrCtCY4yi4BzS6jXLk8tEmR0qqtdttePpqtcmvayx5v4FJ6czSr6fIUq9DveMq0Gq9dhTcfXza2fJ9+F1fOFeYrLwfrv3+0xwQIECBAgAABAgQIECBAgMAuBUp5wdR5Slf+lXKZ2O7Wl3nuHRw2oVmeZzQdnq/0Ohy43LJZNbb4rq7lZaLDIU1zzWbYW+w/G1y51jl27yCsnPfoYLSNzrH5ZamFY6YmZZvXS5NWmuxNz5mCpeVxKRAL4ejyfvb9afOALJ/kkZVp+WWijWsKqk4kTIthVjegm+p3muvl6rvVsa26RKHVc4VosH/YBHQ5zdLTPQIECBAgQIAAAQIECBAgQOCkBM5wmHbUfj9Z79LMGEjEyz/7l1s2j/N90+VySXYewuVfw3Z0sJ99L1u74i3/HrYmIFlps/tdbVNtNMFI3kaT4ZXPm7q86+21CtPaoGnkksl+eNZ/PP/OtGVIFQF3cwnm6JtjpQ8DM9HbpxljP/nqBX1xn844YrO9dtpLYudBXjw+hYYDXfAUAQIECBAgQIAAAQIECBAgsHuB0bxgjVOVFiuVcpnY9A5WpsXYK67aWa4wC82KrjaU6YZpvf2awbXh2CLfiKFFL9RaMejsM9RmezlfHriV25iHJRudd6XFnT1RmrTSZG/agTY8G76UM7bVuRQyrtjLA6PBcKn3a569kGrT/qX9x94cg6HXRL+Hj+muOhvaZ+i51D9bAgQIECBAgAABAgQIECBA4PQFxvKCdXpSyldKuUxse0dhWhtepR8iyAO0/H6zuie/XDO7PxWmNe1k+y8Ctyy4y7E6552/MNpGfL0T0C1bKh6z3G2n90qTVprsTTsxHhDFcGkiPLvmYVrsY38V3XS/h8c8FaYNnWtTbfsTIECAAAECBAgQIECAAAECuxQ482HacjVaXGm2XKXWCbViALMSgPQYV0KteUCSrxrL9xlps3Pe9EXxY23ELuRtNl2aOG+v27t8eM3DtIHLM5tVahWtTFv9MYDhy0r7/Y5h2sqKxV4N9QO3wXPtcsK1RYAAAQIECBAgQIAAAQIECGwscPbDtDC/XHO/e5lmJ9RqVpEtg7ZBpX6oNbDyrGkzBWMjbXZCk6k2Ykc2Pe9g53fzZB1hWvbF/k24NrBSrROMLn+8YKGQX+aZ31/ssN6d1TfHwLliU/1zDPS7qYtZfjlqG5rm35HWDdNGzrVe1+1FgAABAgQIECBAgAABAgQInJDAal6w/olKV/6Vcpl4hp1d5tl0t1nh0/7wQOp+J0xrMqv4HV355XlH4WD/ICx+cKC3Sqhd8ZYFcE0w1v1FzyYgSeFaPPG8H4sVSP3AbaCN9pisX+sckwa5421p0kqTvWk3uqFR9+hmNVa6rDauSIum+cq0+Q8OzOI+zTW6A6FTHm7l97unmny08uaIbXX6smxiqt/tmA/D5UvZd8UtrjFu2+m4FM61PKt7BAgQIECAAAECBAgQIECAwGkLrOQFG3SglK+Ucpl4it2Gac3llFkgFRcLHeytXFbXhF8pqJl1w7f4K4kHe/OgYx5yNG2k/WNoFoOdPDzLj5mHO/3zbtTG2ufdYJY22LU0aaXJ3uAUZ2rX/pujE3ZtOJJNj910/w27Y3cCBAgQIECAAAECBAgQIEDgmAL9vGCTZkr5SimXiefYKkzbpJP2XV+gNGmlyV7/DGdrz/6bY3+WXYK64VA2C8fiJaDHP9eGXbM7AQIECBAgQIAAAQIECBAgsIFAPy/Y4NBQyldKuUw8hzBtE+lT2rc0aaXJPqXunfpptnlz9Du7WZjWP9pjAgQIECBAgAABAgQIECBAoBaBbfKCUr5SymXi2IVptVRA1o/SpJUmO2viXN3d5s1xriAMhgABAgQIECBAgAABAgQIEFgIbJMXlPKVUi4TTy5MW0xBPXdKk1aa7HpGsNuebPPm2G1PtEaAAAECBAgQIECAAAECBAjUIrBNXlDKV0q5TBy7MK2WCsj6UZq00mRnTZyru9u8Oc4VhMEQIECAAAECBAgQIECAAAECC4Ft8oJSvlLKZeLJhWmLKajnTmnSSpNdzwh225Nt3hy77YnWCBAgQIAAAQIECBAgQIAAgVoEtskLSvlKKZeJYxem1VIBWT9Kk1aa7KyJc3U3vjncGKgBNaAG1IAaUANqQA2oATWgBtSAGlAD/Ro4bgBSyldKuUw8nzDtuOoneFxp0kqTfYJd0jQBAgQIECBAgAABAgQIECBA4NwIlPKVUi4TAYRpFZZBadJKk13hUHSJAAECBAgQIECAAAECBAgQIFCdQClfKeUycSDCtOqmM4TSpJUmu8Kh6BIBAgQIECBAgAABAgQIECBAoDqBUr5SymXiQIRp1U2nMK3CKdElAgQIECBAgAABAgQIECBA4BwJCNPO0WTGoZQS0NJknzMGwyFAgAABAgQIECBAgAABAgQInIhAKV8p5TKxM1amnciUbNdoadJKk73dWR1NgAABAgQIECBAgAABAgQIELgYAqV8pZTLRB1hWoU1Upq00mRXOBRdIkCAAAECBAgQIECAAAECBAhUJ1DKV0q5TByIMK266XSZZ4VToksECBAgQIAAAQIECBAgQIDAORIQpp2jyYxDKSWgpck+ZwyGQ4AAAQIECBAgQIAAAQIECBA4EYFSvlLKZWJnrEw7kSnZrtHSpJUme7uzOpoAAQIECBAgQIAAAQIECBAgcDEESvlKKZeJOsK0CmukNGmlya5wKLpEgAABAgQIECBAgAABAgQIEKhOoJSvlHKZOBBhWnXT6TLPCqdElwgQIECAAAECBAgQIECAAIFzJCBMO0eTGYdSSkBLk33OGAyHAAECBAgQIECAAAECBAgQIHAiAqV8pZTLxM5YmXYiU7Jdo6VJK032dmd1NAECBAgQIECAAAECBAgQIEDgYgiU8pVSLhN1hGkV1khp0kqTXeFQdIkAAQIECBAgQIAAAQIECBAgUJ1AKV8p5TJxIFuFaYf7szCb7YWDo1WTo4O9MNs/XH3BM5MCpUkrTfZkw3YgQIAAAQIECBAgQIAAAQIECBAIpXyllMtEuh2EabMw2zsI/TztWGHa4f5gWxdtjkuTVprsi+ZkvAQIECBAgAABAgQIECBAgACB4wiU8pVSLhPPtXWYtndwEPZns7DXW54mTDvOVLbHlCatNNnHP6MjCRAgQIAAAQIECBAgQIAAAQIXR6CUr5RymSi0gzDtKIS4omy2H/KLOofCtOa5Wbw0dH7LLgNtLxkdfq17XO+y0ubc6bjea2e0BkqTVprsMzpc3SZAgAABAgQIECBAgAABAgQInKpAKV8p5TKxk7sJ00LM02ad70jrh2ltIJYHbkfhYK97TBPK9S4ZbY7Ln8uDu6ODsJd/Z9vhweD3t53qbOzgZKVJK032Dk6tCQIECBAgQIAAAQIECBAgQIDAuRco5SulXCbC7CxMC71gqxumHYb9PPRKU9IckwVsK9+ZNnRcG8I1i9r6x6d2z/i2NGmlyT7jw9Z9AgQIECBAgAABAgQIECBAgMCpCJTylVIuEzu3uzAthJCvIuuEaflqsg5JLyzrh2nNcekSzu62vUJ0vrptNgvZFaOdM5zFB6VJK032WRyrPhMgQIAAAQIECBAgQIAAAQIETluglK+UcpnYz52GaSHEcKz9MYLdhWnZyrUx2WaFWgzb1th3rI2Kni9NWmmyKxqCrhAgQIAAAQIECBAgQIAAAQIEqhUo5SulXCYOaMdhWvPlaU2odXCwt/wOtd4loAvJ/mWa/ZVpY8ctGsjvtKvU+r8qmu9xVu6XJq002WdlfPpJgAABAgQIECBAgAABAgQIELiWAqV8pZTLxD7vPkxLP0YQf7Ezu/ay/bXOfOXYQPg1cDno4HH7B+Eo9v5wP7u8M/sutWs5Gzs4d2nSSpO9g1NrggABAgQIECBAgAABAgQIECBw7gVK+Uopl4kwJxKmtT9G0A3T4smaSz9jyDa/ra4iW34H2moQN3Dc4vLO9rXV9s7m3JcmrTTZZ3O0ek2AAAECBAgQIECAAAECBAgQOF2BUr5SymViL7cK0053mBfnbKVJK032xREyUgIECBAgQIAAAQIECBAgQIDA8QVK+Uopl4lnFKYd3/3EjixNWmmyT6xDGiZAgAABAgQIECBAgAABAgQInCOBUr5SymUigTCtwkIoTVppsiscii4RIECAAAECBAgQIECAAAECBKoTKOUrpVwmDkSYVt10hlCatNJkVzgUXSJAgACJVI1VAAAKH0lEQVQBAgQIECBAgAABAgQIVCdQyldKuUwciDCtuukUplU4JbpEgAABAgQIECBAgAABAgQInCMBYdo5msw4lFICWprsc8ZgOAQIECBAgAABAgQIECBAgACBExEo5SulXCZ2xsq0E5mS7RotTVppsrc7q6MJECBAgAABAgQIECBAgAABAhdDoJSvlHKZqCNMq7BGSpNWmuwKh6JLBAgQIECAAAECBAgQIECAAIHqBEr5SimXiQMRplU3ncOXeQ5NpOe+evCSWC5c1IAaUANqQA2oATWgBtSAGlADakANqIFd1kAeHwnTco1K7u9ysrXlPx5qQA2oATWgBtSAGlADakANqAE1oAbUgBrYrgbyyEiYlmtUcl+Bb1fg/PipATWgBtSAGlADakANqAE1oAbUgBpQA7usgTwyEqblGpXc3+Vka8t/PNSAGlADakANqAE1oAbUgBpQA2pADagBNbBdDeSRkTAt16jkvgLfrsD58VMDakANqAE1oAbUgBpQA2pADagBNaAGdlkDeWQkTMs1Krr/wIMPDfam9GsTgwd4kgABAgQIECBAgAABAgQIECBAoCNQylfGMpnUgDAtSVS2HZu40mRXNgTdIUCAAAECBAgQIECAAAECBAhUKVDKV8YymTQQYVqSqGw7NnGlya5sCLpDgAABAgQIECBAgAABAgQIEKhSoJSvjGUyaSDCtCRR2XZs4kqTXdkQdIcAAQIECBAgQIAAAQIECBAgUKVAKV8Zy2TSQIRpSaKy7djElSa7siHoDgECBAgQIECAAAECBAgQIECgSoFSvjKWyaSBCNOSRGXbsYkrTXZlQ9AdAgQIECBAgAABAgQIECBAgECVAqV8ZSyTSQMRpiWJyrZjE1ea7MqGoDsECBAgQIAAAQIECBAgQIAAgSoFSvnKWCaTBiJMSxKVbccmrjTZlQ1BdwgQIECAAAECBAgQIECAAAECVQqU8pWxTCYNRJiWJCrbjk1cabIrG4LuECBAgAABAgQIECBAgAABAgSqFCjlK2OZTBrIVmHa0cFemO0fprY628P9Wdg7OOo8V3qw6f6lts7Da2MTV5rs8zBuYyBAgAABAgQIECBAgAABAgQInLRAKV8Zy2RSn4RpSaKy7djElSa7siHoDgECBAgQIECAAAECBAgQIECgSoFSvjKWyaSBCNOSRGXbsYkrTXZlQ9AdAgQIECBAgAABAgQIECBAgECVAqV8ZSyTSQM51TCtuSx0Nguz5rYX8qtA+5d5psedY/YOwvoXjqYhns3t2MSVJvtsjlSvCRAgQIAAAQIECBAgQIAAAQKnK1DKV8YymdTDUwvTmlAsD8MO98Nsth/SN66l8Cx1LD6Oodvye9eOwsHebPQ72tJx52U7NnGlyT4vYzcOAgQIECBAgAABAgQIECBAgMBJCpTylbFMJvVn+zBtsdIsrThbbpdB2GHYn3VXooXQhmPp9wsGw7T0Yurt0UHYW2knvXi+tmMTV5rs8yVgNAQIECBAgAABAgQIECBAgACBkxEo5StjmUzqyfZhWj/wmrfcCceaVWjLkK29zLN9nA7v7B9C6D9umx0K5dJQztd2bOJKk32+BIyGAAECBAgQIECAAAECBAgQIHAyAqV8ZSyTST05xTBteUlnOnm+7Ydn/cftvsK00mTnnu4TIECAAAECBAgQIECAAAECBAgMC5TylTrCtDUuz+yHZ/HxLC1bS+Pufc9aevo8bscmrjTZ59HBmAgQIECAAAECBAgQIECAAAECuxYo5StjmUzqw+msTJtftpn/4EDznWn7y1/nHAzTZrOwzNPiqrT8BwnSEM7ndmziSpN9PiWMigABAgQIECBAgAABAgQIECCwW4FSvjKWyaQenFqYFk/YrDbLfrBg+QMFq9+R1oZrh+0veKZjlsla6v+53Y5NXGmyzy2GgREgQIAAAQIECBAgQIAAAQIEdihQylfGMpl0+q3CtNTISWz7K9VO4hw1tzk2caXJrnk8+kaAAAECBAgQIECAAAECBAgQqEWglK+MZTKp78K0JFHZdmziSpNd2RB0hwABAgQIECBAgAABAgQIECBQpUApXxnLZNJAhGlJorLt2MSVJruyIegOAQIECBAgQIAAAQIECBAgQKBKgVK+MpbJpIFUG6alDl7U7djElSb7oloZNwECBAgQIECAAAECBAgQIEBgE4FSvjKWyaT2hWlJorLt2MSVJruyIegOAQIECBAgQIAAAQIECBAgQKBKgVK+MpbJpIEI05JEZduxiStNdmVD0B0CBAgQIECAAAECBAgQIECAQJUCpXxlLJNJAxGmJYnKtmMTV5rsyoagOwQIECBAgAABAgQIECBAgACBKgVK+cpYJpMGIkxLEpVtxyauNNmVDUF3CBAgQIAAAQIECBAgQIAAAQJVCpTylbFMJg1EmJYkKtuOTVxpsisbgu4QIECAAAECBAgQIECAAAECBKoUKOUrY5lMGogwLUlUth2buNJkVzYE3SFAgAABAgQIECBAgAABAgQIVClQylfGMpk0EGFakqhsOzZxpcmubAi6Q4AAAQIECBAgQIAAAQIECBCoUqCUr4xlMmkgwrQkUdl2bOJKk13ZEHSHAAECBAgQIECAAAECBAgQIFClQClfGctk0kCEaUmisu3YxJUmu7Ih6A4BAgQIECBAgAABAgQIECBAoEqBUr4ylsmkgQjTkkRl27GJK012ZUPQHQIECBAgQIAAAQIECBAgQIBAlQKlfGUsk0kDEaYlicq2YxNXmuzKhqA7BAgQIECAAAECBAgQIECAAIEqBUr5ylgmkwYiTEsSlW3HJq402ZUNQXcIECBAgAABAgQIECBAgAABAlUKlPKVsUwmDUSYliQq245NXGmyKxuC7hAgQIAAAQIECBAgQIAAAQIEqhQo5StjmUwaiDAtSVS2HZu40mRXNgTdIUCAAAECBAgQIECAAAECBAhUKVDKV8YymTQQYVqSqGw7NnGlya5sCLpDgAABAgQIECBAgAABAgQIEKhSoJSvjGUyaSDCtCRR2XZs4kqTXdkQdIcAAQIECBAgQIAAAQIECBAgUKVAKV8Zy2TSQIRpSaKy7djElSa7siHoDgECBAgQIECAAAECBAgQIECgSoFSvjKWyaSBCNOSRGXbsYkrTXZlQ9AdAgQIECBAgAABAgQIECBAgECVAqV8ZSyTSQMRpiWJyrZjE1ea7MqGoDsECBAgQIAAAQIECBAgQIAAgSoFSvnKWCaTBiJMSxKVbccmrjTZlQ1BdwgQIECAAAECBAgQIECAAAECVQqU8pWxTCYNRJiWJCrbjk1cabIrG4LuECBAgAABAgQIECBAgAABAgSqFCjlK2OZTBqIMC1JVLYdm7jSZFc2BN0hQIAAAQIECBAgQIAAAQIECFQpUMpXxjKZNBBhWpKobDs2caXJrmwIukOAAAECBAgQIECAAAECBAgQqFKglK+MZTJpIP8/BZeBBN1a2Q0AAAAASUVORK5CYII=;" vertex="1" parent="beViUweJll60y015WwgA-1">
          <mxGeometry x="10" y="230" width="935" height="260.43" as="geometry" />
        </mxCell>
      </root>
    </mxGraphModel>
  </diagram>
  <diagram id="ffzrxq0AsfriTXl2ucij" name="Use Case">
    <mxGraphModel dx="1278" dy="614" grid="1" gridSize="10" guides="1" tooltips="1" connect="1" arrows="1" fold="1" page="1" pageScale="1" pageWidth="850" pageHeight="1100" math="0" shadow="0">
      <root>
        <mxCell id="R7LooSgmkalL_706zokq-0" />
        <mxCell id="R7LooSgmkalL_706zokq-1" parent="R7LooSgmkalL_706zokq-0" />
        <mxCell id="R7LooSgmkalL_706zokq-2" value="" style="ellipse;shape=cloud;whiteSpace=wrap;html=1;align=center;" vertex="1" parent="R7LooSgmkalL_706zokq-1">
          <mxGeometry x="180" y="150" width="460" height="180" as="geometry" />
        </mxCell>
        <mxCell id="R7LooSgmkalL_706zokq-7" style="edgeStyle=orthogonalEdgeStyle;rounded=0;orthogonalLoop=1;jettySize=auto;html=1;entryX=0.308;entryY=0.008;entryDx=0;entryDy=0;entryPerimeter=0;" edge="1" parent="R7LooSgmkalL_706zokq-1" source="R7LooSgmkalL_706zokq-3" target="R7LooSgmkalL_706zokq-5">
          <mxGeometry relative="1" as="geometry" />
        </mxCell>
        <mxCell id="R7LooSgmkalL_706zokq-8" style="edgeStyle=orthogonalEdgeStyle;rounded=0;orthogonalLoop=1;jettySize=auto;html=1;" edge="1" parent="R7LooSgmkalL_706zokq-1" source="R7LooSgmkalL_706zokq-3" target="R7LooSgmkalL_706zokq-4">
          <mxGeometry relative="1" as="geometry" />
        </mxCell>
        <mxCell id="R7LooSgmkalL_706zokq-9" style="edgeStyle=orthogonalEdgeStyle;rounded=0;orthogonalLoop=1;jettySize=auto;html=1;entryX=0.382;entryY=-0.042;entryDx=0;entryDy=0;entryPerimeter=0;" edge="1" parent="R7LooSgmkalL_706zokq-1" source="R7LooSgmkalL_706zokq-3" target="R7LooSgmkalL_706zokq-6">
          <mxGeometry relative="1" as="geometry">
            <mxPoint x="380" y="470" as="targetPoint" />
            <Array as="points">
              <mxPoint x="340" y="370" />
              <mxPoint x="570" y="370" />
            </Array>
          </mxGeometry>
        </mxCell>
        <mxCell id="R7LooSgmkalL_706zokq-14" style="edgeStyle=orthogonalEdgeStyle;rounded=0;orthogonalLoop=1;jettySize=auto;html=1;entryX=0.5;entryY=0;entryDx=0;entryDy=0;" edge="1" parent="R7LooSgmkalL_706zokq-1" source="R7LooSgmkalL_706zokq-3" target="R7LooSgmkalL_706zokq-11">
          <mxGeometry relative="1" as="geometry" />
        </mxCell>
        <mxCell id="R7LooSgmkalL_706zokq-3" value="MULE APP" style="rounded=1;whiteSpace=wrap;html=1;align=center;" vertex="1" parent="R7LooSgmkalL_706zokq-1">
          <mxGeometry x="280" y="210" width="120" height="60" as="geometry" />
        </mxCell>
        <mxCell id="R7LooSgmkalL_706zokq-4" value="Logging Upto 100 MB" style="shape=cylinder;whiteSpace=wrap;html=1;boundedLbl=1;backgroundOutline=1;align=center;" vertex="1" parent="R7LooSgmkalL_706zokq-1">
          <mxGeometry x="460" y="200" width="90" height="80" as="geometry" />
        </mxCell>
        <mxCell id="R7LooSgmkalL_706zokq-5" value="LOGSTASH" style="shape=cylinder;whiteSpace=wrap;html=1;boundedLbl=1;backgroundOutline=1;align=center;" vertex="1" parent="R7LooSgmkalL_706zokq-1">
          <mxGeometry x="300" y="500" width="130" height="80" as="geometry" />
        </mxCell>
        <mxCell id="R7LooSgmkalL_706zokq-6" value="SPLUNK" style="shape=cylinder;whiteSpace=wrap;html=1;boundedLbl=1;backgroundOutline=1;align=center;" vertex="1" parent="R7LooSgmkalL_706zokq-1">
          <mxGeometry x="520" y="500" width="130" height="80" as="geometry" />
        </mxCell>
        <mxCell id="R7LooSgmkalL_706zokq-10" value="&lt;font style=&quot;font-size: 20px&quot;&gt;LOGGING USE CASE&lt;/font&gt;" style="text;html=1;strokeColor=none;fillColor=none;align=center;verticalAlign=middle;whiteSpace=wrap;rounded=0;fontStyle=1" vertex="1" parent="R7LooSgmkalL_706zokq-1">
          <mxGeometry x="280" y="90" width="290" height="20" as="geometry" />
        </mxCell>
        <mxCell id="R7LooSgmkalL_706zokq-11" value="BACKEND SYSTEM" style="shape=cylinder;whiteSpace=wrap;html=1;boundedLbl=1;backgroundOutline=1;align=center;" vertex="1" parent="R7LooSgmkalL_706zokq-1">
          <mxGeometry x="30" y="430" width="210" height="80" as="geometry" />
        </mxCell>
        <mxCell id="R7LooSgmkalL_706zokq-15" value="Proprietary Protocol" style="text;html=1;strokeColor=none;fillColor=none;align=center;verticalAlign=middle;whiteSpace=wrap;rounded=0;" vertex="1" parent="R7LooSgmkalL_706zokq-1">
          <mxGeometry x="30" y="300" width="90" height="20" as="geometry" />
        </mxCell>
      </root>
    </mxGraphModel>
  </diagram>
  <diagram id="34FzINFHYlCEMb2RlCTA" name="Use Case 2">
    <mxGraphModel dx="1278" dy="614" grid="1" gridSize="10" guides="1" tooltips="1" connect="1" arrows="1" fold="1" page="1" pageScale="1" pageWidth="850" pageHeight="1100" math="0" shadow="0">
      <root>
        <mxCell id="qSGVyoUfd2PjtXdRrv0o-0" />
        <mxCell id="qSGVyoUfd2PjtXdRrv0o-1" parent="qSGVyoUfd2PjtXdRrv0o-0" />
        <mxCell id="qSGVyoUfd2PjtXdRrv0o-7" style="edgeStyle=orthogonalEdgeStyle;rounded=0;orthogonalLoop=1;jettySize=auto;html=1;entryX=0.5;entryY=0;entryDx=0;entryDy=0;" edge="1" parent="qSGVyoUfd2PjtXdRrv0o-1" source="qSGVyoUfd2PjtXdRrv0o-2" target="qSGVyoUfd2PjtXdRrv0o-4">
          <mxGeometry relative="1" as="geometry" />
        </mxCell>
        <mxCell id="qSGVyoUfd2PjtXdRrv0o-2" value="GET" style="rounded=1;whiteSpace=wrap;html=1;align=center;" vertex="1" parent="qSGVyoUfd2PjtXdRrv0o-1">
          <mxGeometry x="160" y="170" width="120" height="60" as="geometry" />
        </mxCell>
        <mxCell id="qSGVyoUfd2PjtXdRrv0o-8" style="edgeStyle=orthogonalEdgeStyle;rounded=0;orthogonalLoop=1;jettySize=auto;html=1;entryX=0.5;entryY=0;entryDx=0;entryDy=0;" edge="1" parent="qSGVyoUfd2PjtXdRrv0o-1" source="qSGVyoUfd2PjtXdRrv0o-3" target="qSGVyoUfd2PjtXdRrv0o-4">
          <mxGeometry relative="1" as="geometry">
            <mxPoint x="420" y="360" as="targetPoint" />
          </mxGeometry>
        </mxCell>
        <mxCell id="qSGVyoUfd2PjtXdRrv0o-3" value="POST" style="rounded=1;whiteSpace=wrap;html=1;align=center;" vertex="1" parent="qSGVyoUfd2PjtXdRrv0o-1">
          <mxGeometry x="570" y="170" width="120" height="60" as="geometry" />
        </mxCell>
        <mxCell id="qSGVyoUfd2PjtXdRrv0o-4" value="https://reqres.in" style="rounded=1;whiteSpace=wrap;html=1;align=center;" vertex="1" parent="qSGVyoUfd2PjtXdRrv0o-1">
          <mxGeometry x="365" y="370" width="120" height="60" as="geometry" />
        </mxCell>
      </root>
    </mxGraphModel>
  </diagram>
</mxfile>
